<?xml version="1.0" encoding="utf-8" standalone="no"?>
<!DOCTYPE svg PUBLIC "-//W3C//DTD SVG 1.1//EN"
  "http://www.w3.org/Graphics/SVG/1.1/DTD/svg11.dtd">
<svg xmlns:xlink="http://www.w3.org/1999/xlink" width="460.8pt" height="345.6pt" viewBox="0 0 460.8 345.6" xmlns="http://www.w3.org/2000/svg" version="1.1">
 <metadata>
  <rdf:RDF xmlns:dc="http://purl.org/dc/elements/1.1/" xmlns:cc="http://creativecommons.org/ns#" xmlns:rdf="http://www.w3.org/1999/02/22-rdf-syntax-ns#">
   <cc:Work>
    <dc:type rdf:resource="http://purl.org/dc/dcmitype/StillImage"/>
    <dc:date>2023-12-14T15:39:30.362193</dc:date>
    <dc:format>image/svg+xml</dc:format>
    <dc:creator>
     <cc:Agent>
      <dc:title>Matplotlib v3.8.2, https://matplotlib.org/</dc:title>
     </cc:Agent>
    </dc:creator>
   </cc:Work>
  </rdf:RDF>
 </metadata>
 <defs>
  <style type="text/css">*{stroke-linejoin: round; stroke-linecap: butt}</style>
 </defs>
 <g id="figure_1">
  <g id="patch_1">
   <path d="M 0 345.6 
L 460.8 345.6 
L 460.8 0 
L 0 0 
z
" style="fill: #ffffff"/>
  </g>
  <g id="axes_1">
   <g id="LineCollection_1">
    <path d="M 233.213989 29.990083 
L 45.614754 125.196694 
" clip-path="url(#p3e0c52a045)" style="fill: none; stroke: #d3d3d3"/>
    <path d="M 233.213989 29.990083 
L 60.622693 125.196694 
" clip-path="url(#p3e0c52a045)" style="fill: none; stroke: #d3d3d3"/>
    <path d="M 233.213989 29.990083 
L 75.630631 125.196694 
" clip-path="url(#p3e0c52a045)" style="fill: none; stroke: #d3d3d3"/>
    <path d="M 233.213989 29.990083 
L 90.63857 125.196694 
" clip-path="url(#p3e0c52a045)" style="fill: none; stroke: #d3d3d3"/>
    <path d="M 233.213989 29.990083 
L 105.646509 125.196694 
" clip-path="url(#p3e0c52a045)" style="fill: none; stroke: #d3d3d3"/>
    <path d="M 233.213989 29.990083 
L 120.654448 125.196694 
" clip-path="url(#p3e0c52a045)" style="fill: none; stroke: #d3d3d3"/>
    <path d="M 233.213989 29.990083 
L 135.662387 125.196694 
" clip-path="url(#p3e0c52a045)" style="fill: none; stroke: #d3d3d3"/>
    <path d="M 233.213989 29.990083 
L 150.670325 125.196694 
" clip-path="url(#p3e0c52a045)" style="fill: none; stroke: #d3d3d3"/>
    <path d="M 233.213989 29.990083 
L 165.678264 125.196694 
" clip-path="url(#p3e0c52a045)" style="fill: none; stroke: #d3d3d3"/>
    <path d="M 233.213989 29.990083 
L 180.686203 125.196694 
" clip-path="url(#p3e0c52a045)" style="fill: none; stroke: #d3d3d3"/>
    <path d="M 233.213989 29.990083 
L 195.694142 125.196694 
" clip-path="url(#p3e0c52a045)" style="fill: none; stroke: #d3d3d3"/>
    <path d="M 233.213989 29.990083 
L 210.70208 125.196694 
" clip-path="url(#p3e0c52a045)" style="fill: none; stroke: #d3d3d3"/>
    <path d="M 233.213989 29.990083 
L 225.710019 125.196694 
" clip-path="url(#p3e0c52a045)" style="fill: none; stroke: #d3d3d3"/>
    <path d="M 233.213989 29.990083 
L 240.717958 125.196694 
" clip-path="url(#p3e0c52a045)" style="fill: none; stroke: #d3d3d3"/>
    <path d="M 233.213989 29.990083 
L 255.725897 125.196694 
" clip-path="url(#p3e0c52a045)" style="fill: none; stroke: #d3d3d3"/>
    <path d="M 233.213989 29.990083 
L 270.733835 125.196694 
" clip-path="url(#p3e0c52a045)" style="fill: none; stroke: #d3d3d3"/>
    <path d="M 233.213989 29.990083 
L 285.741774 125.196694 
" clip-path="url(#p3e0c52a045)" style="fill: none; stroke: #d3d3d3"/>
    <path d="M 233.213989 29.990083 
L 300.749713 125.196694 
" clip-path="url(#p3e0c52a045)" style="fill: none; stroke: #d3d3d3"/>
    <path d="M 233.213989 29.990083 
L 315.757652 125.196694 
" clip-path="url(#p3e0c52a045)" style="fill: none; stroke: #d3d3d3"/>
    <path d="M 233.213989 29.990083 
L 330.765591 125.196694 
" clip-path="url(#p3e0c52a045)" style="fill: none; stroke: #d3d3d3"/>
    <path d="M 233.213989 29.990083 
L 345.773529 125.196694 
" clip-path="url(#p3e0c52a045)" style="fill: none; stroke: #d3d3d3"/>
    <path d="M 233.213989 29.990083 
L 360.781468 125.196694 
" clip-path="url(#p3e0c52a045)" style="fill: none; stroke: #d3d3d3"/>
    <path d="M 233.213989 29.990083 
L 375.789407 125.196694 
" clip-path="url(#p3e0c52a045)" style="fill: none; stroke: #d3d3d3"/>
    <path d="M 233.213989 29.990083 
L 390.797346 125.196694 
" clip-path="url(#p3e0c52a045)" style="fill: none; stroke: #d3d3d3"/>
    <path d="M 233.213989 29.990083 
L 405.805284 125.196694 
" clip-path="url(#p3e0c52a045)" style="fill: none; stroke: #d3d3d3"/>
    <path d="M 233.213989 29.990083 
L 420.813223 125.196694 
" clip-path="url(#p3e0c52a045)" style="fill: none; stroke: #d3d3d3"/>
    <path d="M 45.614754 125.196694 
L 39.986777 220.403306 
" clip-path="url(#p3e0c52a045)" style="fill: none; stroke: #d3d3d3"/>
    <path d="M 45.614754 125.196694 
L 43.738762 220.403306 
" clip-path="url(#p3e0c52a045)" style="fill: none; stroke: #d3d3d3"/>
    <path d="M 45.614754 125.196694 
L 47.490746 220.403306 
" clip-path="url(#p3e0c52a045)" style="fill: none; stroke: #d3d3d3"/>
    <path d="M 45.614754 125.196694 
L 51.242731 220.403306 
" clip-path="url(#p3e0c52a045)" style="fill: none; stroke: #d3d3d3"/>
    <path d="M 60.622693 125.196694 
L 56.870708 220.403306 
" clip-path="url(#p3e0c52a045)" style="fill: none; stroke: #d3d3d3"/>
    <path d="M 60.622693 125.196694 
L 64.374677 220.403306 
" clip-path="url(#p3e0c52a045)" style="fill: none; stroke: #d3d3d3"/>
    <path d="M 120.654448 125.196694 
L 115.651801 220.403306 
" clip-path="url(#p3e0c52a045)" style="fill: none; stroke: #d3d3d3"/>
    <path d="M 120.654448 125.196694 
L 120.654448 220.403306 
" clip-path="url(#p3e0c52a045)" style="fill: none; stroke: #d3d3d3"/>
    <path d="M 120.654448 125.196694 
L 125.657094 220.403306 
" clip-path="url(#p3e0c52a045)" style="fill: none; stroke: #d3d3d3"/>
    <path d="M 150.670325 125.196694 
L 146.918341 220.403306 
" clip-path="url(#p3e0c52a045)" style="fill: none; stroke: #d3d3d3"/>
    <path d="M 150.670325 125.196694 
L 154.42231 220.403306 
" clip-path="url(#p3e0c52a045)" style="fill: none; stroke: #d3d3d3"/>
    <path d="M 165.678264 125.196694 
L 165.678264 220.403306 
" clip-path="url(#p3e0c52a045)" style="fill: none; stroke: #d3d3d3"/>
    <path d="M 195.694142 125.196694 
L 195.694142 220.403306 
" clip-path="url(#p3e0c52a045)" style="fill: none; stroke: #d3d3d3"/>
    <path d="M 225.710019 125.196694 
L 221.958034 220.403306 
" clip-path="url(#p3e0c52a045)" style="fill: none; stroke: #d3d3d3"/>
    <path d="M 225.710019 125.196694 
L 229.462004 220.403306 
" clip-path="url(#p3e0c52a045)" style="fill: none; stroke: #d3d3d3"/>
    <path d="M 221.958034 220.403306 
L 220.082042 315.609917 
" clip-path="url(#p3e0c52a045)" style="fill: none; stroke: #d3d3d3"/>
    <path d="M 221.958034 220.403306 
L 223.834027 315.609917 
" clip-path="url(#p3e0c52a045)" style="fill: none; stroke: #d3d3d3"/>
    <path d="M 270.733835 125.196694 
L 270.733835 220.403306 
" clip-path="url(#p3e0c52a045)" style="fill: none; stroke: #d3d3d3"/>
    <path d="M 285.741774 125.196694 
L 285.741774 220.403306 
" clip-path="url(#p3e0c52a045)" style="fill: none; stroke: #d3d3d3"/>
    <path d="M 300.749713 125.196694 
L 300.749713 220.403306 
" clip-path="url(#p3e0c52a045)" style="fill: none; stroke: #d3d3d3"/>
    <path d="M 315.757652 125.196694 
L 315.757652 220.403306 
" clip-path="url(#p3e0c52a045)" style="fill: none; stroke: #d3d3d3"/>
    <path d="M 345.773529 125.196694 
L 345.773529 220.403306 
" clip-path="url(#p3e0c52a045)" style="fill: none; stroke: #d3d3d3"/>
    <path d="M 115.651801 220.403306 
L 114.40114 315.609917 
" clip-path="url(#p3e0c52a045)" style="fill: none; stroke: #d3d3d3"/>
    <path d="M 115.651801 220.403306 
L 116.902463 315.609917 
" clip-path="url(#p3e0c52a045)" style="fill: none; stroke: #d3d3d3"/>
    <path d="M 345.773529 220.403306 
L 342.021545 315.609917 
" clip-path="url(#p3e0c52a045)" style="fill: none; stroke: #d3d3d3"/>
    <path d="M 345.773529 220.403306 
L 349.525514 315.609917 
" clip-path="url(#p3e0c52a045)" style="fill: none; stroke: #d3d3d3"/>
    <path d="M 375.789407 125.196694 
L 375.789407 220.403306 
" clip-path="url(#p3e0c52a045)" style="fill: none; stroke: #d3d3d3"/>
    <path d="M 405.805284 125.196694 
L 405.805284 220.403306 
" clip-path="url(#p3e0c52a045)" style="fill: none; stroke: #d3d3d3"/>
    <path d="M 195.694142 220.403306 
L 195.694142 315.609917 
" clip-path="url(#p3e0c52a045)" style="fill: none; stroke: #d3d3d3"/>
   </g>
   <g id="PathCollection_1">
    <path d="M 233.213989 39.864291 
C 235.832659 39.864291 238.344429 38.823883 240.196109 36.972203 
C 242.047788 35.120523 243.088197 32.608753 243.088197 29.990083 
C 243.088197 27.371412 242.047788 24.859642 240.196109 23.007963 
C 238.344429 21.156283 235.832659 20.115874 233.213989 20.115874 
C 230.595318 20.115874 228.083548 21.156283 226.231868 23.007963 
C 224.380189 24.859642 223.33978 27.371412 223.33978 29.990083 
C 223.33978 32.608753 224.380189 35.120523 226.231868 36.972203 
C 228.083548 38.823883 230.595318 39.864291 233.213989 39.864291 
z
" clip-path="url(#p3e0c52a045)" style="fill: #808080; stroke: #808080"/>
    <path d="M 45.614754 127.432762 
C 46.207766 127.432762 46.77657 127.197156 47.195893 126.777833 
C 47.615216 126.35851 47.850822 125.789706 47.850822 125.196694 
C 47.850822 124.603682 47.615216 124.034878 47.195893 123.615555 
C 46.77657 123.196232 46.207766 122.960626 45.614754 122.960626 
C 45.021742 122.960626 44.452938 123.196232 44.033615 123.615555 
C 43.614292 124.034878 43.378686 124.603682 43.378686 125.196694 
C 43.378686 125.789706 43.614292 126.35851 44.033615 126.777833 
C 44.452938 127.197156 45.021742 127.432762 45.614754 127.432762 
z
" clip-path="url(#p3e0c52a045)" style="fill: #808080; stroke: #808080"/>
    <path d="M 60.622693 129.069678 
C 61.64982 129.069678 62.635017 128.661596 63.361305 127.935307 
C 64.087594 127.209018 64.495676 126.223821 64.495676 125.196694 
C 64.495676 124.169567 64.087594 123.18437 63.361305 122.458081 
C 62.635017 121.731793 61.64982 121.323711 60.622693 121.323711 
C 59.595565 121.323711 58.610368 121.731793 57.88408 122.458081 
C 57.157791 123.18437 56.749709 124.169567 56.749709 125.196694 
C 56.749709 126.223821 57.157791 127.209018 57.88408 127.935307 
C 58.610368 128.661596 59.595565 129.069678 60.622693 129.069678 
z
" clip-path="url(#p3e0c52a045)" style="fill: #808080; stroke: #808080"/>
    <path d="M 75.630631 127.935307 
C 76.35692 127.935307 77.05356 127.646749 77.567123 127.133186 
C 78.080687 126.619622 78.369244 125.922983 78.369244 125.196694 
C 78.369244 124.470406 78.080687 123.773766 77.567123 123.260203 
C 77.05356 122.746639 76.35692 122.458081 75.630631 122.458081 
C 74.904343 122.458081 74.207703 122.746639 73.69414 123.260203 
C 73.180576 123.773766 72.892019 124.470406 72.892019 125.196694 
C 72.892019 125.922983 73.180576 126.619622 73.69414 127.133186 
C 74.207703 127.646749 74.904343 127.935307 75.630631 127.935307 
z
" clip-path="url(#p3e0c52a045)" style="fill: #808080; stroke: #808080"/>
    <path d="M 90.63857 129.66883 
C 91.824595 129.66883 92.962202 129.197618 93.800848 128.358972 
C 94.639494 127.520326 95.110706 126.382719 95.110706 125.196694 
C 95.110706 124.01067 94.639494 122.873062 93.800848 122.034417 
C 92.962202 121.195771 91.824595 120.724558 90.63857 120.724558 
C 89.452546 120.724558 88.314938 121.195771 87.476293 122.034417 
C 86.637647 122.873062 86.166434 124.01067 86.166434 125.196694 
C 86.166434 126.382719 86.637647 127.520326 87.476293 128.358972 
C 88.314938 129.197618 89.452546 129.66883 90.63857 129.66883 
z
" clip-path="url(#p3e0c52a045)" style="fill: #808080; stroke: #808080"/>
    <path d="M 105.646509 128.732228 
C 106.584144 128.732228 107.483501 128.359702 108.146509 127.696694 
C 108.809517 127.033686 109.182043 126.134329 109.182043 125.196694 
C 109.182043 124.25906 108.809517 123.359702 108.146509 122.696694 
C 107.483501 122.033686 106.584144 121.66116 105.646509 121.66116 
C 104.708874 121.66116 103.809517 122.033686 103.146509 122.696694 
C 102.483501 123.359702 102.110975 124.25906 102.110975 125.196694 
C 102.110975 126.134329 102.483501 127.033686 103.146509 127.696694 
C 103.809517 128.359702 104.708874 128.732228 105.646509 128.732228 
z
" clip-path="url(#p3e0c52a045)" style="fill: #808080; stroke: #808080"/>
    <path d="M 120.654448 125.196694 
C 120.654448 125.196694 120.654448 125.196694 120.654448 125.196694 
C 120.654448 125.196694 120.654448 125.196694 120.654448 125.196694 
C 120.654448 125.196694 120.654448 125.196694 120.654448 125.196694 
C 120.654448 125.196694 120.654448 125.196694 120.654448 125.196694 
C 120.654448 125.196694 120.654448 125.196694 120.654448 125.196694 
C 120.654448 125.196694 120.654448 125.196694 120.654448 125.196694 
C 120.654448 125.196694 120.654448 125.196694 120.654448 125.196694 
C 120.654448 125.196694 120.654448 125.196694 120.654448 125.196694 
z
" clip-path="url(#p3e0c52a045)" style="fill: #808080; stroke: #808080"/>
    <path d="M 135.662387 129.940111 
C 136.920355 129.940111 138.12697 129.440314 139.016488 128.550796 
C 139.906007 127.661278 140.405803 126.454663 140.405803 125.196694 
C 140.405803 123.938725 139.906007 122.73211 139.016488 121.842592 
C 138.12697 120.953074 136.920355 120.453278 135.662387 120.453278 
C 134.404418 120.453278 133.197803 120.953074 132.308285 121.842592 
C 131.418766 122.73211 130.91897 123.938725 130.91897 125.196694 
C 130.91897 126.454663 131.418766 127.661278 132.308285 128.550796 
C 133.197803 129.440314 134.404418 129.940111 135.662387 129.940111 
z
" clip-path="url(#p3e0c52a045)" style="fill: #808080; stroke: #808080"/>
    <path d="M 150.670325 128.358972 
C 151.508971 128.358972 152.313381 128.025774 152.906393 127.432762 
C 153.499405 126.83975 153.832603 126.03534 153.832603 125.196694 
C 153.832603 124.358048 153.499405 123.553638 152.906393 122.960626 
C 152.313381 122.367614 151.508971 122.034417 150.670325 122.034417 
C 149.831679 122.034417 149.027269 122.367614 148.434257 122.960626 
C 147.841245 123.553638 147.508048 124.358048 147.508048 125.196694 
C 147.508048 126.03534 147.841245 126.83975 148.434257 127.432762 
C 149.027269 128.025774 149.831679 128.358972 150.670325 128.358972 
z
" clip-path="url(#p3e0c52a045)" style="fill: #808080; stroke: #808080"/>
    <path d="M 165.678264 127.432762 
C 166.271276 127.432762 166.84008 127.197156 167.259403 126.777833 
C 167.678726 126.35851 167.914332 125.789706 167.914332 125.196694 
C 167.914332 124.603682 167.678726 124.034878 167.259403 123.615555 
C 166.84008 123.196232 166.271276 122.960626 165.678264 122.960626 
C 165.085252 122.960626 164.516448 123.196232 164.097125 123.615555 
C 163.677802 124.034878 163.442196 124.603682 163.442196 125.196694 
C 163.442196 125.789706 163.677802 126.35851 164.097125 126.777833 
C 164.516448 127.197156 165.085252 127.432762 165.678264 127.432762 
z
" clip-path="url(#p3e0c52a045)" style="fill: #808080; stroke: #808080"/>
    <path d="M 180.686203 127.935307 
C 181.412491 127.935307 182.109131 127.646749 182.622694 127.133186 
C 183.136258 126.619622 183.424816 125.922983 183.424816 125.196694 
C 183.424816 124.470406 183.136258 123.773766 182.622694 123.260203 
C 182.109131 122.746639 181.412491 122.458081 180.686203 122.458081 
C 179.959914 122.458081 179.263275 122.746639 178.749711 123.260203 
C 178.236148 123.773766 177.94759 124.470406 177.94759 125.196694 
C 177.94759 125.922983 178.236148 126.619622 178.749711 127.133186 
C 179.263275 127.646749 179.959914 127.935307 180.686203 127.935307 
z
" clip-path="url(#p3e0c52a045)" style="fill: #808080; stroke: #808080"/>
    <path d="M 195.694142 126.777833 
C 196.113465 126.777833 196.51567 126.611234 196.812176 126.314728 
C 197.108682 126.018222 197.27528 125.616017 197.27528 125.196694 
C 197.27528 124.777371 197.108682 124.375166 196.812176 124.07866 
C 196.51567 123.782154 196.113465 123.615555 195.694142 123.615555 
C 195.274819 123.615555 194.872614 123.782154 194.576108 124.07866 
C 194.279602 124.375166 194.113003 124.777371 194.113003 125.196694 
C 194.113003 125.616017 194.279602 126.018222 194.576108 126.314728 
C 194.872614 126.611234 195.274819 126.777833 195.694142 126.777833 
z
" clip-path="url(#p3e0c52a045)" style="fill: #808080; stroke: #808080"/>
    <path d="M 210.70208 128.358972 
C 211.540726 128.358972 212.345136 128.025774 212.938148 127.432762 
C 213.531161 126.83975 213.864358 126.03534 213.864358 125.196694 
C 213.864358 124.358048 213.531161 123.553638 212.938148 122.960626 
C 212.345136 122.367614 211.540726 122.034417 210.70208 122.034417 
C 209.863435 122.034417 209.059025 122.367614 208.466012 122.960626 
C 207.873 123.553638 207.539803 124.358048 207.539803 125.196694 
C 207.539803 126.03534 207.873 126.83975 208.466012 127.432762 
C 209.059025 128.025774 209.863435 128.358972 210.70208 128.358972 
z
" clip-path="url(#p3e0c52a045)" style="fill: #808080; stroke: #808080"/>
    <path d="M 225.710019 126.777833 
C 226.129342 126.777833 226.531547 126.611234 226.828053 126.314728 
C 227.124559 126.018222 227.291158 125.616017 227.291158 125.196694 
C 227.291158 124.777371 227.124559 124.375166 226.828053 124.07866 
C 226.531547 123.782154 226.129342 123.615555 225.710019 123.615555 
C 225.290696 123.615555 224.888491 123.782154 224.591985 124.07866 
C 224.295479 124.375166 224.12888 124.777371 224.12888 125.196694 
C 224.12888 125.616017 224.295479 126.018222 224.591985 126.314728 
C 224.888491 126.611234 225.290696 126.777833 225.710019 126.777833 
z
" clip-path="url(#p3e0c52a045)" style="fill: #808080; stroke: #808080"/>
    <path d="M 146.918341 225.64735 
C 148.309077 225.64735 149.64304 225.094804 150.62644 224.111405 
C 151.609839 223.128006 152.162385 221.794043 152.162385 220.403306 
C 152.162385 219.012569 151.609839 217.678606 150.62644 216.695207 
C 149.64304 215.711807 148.309077 215.159262 146.918341 215.159262 
C 145.527604 215.159262 144.193641 215.711807 143.210241 216.695207 
C 142.226842 217.678606 141.674296 219.012569 141.674296 220.403306 
C 141.674296 221.794043 142.226842 223.128006 143.210241 224.111405 
C 144.193641 225.094804 145.527604 225.64735 146.918341 225.64735 
z
" clip-path="url(#p3e0c52a045)" style="fill: #808080; stroke: #808080"/>
    <path d="M 154.42231 221.984445 
C 154.841633 221.984445 155.243838 221.817846 155.540344 221.52134 
C 155.83685 221.224834 156.003449 220.822629 156.003449 220.403306 
C 156.003449 219.983983 155.83685 219.581778 155.540344 219.285272 
C 155.243838 218.988766 154.841633 218.822167 154.42231 218.822167 
C 154.002987 218.822167 153.600782 218.988766 153.304276 219.285272 
C 153.00777 219.581778 152.841171 219.983983 152.841171 220.403306 
C 152.841171 220.822629 153.00777 221.224834 153.304276 221.52134 
C 153.600782 221.817846 154.002987 221.984445 154.42231 221.984445 
z
" clip-path="url(#p3e0c52a045)" style="fill: #808080; stroke: #808080"/>
    <path d="M 240.717958 128.732228 
C 241.655592 128.732228 242.55495 128.359702 243.217958 127.696694 
C 243.880966 127.033686 244.253492 126.134329 244.253492 125.196694 
C 244.253492 124.25906 243.880966 123.359702 243.217958 122.696694 
C 242.55495 122.033686 241.655592 121.66116 240.717958 121.66116 
C 239.780323 121.66116 238.880966 122.033686 238.217958 122.696694 
C 237.55495 123.359702 237.182424 124.25906 237.182424 125.196694 
C 237.182424 126.134329 237.55495 127.033686 238.217958 127.696694 
C 238.880966 128.359702 239.780323 128.732228 240.717958 128.732228 
z
" clip-path="url(#p3e0c52a045)" style="fill: #808080; stroke: #808080"/>
    <path d="M 255.725897 127.935307 
C 256.452185 127.935307 257.148825 127.646749 257.662388 127.133186 
C 258.175952 126.619622 258.464509 125.922983 258.464509 125.196694 
C 258.464509 124.470406 258.175952 123.773766 257.662388 123.260203 
C 257.148825 122.746639 256.452185 122.458081 255.725897 122.458081 
C 254.999608 122.458081 254.302969 122.746639 253.789405 123.260203 
C 253.275841 123.773766 252.987284 124.470406 252.987284 125.196694 
C 252.987284 125.922983 253.275841 126.619622 253.789405 127.133186 
C 254.302969 127.646749 254.999608 127.935307 255.725897 127.935307 
z
" clip-path="url(#p3e0c52a045)" style="fill: #808080; stroke: #808080"/>
    <path d="M 221.958034 221.984445 
C 222.377357 221.984445 222.779562 221.817846 223.076068 221.52134 
C 223.372575 221.224834 223.539173 220.822629 223.539173 220.403306 
C 223.539173 219.983983 223.372575 219.581778 223.076068 219.285272 
C 222.779562 218.988766 222.377357 218.822167 221.958034 218.822167 
C 221.538712 218.822167 221.136507 218.988766 220.84 219.285272 
C 220.543494 219.581778 220.376896 219.983983 220.376896 220.403306 
C 220.376896 220.822629 220.543494 221.224834 220.84 221.52134 
C 221.136507 221.817846 221.538712 221.984445 221.958034 221.984445 
z
" clip-path="url(#p3e0c52a045)" style="fill: #808080; stroke: #808080"/>
    <path d="M 270.733835 129.069678 
C 271.760963 129.069678 272.74616 128.661596 273.472448 127.935307 
C 274.198737 127.209018 274.606819 126.223821 274.606819 125.196694 
C 274.606819 124.169567 274.198737 123.18437 273.472448 122.458081 
C 272.74616 121.731793 271.760963 121.323711 270.733835 121.323711 
C 269.706708 121.323711 268.721511 121.731793 267.995223 122.458081 
C 267.268934 123.18437 266.860852 124.169567 266.860852 125.196694 
C 266.860852 126.223821 267.268934 127.209018 267.995223 127.935307 
C 268.721511 128.661596 269.706708 129.069678 270.733835 129.069678 
z
" clip-path="url(#p3e0c52a045)" style="fill: #808080; stroke: #808080"/>
    <path d="M 285.741774 129.66883 
C 286.927799 129.66883 288.065406 129.197618 288.904052 128.358972 
C 289.742698 127.520326 290.21391 126.382719 290.21391 125.196694 
C 290.21391 124.01067 289.742698 122.873062 288.904052 122.034417 
C 288.065406 121.195771 286.927799 120.724558 285.741774 120.724558 
C 284.55575 120.724558 283.418142 121.195771 282.579497 122.034417 
C 281.740851 122.873062 281.269638 124.01067 281.269638 125.196694 
C 281.269638 126.382719 281.740851 127.520326 282.579497 128.358972 
C 283.418142 129.197618 284.55575 129.66883 285.741774 129.66883 
z
" clip-path="url(#p3e0c52a045)" style="fill: #808080; stroke: #808080"/>
    <path d="M 300.749713 129.379994 
C 301.859137 129.379994 302.923272 128.939215 303.707753 128.154734 
C 304.492234 127.370253 304.933013 126.306118 304.933013 125.196694 
C 304.933013 124.08727 304.492234 123.023136 303.707753 122.238654 
C 302.923272 121.454173 301.859137 121.013394 300.749713 121.013394 
C 299.640289 121.013394 298.576154 121.454173 297.791673 122.238654 
C 297.007192 123.023136 296.566413 124.08727 296.566413 125.196694 
C 296.566413 126.306118 297.007192 127.370253 297.791673 128.154734 
C 298.576154 128.939215 299.640289 129.379994 300.749713 129.379994 
z
" clip-path="url(#p3e0c52a045)" style="fill: #808080; stroke: #808080"/>
    <path d="M 315.757652 128.358972 
C 316.596298 128.358972 317.400708 128.025774 317.99372 127.432762 
C 318.586732 126.83975 318.919929 126.03534 318.919929 125.196694 
C 318.919929 124.358048 318.586732 123.553638 317.99372 122.960626 
C 317.400708 122.367614 316.596298 122.034417 315.757652 122.034417 
C 314.919006 122.034417 314.114596 122.367614 313.521584 122.960626 
C 312.928572 123.553638 312.595374 124.358048 312.595374 125.196694 
C 312.595374 126.03534 312.928572 126.83975 313.521584 127.432762 
C 314.114596 128.025774 314.919006 128.358972 315.757652 128.358972 
z
" clip-path="url(#p3e0c52a045)" style="fill: #808080; stroke: #808080"/>
    <path d="M 330.765591 129.069678 
C 331.792718 129.069678 332.777915 128.661596 333.504203 127.935307 
C 334.230492 127.209018 334.638574 126.223821 334.638574 125.196694 
C 334.638574 124.169567 334.230492 123.18437 333.504203 122.458081 
C 332.777915 121.731793 331.792718 121.323711 330.765591 121.323711 
C 329.738463 121.323711 328.753266 121.731793 328.026978 122.458081 
C 327.300689 123.18437 326.892607 124.169567 326.892607 125.196694 
C 326.892607 126.223821 327.300689 127.209018 328.026978 127.935307 
C 328.753266 128.661596 329.738463 129.069678 330.765591 129.069678 
z
" clip-path="url(#p3e0c52a045)" style="fill: #808080; stroke: #808080"/>
    <path d="M 56.870708 222.639374 
C 57.46372 222.639374 58.032524 222.403768 58.451847 221.984445 
C 58.87117 221.565122 59.106776 220.996318 59.106776 220.403306 
C 59.106776 219.810294 58.87117 219.24149 58.451847 218.822167 
C 58.032524 218.402844 57.46372 218.167238 56.870708 218.167238 
C 56.277696 218.167238 55.708892 218.402844 55.289569 218.822167 
C 54.870246 219.24149 54.63464 219.810294 54.63464 220.403306 
C 54.63464 220.996318 54.870246 221.565122 55.289569 221.984445 
C 55.708892 222.403768 56.277696 222.639374 56.870708 222.639374 
z
" clip-path="url(#p3e0c52a045)" style="fill: #808080; stroke: #808080"/>
    <path d="M 315.757652 221.984445 
C 316.176975 221.984445 316.57918 221.817846 316.875686 221.52134 
C 317.172192 221.224834 317.338791 220.822629 317.338791 220.403306 
C 317.338791 219.983983 317.172192 219.581778 316.875686 219.285272 
C 316.57918 218.988766 316.176975 218.822167 315.757652 218.822167 
C 315.338329 218.822167 314.936124 218.988766 314.639618 219.285272 
C 314.343112 219.581778 314.176513 219.983983 314.176513 220.403306 
C 314.176513 220.822629 314.343112 221.224834 314.639618 221.52134 
C 314.936124 221.817846 315.338329 221.984445 315.757652 221.984445 
z
" clip-path="url(#p3e0c52a045)" style="fill: #808080; stroke: #808080"/>
    <path d="M 345.773529 127.935307 
C 346.499818 127.935307 347.196457 127.646749 347.710021 127.133186 
C 348.223585 126.619622 348.512142 125.922983 348.512142 125.196694 
C 348.512142 124.470406 348.223585 123.773766 347.710021 123.260203 
C 347.196457 122.746639 346.499818 122.458081 345.773529 122.458081 
C 345.047241 122.458081 344.350601 122.746639 343.837038 123.260203 
C 343.323474 123.773766 343.034917 124.470406 343.034917 125.196694 
C 343.034917 125.922983 343.323474 126.619622 343.837038 127.133186 
C 344.350601 127.646749 345.047241 127.935307 345.773529 127.935307 
z
" clip-path="url(#p3e0c52a045)" style="fill: #808080; stroke: #808080"/>
    <path d="M 360.781468 128.358972 
C 361.620114 128.358972 362.424524 128.025774 363.017536 127.432762 
C 363.610548 126.83975 363.943746 126.03534 363.943746 125.196694 
C 363.943746 124.358048 363.610548 123.553638 363.017536 122.960626 
C 362.424524 122.367614 361.620114 122.034417 360.781468 122.034417 
C 359.942822 122.034417 359.138412 122.367614 358.5454 122.960626 
C 357.952388 123.553638 357.61919 124.358048 357.61919 125.196694 
C 357.61919 126.03534 357.952388 126.83975 358.5454 127.432762 
C 359.138412 128.025774 359.942822 128.358972 360.781468 128.358972 
z
" clip-path="url(#p3e0c52a045)" style="fill: #808080; stroke: #808080"/>
    <path d="M 115.651801 220.403306 
C 115.651801 220.403306 115.651801 220.403306 115.651801 220.403306 
C 115.651801 220.403306 115.651801 220.403306 115.651801 220.403306 
C 115.651801 220.403306 115.651801 220.403306 115.651801 220.403306 
C 115.651801 220.403306 115.651801 220.403306 115.651801 220.403306 
C 115.651801 220.403306 115.651801 220.403306 115.651801 220.403306 
C 115.651801 220.403306 115.651801 220.403306 115.651801 220.403306 
C 115.651801 220.403306 115.651801 220.403306 115.651801 220.403306 
C 115.651801 220.403306 115.651801 220.403306 115.651801 220.403306 
z
" clip-path="url(#p3e0c52a045)" style="fill: #808080; stroke: #808080"/>
    <path d="M 220.082042 317.845985 
C 220.675054 317.845985 221.243858 317.610379 221.663181 317.191056 
C 222.082504 316.771733 222.31811 316.20293 222.31811 315.609917 
C 222.31811 315.016905 222.082504 314.448101 221.663181 314.028779 
C 221.243858 313.609456 220.675054 313.373849 220.082042 313.373849 
C 219.48903 313.373849 218.920226 313.609456 218.500903 314.028779 
C 218.08158 314.448101 217.845974 315.016905 217.845974 315.609917 
C 217.845974 316.20293 218.08158 316.771733 218.500903 317.191056 
C 218.920226 317.610379 219.48903 317.845985 220.082042 317.845985 
z
" clip-path="url(#p3e0c52a045)" style="fill: #808080; stroke: #808080"/>
    <path d="M 223.834027 317.845985 
C 224.427039 317.845985 224.995843 317.610379 225.415166 317.191056 
C 225.834489 316.771733 226.070095 316.20293 226.070095 315.609917 
C 226.070095 315.016905 225.834489 314.448101 225.415166 314.028779 
C 224.995843 313.609456 224.427039 313.373849 223.834027 313.373849 
C 223.241015 313.373849 222.672211 313.609456 222.252888 314.028779 
C 221.833565 314.448101 221.597959 315.016905 221.597959 315.609917 
C 221.597959 316.20293 221.833565 316.771733 222.252888 317.191056 
C 222.672211 317.610379 223.241015 317.845985 223.834027 317.845985 
z
" clip-path="url(#p3e0c52a045)" style="fill: #808080; stroke: #808080"/>
    <path d="M 345.773529 220.403306 
C 345.773529 220.403306 345.773529 220.403306 345.773529 220.403306 
C 345.773529 220.403306 345.773529 220.403306 345.773529 220.403306 
C 345.773529 220.403306 345.773529 220.403306 345.773529 220.403306 
C 345.773529 220.403306 345.773529 220.403306 345.773529 220.403306 
C 345.773529 220.403306 345.773529 220.403306 345.773529 220.403306 
C 345.773529 220.403306 345.773529 220.403306 345.773529 220.403306 
C 345.773529 220.403306 345.773529 220.403306 345.773529 220.403306 
C 345.773529 220.403306 345.773529 220.403306 345.773529 220.403306 
z
" clip-path="url(#p3e0c52a045)" style="fill: #808080; stroke: #808080"/>
    <path d="M 375.789407 127.935307 
C 376.515695 127.935307 377.212335 127.646749 377.725899 127.133186 
C 378.239462 126.619622 378.52802 125.922983 378.52802 125.196694 
C 378.52802 124.470406 378.239462 123.773766 377.725899 123.260203 
C 377.212335 122.746639 376.515695 122.458081 375.789407 122.458081 
C 375.063118 122.458081 374.366479 122.746639 373.852915 123.260203 
C 373.339352 123.773766 373.050794 124.470406 373.050794 125.196694 
C 373.050794 125.922983 373.339352 126.619622 373.852915 127.133186 
C 374.366479 127.646749 375.063118 127.935307 375.789407 127.935307 
z
" clip-path="url(#p3e0c52a045)" style="fill: #808080; stroke: #808080"/>
    <path d="M 390.797346 127.935307 
C 391.523634 127.935307 392.220274 127.646749 392.733837 127.133186 
C 393.247401 126.619622 393.535958 125.922983 393.535958 125.196694 
C 393.535958 124.470406 393.247401 123.773766 392.733837 123.260203 
C 392.220274 122.746639 391.523634 122.458081 390.797346 122.458081 
C 390.071057 122.458081 389.374418 122.746639 388.860854 123.260203 
C 388.34729 123.773766 388.058733 124.470406 388.058733 125.196694 
C 388.058733 125.922983 388.34729 126.619622 388.860854 127.133186 
C 389.374418 127.646749 390.071057 127.935307 390.797346 127.935307 
z
" clip-path="url(#p3e0c52a045)" style="fill: #808080; stroke: #808080"/>
    <path d="M 39.986777 221.984445 
C 40.4061 221.984445 40.808305 221.817846 41.104811 221.52134 
C 41.401317 221.224834 41.567916 220.822629 41.567916 220.403306 
C 41.567916 219.983983 41.401317 219.581778 41.104811 219.285272 
C 40.808305 218.988766 40.4061 218.822167 39.986777 218.822167 
C 39.567454 218.822167 39.165249 218.988766 38.868743 219.285272 
C 38.572237 219.581778 38.405638 219.983983 38.405638 220.403306 
C 38.405638 220.822629 38.572237 221.224834 38.868743 221.52134 
C 39.165249 221.817846 39.567454 221.984445 39.986777 221.984445 
z
" clip-path="url(#p3e0c52a045)" style="fill: #808080; stroke: #808080"/>
    <path d="M 375.789407 222.639374 
C 376.382419 222.639374 376.951223 222.403768 377.370546 221.984445 
C 377.789869 221.565122 378.025475 220.996318 378.025475 220.403306 
C 378.025475 219.810294 377.789869 219.24149 377.370546 218.822167 
C 376.951223 218.402844 376.382419 218.167238 375.789407 218.167238 
C 375.196395 218.167238 374.627591 218.402844 374.208268 218.822167 
C 373.788945 219.24149 373.553339 219.810294 373.553339 220.403306 
C 373.553339 220.996318 373.788945 221.565122 374.208268 221.984445 
C 374.627591 222.403768 375.196395 222.639374 375.789407 222.639374 
z
" clip-path="url(#p3e0c52a045)" style="fill: #808080; stroke: #808080"/>
    <path d="M 300.749713 221.984445 
C 301.169036 221.984445 301.571241 221.817846 301.867747 221.52134 
C 302.164253 221.224834 302.330852 220.822629 302.330852 220.403306 
C 302.330852 219.983983 302.164253 219.581778 301.867747 219.285272 
C 301.571241 218.988766 301.169036 218.822167 300.749713 218.822167 
C 300.33039 218.822167 299.928185 218.988766 299.631679 219.285272 
C 299.335173 219.581778 299.168574 219.983983 299.168574 220.403306 
C 299.168574 220.822629 299.335173 221.224834 299.631679 221.52134 
C 299.928185 221.817846 300.33039 221.984445 300.749713 221.984445 
z
" clip-path="url(#p3e0c52a045)" style="fill: #808080; stroke: #808080"/>
    <path d="M 342.021545 317.191056 
C 342.440868 317.191056 342.843073 317.024457 343.139579 316.727951 
C 343.436085 316.431445 343.602683 316.02924 343.602683 315.609917 
C 343.602683 315.190594 343.436085 314.788389 343.139579 314.491883 
C 342.843073 314.195377 342.440868 314.028779 342.021545 314.028779 
C 341.602222 314.028779 341.200017 314.195377 340.903511 314.491883 
C 340.607005 314.788389 340.440406 315.190594 340.440406 315.609917 
C 340.440406 316.02924 340.607005 316.431445 340.903511 316.727951 
C 341.200017 317.024457 341.602222 317.191056 342.021545 317.191056 
z
" clip-path="url(#p3e0c52a045)" style="fill: #808080; stroke: #808080"/>
    <path d="M 349.525514 317.845985 
C 350.118526 317.845985 350.68733 317.610379 351.106653 317.191056 
C 351.525976 316.771733 351.761582 316.20293 351.761582 315.609917 
C 351.761582 315.016905 351.525976 314.448101 351.106653 314.028779 
C 350.68733 313.609456 350.118526 313.373849 349.525514 313.373849 
C 348.932502 313.373849 348.363698 313.609456 347.944375 314.028779 
C 347.525052 314.448101 347.289446 315.016905 347.289446 315.609917 
C 347.289446 316.20293 347.525052 316.771733 347.944375 317.191056 
C 348.363698 317.610379 348.932502 317.845985 349.525514 317.845985 
z
" clip-path="url(#p3e0c52a045)" style="fill: #808080; stroke: #808080"/>
    <path d="M 405.805284 127.432762 
C 406.398297 127.432762 406.9671 127.197156 407.386423 126.777833 
C 407.805746 126.35851 408.041352 125.789706 408.041352 125.196694 
C 408.041352 124.603682 407.805746 124.034878 407.386423 123.615555 
C 406.9671 123.196232 406.398297 122.960626 405.805284 122.960626 
C 405.212272 122.960626 404.643468 123.196232 404.224146 123.615555 
C 403.804823 124.034878 403.569216 124.603682 403.569216 125.196694 
C 403.569216 125.789706 403.804823 126.35851 404.224146 126.777833 
C 404.643468 127.197156 405.212272 127.432762 405.805284 127.432762 
z
" clip-path="url(#p3e0c52a045)" style="fill: #808080; stroke: #808080"/>
    <path d="M 420.813223 128.732228 
C 421.750858 128.732228 422.650215 128.359702 423.313223 127.696694 
C 423.976231 127.033686 424.348757 126.134329 424.348757 125.196694 
C 424.348757 124.25906 423.976231 123.359702 423.313223 122.696694 
C 422.650215 122.033686 421.750858 121.66116 420.813223 121.66116 
C 419.875589 121.66116 418.976231 122.033686 418.313223 122.696694 
C 417.650215 123.359702 417.277689 124.25906 417.277689 125.196694 
C 417.277689 126.134329 417.650215 127.033686 418.313223 127.696694 
C 418.976231 128.359702 419.875589 128.732228 420.813223 128.732228 
z
" clip-path="url(#p3e0c52a045)" style="fill: #808080; stroke: #808080"/>
    <path d="M 114.40114 317.191056 
C 114.820463 317.191056 115.222668 317.024457 115.519174 316.727951 
C 115.81568 316.431445 115.982279 316.02924 115.982279 315.609917 
C 115.982279 315.190594 115.81568 314.788389 115.519174 314.491883 
C 115.222668 314.195377 114.820463 314.028779 114.40114 314.028779 
C 113.981817 314.028779 113.579612 314.195377 113.283106 314.491883 
C 112.9866 314.788389 112.820001 315.190594 112.820001 315.609917 
C 112.820001 316.02924 112.9866 316.431445 113.283106 316.727951 
C 113.579612 317.024457 113.981817 317.191056 114.40114 317.191056 
z
" clip-path="url(#p3e0c52a045)" style="fill: #808080; stroke: #808080"/>
    <path d="M 116.902463 317.845985 
C 117.495475 317.845985 118.064279 317.610379 118.483602 317.191056 
C 118.902925 316.771733 119.138531 316.20293 119.138531 315.609917 
C 119.138531 315.016905 118.902925 314.448101 118.483602 314.028779 
C 118.064279 313.609456 117.495475 313.373849 116.902463 313.373849 
C 116.309451 313.373849 115.740647 313.609456 115.321324 314.028779 
C 114.902001 314.448101 114.666395 315.016905 114.666395 315.609917 
C 114.666395 316.20293 114.902001 316.771733 115.321324 317.191056 
C 115.740647 317.610379 116.309451 317.845985 116.902463 317.845985 
z
" clip-path="url(#p3e0c52a045)" style="fill: #808080; stroke: #808080"/>
    <path d="M 229.462004 221.984445 
C 229.881327 221.984445 230.283532 221.817846 230.580038 221.52134 
C 230.876544 221.224834 231.043143 220.822629 231.043143 220.403306 
C 231.043143 219.983983 230.876544 219.581778 230.580038 219.285272 
C 230.283532 218.988766 229.881327 218.822167 229.462004 218.822167 
C 229.042681 218.822167 228.640476 218.988766 228.34397 219.285272 
C 228.047464 219.581778 227.880865 219.983983 227.880865 220.403306 
C 227.880865 220.822629 228.047464 221.224834 228.34397 221.52134 
C 228.640476 221.817846 229.042681 221.984445 229.462004 221.984445 
z
" clip-path="url(#p3e0c52a045)" style="fill: #808080; stroke: #808080"/>
    <path d="M 43.738762 221.984445 
C 44.158084 221.984445 44.560289 221.817846 44.856796 221.52134 
C 45.153302 221.224834 45.3199 220.822629 45.3199 220.403306 
C 45.3199 219.983983 45.153302 219.581778 44.856796 219.285272 
C 44.560289 218.988766 44.158084 218.822167 43.738762 218.822167 
C 43.319439 218.822167 42.917234 218.988766 42.620728 219.285272 
C 42.324221 219.581778 42.157623 219.983983 42.157623 220.403306 
C 42.157623 220.822629 42.324221 221.224834 42.620728 221.52134 
C 42.917234 221.817846 43.319439 221.984445 43.738762 221.984445 
z
" clip-path="url(#p3e0c52a045)" style="fill: #808080; stroke: #808080"/>
    <path d="M 47.490746 221.984445 
C 47.910069 221.984445 48.312274 221.817846 48.60878 221.52134 
C 48.905286 221.224834 49.071885 220.822629 49.071885 220.403306 
C 49.071885 219.983983 48.905286 219.581778 48.60878 219.285272 
C 48.312274 218.988766 47.910069 218.822167 47.490746 218.822167 
C 47.071423 218.822167 46.669218 218.988766 46.372712 219.285272 
C 46.076206 219.581778 45.909607 219.983983 45.909607 220.403306 
C 45.909607 220.822629 46.076206 221.224834 46.372712 221.52134 
C 46.669218 221.817846 47.071423 221.984445 47.490746 221.984445 
z
" clip-path="url(#p3e0c52a045)" style="fill: #808080; stroke: #808080"/>
    <path d="M 120.654448 221.984445 
C 121.073771 221.984445 121.475976 221.817846 121.772482 221.52134 
C 122.068988 221.224834 122.235587 220.822629 122.235587 220.403306 
C 122.235587 219.983983 122.068988 219.581778 121.772482 219.285272 
C 121.475976 218.988766 121.073771 218.822167 120.654448 218.822167 
C 120.235125 218.822167 119.83292 218.988766 119.536414 219.285272 
C 119.239908 219.581778 119.073309 219.983983 119.073309 220.403306 
C 119.073309 220.822629 119.239908 221.224834 119.536414 221.52134 
C 119.83292 221.817846 120.235125 221.984445 120.654448 221.984445 
z
" clip-path="url(#p3e0c52a045)" style="fill: #808080; stroke: #808080"/>
    <path d="M 125.657094 222.639374 
C 126.250106 222.639374 126.81891 222.403768 127.238233 221.984445 
C 127.657556 221.565122 127.893162 220.996318 127.893162 220.403306 
C 127.893162 219.810294 127.657556 219.24149 127.238233 218.822167 
C 126.81891 218.402844 126.250106 218.167238 125.657094 218.167238 
C 125.064082 218.167238 124.495278 218.402844 124.075955 218.822167 
C 123.656632 219.24149 123.421026 219.810294 123.421026 220.403306 
C 123.421026 220.996318 123.656632 221.565122 124.075955 221.984445 
C 124.495278 222.403768 125.064082 222.639374 125.657094 222.639374 
z
" clip-path="url(#p3e0c52a045)" style="fill: #808080; stroke: #808080"/>
    <path d="M 285.741774 221.984445 
C 286.161097 221.984445 286.563302 221.817846 286.859808 221.52134 
C 287.156314 221.224834 287.322913 220.822629 287.322913 220.403306 
C 287.322913 219.983983 287.156314 219.581778 286.859808 219.285272 
C 286.563302 218.988766 286.161097 218.822167 285.741774 218.822167 
C 285.322451 218.822167 284.920246 218.988766 284.62374 219.285272 
C 284.327234 219.581778 284.160635 219.983983 284.160635 220.403306 
C 284.160635 220.822629 284.327234 221.224834 284.62374 221.52134 
C 284.920246 221.817846 285.322451 221.984445 285.741774 221.984445 
z
" clip-path="url(#p3e0c52a045)" style="fill: #808080; stroke: #808080"/>
    <path d="M 64.374677 221.984445 
C 64.794 221.984445 65.196205 221.817846 65.492711 221.52134 
C 65.789217 221.224834 65.955816 220.822629 65.955816 220.403306 
C 65.955816 219.983983 65.789217 219.581778 65.492711 219.285272 
C 65.196205 218.988766 64.794 218.822167 64.374677 218.822167 
C 63.955354 218.822167 63.553149 218.988766 63.256643 219.285272 
C 62.960137 219.581778 62.793539 219.983983 62.793539 220.403306 
C 62.793539 220.822629 62.960137 221.224834 63.256643 221.52134 
C 63.553149 221.817846 63.955354 221.984445 64.374677 221.984445 
z
" clip-path="url(#p3e0c52a045)" style="fill: #808080; stroke: #808080"/>
    <path d="M 405.805284 222.639374 
C 406.398297 222.639374 406.9671 222.403768 407.386423 221.984445 
C 407.805746 221.565122 408.041352 220.996318 408.041352 220.403306 
C 408.041352 219.810294 407.805746 219.24149 407.386423 218.822167 
C 406.9671 218.402844 406.398297 218.167238 405.805284 218.167238 
C 405.212272 218.167238 404.643468 218.402844 404.224146 218.822167 
C 403.804823 219.24149 403.569216 219.810294 403.569216 220.403306 
C 403.569216 220.996318 403.804823 221.565122 404.224146 221.984445 
C 404.643468 222.403768 405.212272 222.639374 405.805284 222.639374 
z
" clip-path="url(#p3e0c52a045)" style="fill: #808080; stroke: #808080"/>
    <path d="M 195.694142 220.403306 
C 195.694142 220.403306 195.694142 220.403306 195.694142 220.403306 
C 195.694142 220.403306 195.694142 220.403306 195.694142 220.403306 
C 195.694142 220.403306 195.694142 220.403306 195.694142 220.403306 
C 195.694142 220.403306 195.694142 220.403306 195.694142 220.403306 
C 195.694142 220.403306 195.694142 220.403306 195.694142 220.403306 
C 195.694142 220.403306 195.694142 220.403306 195.694142 220.403306 
C 195.694142 220.403306 195.694142 220.403306 195.694142 220.403306 
C 195.694142 220.403306 195.694142 220.403306 195.694142 220.403306 
z
" clip-path="url(#p3e0c52a045)" style="fill: #808080; stroke: #808080"/>
    <path d="M 195.694142 317.191056 
C 196.113465 317.191056 196.51567 317.024457 196.812176 316.727951 
C 197.108682 316.431445 197.27528 316.02924 197.27528 315.609917 
C 197.27528 315.190594 197.108682 314.788389 196.812176 314.491883 
C 196.51567 314.195377 196.113465 314.028779 195.694142 314.028779 
C 195.274819 314.028779 194.872614 314.195377 194.576108 314.491883 
C 194.279602 314.788389 194.113003 315.190594 194.113003 315.609917 
C 194.113003 316.02924 194.279602 316.431445 194.576108 316.727951 
C 194.872614 317.024457 195.274819 317.191056 195.694142 317.191056 
z
" clip-path="url(#p3e0c52a045)" style="fill: #808080; stroke: #808080"/>
    <path d="M 51.242731 221.984445 
C 51.662054 221.984445 52.064259 221.817846 52.360765 221.52134 
C 52.657271 221.224834 52.82387 220.822629 52.82387 220.403306 
C 52.82387 219.983983 52.657271 219.581778 52.360765 219.285272 
C 52.064259 218.988766 51.662054 218.822167 51.242731 218.822167 
C 50.823408 218.822167 50.421203 218.988766 50.124697 219.285272 
C 49.828191 219.581778 49.661592 219.983983 49.661592 220.403306 
C 49.661592 220.822629 49.828191 221.224834 50.124697 221.52134 
C 50.421203 221.817846 50.823408 221.984445 51.242731 221.984445 
z
" clip-path="url(#p3e0c52a045)" style="fill: #808080; stroke: #808080"/>
    <path d="M 165.678264 221.984445 
C 166.097587 221.984445 166.499792 221.817846 166.796298 221.52134 
C 167.092804 221.224834 167.259403 220.822629 167.259403 220.403306 
C 167.259403 219.983983 167.092804 219.581778 166.796298 219.285272 
C 166.499792 218.988766 166.097587 218.822167 165.678264 218.822167 
C 165.258941 218.822167 164.856736 218.988766 164.56023 219.285272 
C 164.263724 219.581778 164.097125 219.983983 164.097125 220.403306 
C 164.097125 220.822629 164.263724 221.224834 164.56023 221.52134 
C 164.856736 221.817846 165.258941 221.984445 165.678264 221.984445 
z
" clip-path="url(#p3e0c52a045)" style="fill: #808080; stroke: #808080"/>
    <path d="M 270.733835 221.984445 
C 271.153158 221.984445 271.555363 221.817846 271.851869 221.52134 
C 272.148376 221.224834 272.314974 220.822629 272.314974 220.403306 
C 272.314974 219.983983 272.148376 219.581778 271.851869 219.285272 
C 271.555363 218.988766 271.153158 218.822167 270.733835 218.822167 
C 270.314513 218.822167 269.912308 218.988766 269.615801 219.285272 
C 269.319295 219.581778 269.152697 219.983983 269.152697 220.403306 
C 269.152697 220.822629 269.319295 221.224834 269.615801 221.52134 
C 269.912308 221.817846 270.314513 221.984445 270.733835 221.984445 
z
" clip-path="url(#p3e0c52a045)" style="fill: #808080; stroke: #808080"/>
   </g>
  </g>
 </g>
 <defs>
  <clipPath id="p3e0c52a045">
   <rect x="0" y="0" width="460.8" height="345.6"/>
  </clipPath>
 </defs>
</svg>
