<?xml version="1.0" encoding="utf-8" standalone="no"?>
<!DOCTYPE svg PUBLIC "-//W3C//DTD SVG 1.1//EN"
  "http://www.w3.org/Graphics/SVG/1.1/DTD/svg11.dtd">
<svg xmlns:xlink="http://www.w3.org/1999/xlink" width="460.8pt" height="345.6pt" viewBox="0 0 460.8 345.6" xmlns="http://www.w3.org/2000/svg" version="1.1">
 <metadata>
  <rdf:RDF xmlns:dc="http://purl.org/dc/elements/1.1/" xmlns:cc="http://creativecommons.org/ns#" xmlns:rdf="http://www.w3.org/1999/02/22-rdf-syntax-ns#">
   <cc:Work>
    <dc:type rdf:resource="http://purl.org/dc/dcmitype/StillImage"/>
    <dc:date>2023-12-14T15:45:06.502108</dc:date>
    <dc:format>image/svg+xml</dc:format>
    <dc:creator>
     <cc:Agent>
      <dc:title>Matplotlib v3.8.2, https://matplotlib.org/</dc:title>
     </cc:Agent>
    </dc:creator>
   </cc:Work>
  </rdf:RDF>
 </metadata>
 <defs>
  <style type="text/css">*{stroke-linejoin: round; stroke-linecap: butt}</style>
 </defs>
 <g id="figure_1">
  <g id="patch_1">
   <path d="M 0 345.6 
L 460.8 345.6 
L 460.8 0 
L 0 0 
z
" style="fill: #ffffff"/>
  </g>
  <g id="axes_1">
   <g id="LineCollection_1">
    <path d="M 230.4 29.990083 
L 39.986777 125.196694 
" clip-path="url(#p6e27ab08e8)" style="fill: none; stroke: #d3d3d3"/>
    <path d="M 230.4 29.990083 
L 55.219835 125.196694 
" clip-path="url(#p6e27ab08e8)" style="fill: none; stroke: #d3d3d3"/>
    <path d="M 230.4 29.990083 
L 70.452893 125.196694 
" clip-path="url(#p6e27ab08e8)" style="fill: none; stroke: #d3d3d3"/>
    <path d="M 230.4 29.990083 
L 85.68595 125.196694 
" clip-path="url(#p6e27ab08e8)" style="fill: none; stroke: #d3d3d3"/>
    <path d="M 230.4 29.990083 
L 100.919008 125.196694 
" clip-path="url(#p6e27ab08e8)" style="fill: none; stroke: #d3d3d3"/>
    <path d="M 230.4 29.990083 
L 116.152066 125.196694 
" clip-path="url(#p6e27ab08e8)" style="fill: none; stroke: #d3d3d3"/>
    <path d="M 230.4 29.990083 
L 131.385124 125.196694 
" clip-path="url(#p6e27ab08e8)" style="fill: none; stroke: #d3d3d3"/>
    <path d="M 230.4 29.990083 
L 146.618182 125.196694 
" clip-path="url(#p6e27ab08e8)" style="fill: none; stroke: #d3d3d3"/>
    <path d="M 230.4 29.990083 
L 161.85124 125.196694 
" clip-path="url(#p6e27ab08e8)" style="fill: none; stroke: #d3d3d3"/>
    <path d="M 230.4 29.990083 
L 177.084298 125.196694 
" clip-path="url(#p6e27ab08e8)" style="fill: none; stroke: #d3d3d3"/>
    <path d="M 230.4 29.990083 
L 192.317355 125.196694 
" clip-path="url(#p6e27ab08e8)" style="fill: none; stroke: #d3d3d3"/>
    <path d="M 230.4 29.990083 
L 207.550413 125.196694 
" clip-path="url(#p6e27ab08e8)" style="fill: none; stroke: #d3d3d3"/>
    <path d="M 230.4 29.990083 
L 222.783471 125.196694 
" clip-path="url(#p6e27ab08e8)" style="fill: none; stroke: #d3d3d3"/>
    <path d="M 230.4 29.990083 
L 238.016529 125.196694 
" clip-path="url(#p6e27ab08e8)" style="fill: none; stroke: #d3d3d3"/>
    <path d="M 230.4 29.990083 
L 253.249587 125.196694 
" clip-path="url(#p6e27ab08e8)" style="fill: none; stroke: #d3d3d3"/>
    <path d="M 230.4 29.990083 
L 268.482645 125.196694 
" clip-path="url(#p6e27ab08e8)" style="fill: none; stroke: #d3d3d3"/>
    <path d="M 230.4 29.990083 
L 283.715702 125.196694 
" clip-path="url(#p6e27ab08e8)" style="fill: none; stroke: #d3d3d3"/>
    <path d="M 230.4 29.990083 
L 298.94876 125.196694 
" clip-path="url(#p6e27ab08e8)" style="fill: none; stroke: #d3d3d3"/>
    <path d="M 230.4 29.990083 
L 314.181818 125.196694 
" clip-path="url(#p6e27ab08e8)" style="fill: none; stroke: #d3d3d3"/>
    <path d="M 230.4 29.990083 
L 329.414876 125.196694 
" clip-path="url(#p6e27ab08e8)" style="fill: none; stroke: #d3d3d3"/>
    <path d="M 230.4 29.990083 
L 344.647934 125.196694 
" clip-path="url(#p6e27ab08e8)" style="fill: none; stroke: #d3d3d3"/>
    <path d="M 230.4 29.990083 
L 359.880992 125.196694 
" clip-path="url(#p6e27ab08e8)" style="fill: none; stroke: #d3d3d3"/>
    <path d="M 230.4 29.990083 
L 375.11405 125.196694 
" clip-path="url(#p6e27ab08e8)" style="fill: none; stroke: #d3d3d3"/>
    <path d="M 230.4 29.990083 
L 390.347107 125.196694 
" clip-path="url(#p6e27ab08e8)" style="fill: none; stroke: #d3d3d3"/>
    <path d="M 230.4 29.990083 
L 405.580165 125.196694 
" clip-path="url(#p6e27ab08e8)" style="fill: none; stroke: #d3d3d3"/>
    <path d="M 230.4 29.990083 
L 420.813223 125.196694 
" clip-path="url(#p6e27ab08e8)" style="fill: none; stroke: #d3d3d3"/>
    <path d="M 55.219835 125.196694 
L 49.507438 220.403306 
" clip-path="url(#p6e27ab08e8)" style="fill: none; stroke: #d3d3d3"/>
    <path d="M 55.219835 125.196694 
L 53.315702 220.403306 
" clip-path="url(#p6e27ab08e8)" style="fill: none; stroke: #d3d3d3"/>
    <path d="M 55.219835 125.196694 
L 57.123967 220.403306 
" clip-path="url(#p6e27ab08e8)" style="fill: none; stroke: #d3d3d3"/>
    <path d="M 55.219835 125.196694 
L 60.932231 220.403306 
" clip-path="url(#p6e27ab08e8)" style="fill: none; stroke: #d3d3d3"/>
    <path d="M 70.452893 125.196694 
L 64.740496 220.403306 
" clip-path="url(#p6e27ab08e8)" style="fill: none; stroke: #d3d3d3"/>
    <path d="M 70.452893 125.196694 
L 68.54876 220.403306 
" clip-path="url(#p6e27ab08e8)" style="fill: none; stroke: #d3d3d3"/>
    <path d="M 70.452893 125.196694 
L 72.357025 220.403306 
" clip-path="url(#p6e27ab08e8)" style="fill: none; stroke: #d3d3d3"/>
    <path d="M 70.452893 125.196694 
L 76.165289 220.403306 
" clip-path="url(#p6e27ab08e8)" style="fill: none; stroke: #d3d3d3"/>
    <path d="M 100.919008 125.196694 
L 100.919008 220.403306 
" clip-path="url(#p6e27ab08e8)" style="fill: none; stroke: #d3d3d3"/>
    <path d="M 131.385124 125.196694 
L 127.57686 220.403306 
" clip-path="url(#p6e27ab08e8)" style="fill: none; stroke: #d3d3d3"/>
    <path d="M 131.385124 125.196694 
L 135.193388 220.403306 
" clip-path="url(#p6e27ab08e8)" style="fill: none; stroke: #d3d3d3"/>
    <path d="M 161.85124 125.196694 
L 158.042975 220.403306 
" clip-path="url(#p6e27ab08e8)" style="fill: none; stroke: #d3d3d3"/>
    <path d="M 161.85124 125.196694 
L 165.659504 220.403306 
" clip-path="url(#p6e27ab08e8)" style="fill: none; stroke: #d3d3d3"/>
    <path d="M 177.084298 125.196694 
L 172.006612 220.403306 
" clip-path="url(#p6e27ab08e8)" style="fill: none; stroke: #d3d3d3"/>
    <path d="M 177.084298 125.196694 
L 177.084298 220.403306 
" clip-path="url(#p6e27ab08e8)" style="fill: none; stroke: #d3d3d3"/>
    <path d="M 177.084298 125.196694 
L 182.161983 220.403306 
" clip-path="url(#p6e27ab08e8)" style="fill: none; stroke: #d3d3d3"/>
    <path d="M 192.317355 125.196694 
L 188.509091 220.403306 
" clip-path="url(#p6e27ab08e8)" style="fill: none; stroke: #d3d3d3"/>
    <path d="M 192.317355 125.196694 
L 196.12562 220.403306 
" clip-path="url(#p6e27ab08e8)" style="fill: none; stroke: #d3d3d3"/>
    <path d="M 207.550413 125.196694 
L 203.742149 220.403306 
" clip-path="url(#p6e27ab08e8)" style="fill: none; stroke: #d3d3d3"/>
    <path d="M 207.550413 125.196694 
L 211.358678 220.403306 
" clip-path="url(#p6e27ab08e8)" style="fill: none; stroke: #d3d3d3"/>
    <path d="M 222.783471 125.196694 
L 222.783471 220.403306 
" clip-path="url(#p6e27ab08e8)" style="fill: none; stroke: #d3d3d3"/>
    <path d="M 238.016529 125.196694 
L 238.016529 220.403306 
" clip-path="url(#p6e27ab08e8)" style="fill: none; stroke: #d3d3d3"/>
    <path d="M 283.715702 125.196694 
L 283.715702 220.403306 
" clip-path="url(#p6e27ab08e8)" style="fill: none; stroke: #d3d3d3"/>
    <path d="M 298.94876 125.196694 
L 298.94876 220.403306 
" clip-path="url(#p6e27ab08e8)" style="fill: none; stroke: #d3d3d3"/>
    <path d="M 314.181818 125.196694 
L 314.181818 220.403306 
" clip-path="url(#p6e27ab08e8)" style="fill: none; stroke: #d3d3d3"/>
    <path d="M 53.315702 220.403306 
L 53.315702 315.609917 
" clip-path="url(#p6e27ab08e8)" style="fill: none; stroke: #d3d3d3"/>
    <path d="M 359.880992 125.196694 
L 359.880992 220.403306 
" clip-path="url(#p6e27ab08e8)" style="fill: none; stroke: #d3d3d3"/>
   </g>
   <g id="PathCollection_1">
    <path d="M 230.4 39.607775 
C 232.950642 39.607775 235.397159 38.594394 237.200735 36.790818 
C 239.004311 34.987242 240.017692 32.540724 240.017692 29.990083 
C 240.017692 27.439441 239.004311 24.992923 237.200735 23.189347 
C 235.397159 21.385771 232.950642 20.372391 230.4 20.372391 
C 227.849358 20.372391 225.402841 21.385771 223.599265 23.189347 
C 221.795689 24.992923 220.782308 27.439441 220.782308 29.990083 
C 220.782308 32.540724 221.795689 34.987242 223.599265 36.790818 
C 225.402841 38.594394 227.849358 39.607775 230.4 39.607775 
z
" clip-path="url(#p6e27ab08e8)" style="fill: #808080; stroke: #808080"/>
    <path d="M 39.986777 129.379994 
C 41.096201 129.379994 42.160335 128.939215 42.944817 128.154734 
C 43.729298 127.370253 44.170077 126.306118 44.170077 125.196694 
C 44.170077 124.08727 43.729298 123.023136 42.944817 122.238654 
C 42.160335 121.454173 41.096201 121.013394 39.986777 121.013394 
C 38.877353 121.013394 37.813218 121.454173 37.028737 122.238654 
C 36.244256 123.023136 35.803477 124.08727 35.803477 125.196694 
C 35.803477 126.306118 36.244256 127.370253 37.028737 128.154734 
C 37.813218 128.939215 38.877353 129.379994 39.986777 129.379994 
z
" clip-path="url(#p6e27ab08e8)" style="fill: #808080; stroke: #808080"/>
    <path d="M 55.219835 128.358972 
C 56.058481 128.358972 56.862891 128.025774 57.455903 127.432762 
C 58.048915 126.83975 58.382112 126.03534 58.382112 125.196694 
C 58.382112 124.358048 58.048915 123.553638 57.455903 122.960626 
C 56.862891 122.367614 56.058481 122.034417 55.219835 122.034417 
C 54.381189 122.034417 53.576779 122.367614 52.983767 122.960626 
C 52.390755 123.553638 52.057557 124.358048 52.057557 125.196694 
C 52.057557 126.03534 52.390755 126.83975 52.983767 127.432762 
C 53.576779 128.025774 54.381189 128.358972 55.219835 128.358972 
z
" clip-path="url(#p6e27ab08e8)" style="fill: #808080; stroke: #808080"/>
    <path d="M 70.452893 125.196694 
C 70.452893 125.196694 70.452893 125.196694 70.452893 125.196694 
C 70.452893 125.196694 70.452893 125.196694 70.452893 125.196694 
C 70.452893 125.196694 70.452893 125.196694 70.452893 125.196694 
C 70.452893 125.196694 70.452893 125.196694 70.452893 125.196694 
C 70.452893 125.196694 70.452893 125.196694 70.452893 125.196694 
C 70.452893 125.196694 70.452893 125.196694 70.452893 125.196694 
C 70.452893 125.196694 70.452893 125.196694 70.452893 125.196694 
C 70.452893 125.196694 70.452893 125.196694 70.452893 125.196694 
z
" clip-path="url(#p6e27ab08e8)" style="fill: #808080; stroke: #808080"/>
    <path d="M 85.68595 129.379994 
C 86.795375 129.379994 87.859509 128.939215 88.64399 128.154734 
C 89.428472 127.370253 89.869251 126.306118 89.869251 125.196694 
C 89.869251 124.08727 89.428472 123.023136 88.64399 122.238654 
C 87.859509 121.454173 86.795375 121.013394 85.68595 121.013394 
C 84.576526 121.013394 83.512392 121.454173 82.727911 122.238654 
C 81.943429 123.023136 81.50265 124.08727 81.50265 125.196694 
C 81.50265 126.306118 81.943429 127.370253 82.727911 128.154734 
C 83.512392 128.939215 84.576526 129.379994 85.68595 129.379994 
z
" clip-path="url(#p6e27ab08e8)" style="fill: #808080; stroke: #808080"/>
    <path d="M 100.919008 127.935307 
C 101.645297 127.935307 102.341936 127.646749 102.8555 127.133186 
C 103.369064 126.619622 103.657621 125.922983 103.657621 125.196694 
C 103.657621 124.470406 103.369064 123.773766 102.8555 123.260203 
C 102.341936 122.746639 101.645297 122.458081 100.919008 122.458081 
C 100.19272 122.458081 99.49608 122.746639 98.982517 123.260203 
C 98.468953 123.773766 98.180395 124.470406 98.180395 125.196694 
C 98.180395 125.922983 98.468953 126.619622 98.982517 127.133186 
C 99.49608 127.646749 100.19272 127.935307 100.919008 127.935307 
z
" clip-path="url(#p6e27ab08e8)" style="fill: #808080; stroke: #808080"/>
    <path d="M 116.152066 129.069678 
C 117.179193 129.069678 118.16439 128.661596 118.890679 127.935307 
C 119.616968 127.209018 120.025049 126.223821 120.025049 125.196694 
C 120.025049 124.169567 119.616968 123.18437 118.890679 122.458081 
C 118.16439 121.731793 117.179193 121.323711 116.152066 121.323711 
C 115.124939 121.323711 114.139742 121.731793 113.413453 122.458081 
C 112.687165 123.18437 112.279083 124.169567 112.279083 125.196694 
C 112.279083 126.223821 112.687165 127.209018 113.413453 127.935307 
C 114.139742 128.661596 115.124939 129.069678 116.152066 129.069678 
z
" clip-path="url(#p6e27ab08e8)" style="fill: #808080; stroke: #808080"/>
    <path d="M 131.385124 129.069678 
C 132.412251 129.069678 133.397448 128.661596 134.123737 127.935307 
C 134.850025 127.209018 135.258107 126.223821 135.258107 125.196694 
C 135.258107 124.169567 134.850025 123.18437 134.123737 122.458081 
C 133.397448 121.731793 132.412251 121.323711 131.385124 121.323711 
C 130.357997 121.323711 129.3728 121.731793 128.646511 122.458081 
C 127.920223 123.18437 127.512141 124.169567 127.512141 125.196694 
C 127.512141 126.223821 127.920223 127.209018 128.646511 127.935307 
C 129.3728 128.661596 130.357997 129.069678 131.385124 129.069678 
z
" clip-path="url(#p6e27ab08e8)" style="fill: #808080; stroke: #808080"/>
    <path d="M 146.618182 129.66883 
C 147.804206 129.66883 148.941814 129.197618 149.780459 128.358972 
C 150.619105 127.520326 151.090318 126.382719 151.090318 125.196694 
C 151.090318 124.01067 150.619105 122.873062 149.780459 122.034417 
C 148.941814 121.195771 147.804206 120.724558 146.618182 120.724558 
C 145.432157 120.724558 144.29455 121.195771 143.455904 122.034417 
C 142.617258 122.873062 142.146046 124.01067 142.146046 125.196694 
C 142.146046 126.382719 142.617258 127.520326 143.455904 128.358972 
C 144.29455 129.197618 145.432157 129.66883 146.618182 129.66883 
z
" clip-path="url(#p6e27ab08e8)" style="fill: #808080; stroke: #808080"/>
    <path d="M 161.85124 128.732228 
C 162.788874 128.732228 163.688232 128.359702 164.35124 127.696694 
C 165.014247 127.033686 165.386774 126.134329 165.386774 125.196694 
C 165.386774 124.25906 165.014247 123.359702 164.35124 122.696694 
C 163.688232 122.033686 162.788874 121.66116 161.85124 121.66116 
C 160.913605 121.66116 160.014247 122.033686 159.35124 122.696694 
C 158.688232 123.359702 158.315706 124.25906 158.315706 125.196694 
C 158.315706 126.134329 158.688232 127.033686 159.35124 127.696694 
C 160.014247 128.359702 160.913605 128.732228 161.85124 128.732228 
z
" clip-path="url(#p6e27ab08e8)" style="fill: #808080; stroke: #808080"/>
    <path d="M 177.084298 126.777833 
C 177.50362 126.777833 177.905825 126.611234 178.202332 126.314728 
C 178.498838 126.018222 178.665436 125.616017 178.665436 125.196694 
C 178.665436 124.777371 178.498838 124.375166 178.202332 124.07866 
C 177.905825 123.782154 177.50362 123.615555 177.084298 123.615555 
C 176.664975 123.615555 176.26277 123.782154 175.966264 124.07866 
C 175.669757 124.375166 175.503159 124.777371 175.503159 125.196694 
C 175.503159 125.616017 175.669757 126.018222 175.966264 126.314728 
C 176.26277 126.611234 176.664975 126.777833 177.084298 126.777833 
z
" clip-path="url(#p6e27ab08e8)" style="fill: #808080; stroke: #808080"/>
    <path d="M 192.317355 129.069678 
C 193.344483 129.069678 194.32968 128.661596 195.055968 127.935307 
C 195.782257 127.209018 196.190339 126.223821 196.190339 125.196694 
C 196.190339 124.169567 195.782257 123.18437 195.055968 122.458081 
C 194.32968 121.731793 193.344483 121.323711 192.317355 121.323711 
C 191.290228 121.323711 190.305031 121.731793 189.578743 122.458081 
C 188.852454 123.18437 188.444372 124.169567 188.444372 125.196694 
C 188.444372 126.223821 188.852454 127.209018 189.578743 127.935307 
C 190.305031 128.661596 191.290228 129.069678 192.317355 129.069678 
z
" clip-path="url(#p6e27ab08e8)" style="fill: #808080; stroke: #808080"/>
    <path d="M 207.550413 128.358972 
C 208.389059 128.358972 209.193469 128.025774 209.786481 127.432762 
C 210.379493 126.83975 210.712691 126.03534 210.712691 125.196694 
C 210.712691 124.358048 210.379493 123.553638 209.786481 122.960626 
C 209.193469 122.367614 208.389059 122.034417 207.550413 122.034417 
C 206.711767 122.034417 205.907357 122.367614 205.314345 122.960626 
C 204.721333 123.553638 204.388136 124.358048 204.388136 125.196694 
C 204.388136 126.03534 204.721333 126.83975 205.314345 127.432762 
C 205.907357 128.025774 206.711767 128.358972 207.550413 128.358972 
z
" clip-path="url(#p6e27ab08e8)" style="fill: #808080; stroke: #808080"/>
    <path d="M 222.783471 128.358972 
C 223.622117 128.358972 224.426527 128.025774 225.019539 127.432762 
C 225.612551 126.83975 225.945749 126.03534 225.945749 125.196694 
C 225.945749 124.358048 225.612551 123.553638 225.019539 122.960626 
C 224.426527 122.367614 223.622117 122.034417 222.783471 122.034417 
C 221.944825 122.034417 221.140415 122.367614 220.547403 122.960626 
C 219.954391 123.553638 219.621193 124.358048 219.621193 125.196694 
C 219.621193 126.03534 219.954391 126.83975 220.547403 127.432762 
C 221.140415 128.025774 221.944825 128.358972 222.783471 128.358972 
z
" clip-path="url(#p6e27ab08e8)" style="fill: #808080; stroke: #808080"/>
    <path d="M 238.016529 128.358972 
C 238.855175 128.358972 239.659585 128.025774 240.252597 127.432762 
C 240.845609 126.83975 241.178807 126.03534 241.178807 125.196694 
C 241.178807 124.358048 240.845609 123.553638 240.252597 122.960626 
C 239.659585 122.367614 238.855175 122.034417 238.016529 122.034417 
C 237.177883 122.034417 236.373473 122.367614 235.780461 122.960626 
C 235.187449 123.553638 234.854251 124.358048 234.854251 125.196694 
C 234.854251 126.03534 235.187449 126.83975 235.780461 127.432762 
C 236.373473 128.025774 237.177883 128.358972 238.016529 128.358972 
z
" clip-path="url(#p6e27ab08e8)" style="fill: #808080; stroke: #808080"/>
    <path d="M 253.249587 129.379994 
C 254.359011 129.379994 255.423145 128.939215 256.207627 128.154734 
C 256.992108 127.370253 257.432887 126.306118 257.432887 125.196694 
C 257.432887 124.08727 256.992108 123.023136 256.207627 122.238654 
C 255.423145 121.454173 254.359011 121.013394 253.249587 121.013394 
C 252.140163 121.013394 251.076028 121.454173 250.291547 122.238654 
C 249.507066 123.023136 249.066287 124.08727 249.066287 125.196694 
C 249.066287 126.306118 249.507066 127.370253 250.291547 128.154734 
C 251.076028 128.939215 252.140163 129.379994 253.249587 129.379994 
z
" clip-path="url(#p6e27ab08e8)" style="fill: #808080; stroke: #808080"/>
    <path d="M 268.482645 128.358972 
C 269.32129 128.358972 270.1257 128.025774 270.718713 127.432762 
C 271.311725 126.83975 271.644922 126.03534 271.644922 125.196694 
C 271.644922 124.358048 271.311725 123.553638 270.718713 122.960626 
C 270.1257 122.367614 269.32129 122.034417 268.482645 122.034417 
C 267.643999 122.034417 266.839589 122.367614 266.246577 122.960626 
C 265.653564 123.553638 265.320367 124.358048 265.320367 125.196694 
C 265.320367 126.03534 265.653564 126.83975 266.246577 127.432762 
C 266.839589 128.025774 267.643999 128.358972 268.482645 128.358972 
z
" clip-path="url(#p6e27ab08e8)" style="fill: #808080; stroke: #808080"/>
    <path d="M 283.715702 127.935307 
C 284.441991 127.935307 285.138631 127.646749 285.652194 127.133186 
C 286.165758 126.619622 286.454315 125.922983 286.454315 125.196694 
C 286.454315 124.470406 286.165758 123.773766 285.652194 123.260203 
C 285.138631 122.746639 284.441991 122.458081 283.715702 122.458081 
C 282.989414 122.458081 282.292774 122.746639 281.779211 123.260203 
C 281.265647 123.773766 280.97709 124.470406 280.97709 125.196694 
C 280.97709 125.922983 281.265647 126.619622 281.779211 127.133186 
C 282.292774 127.646749 282.989414 127.935307 283.715702 127.935307 
z
" clip-path="url(#p6e27ab08e8)" style="fill: #808080; stroke: #808080"/>
    <path d="M 298.94876 127.935307 
C 299.675049 127.935307 300.371688 127.646749 300.885252 127.133186 
C 301.398816 126.619622 301.687373 125.922983 301.687373 125.196694 
C 301.687373 124.470406 301.398816 123.773766 300.885252 123.260203 
C 300.371688 122.746639 299.675049 122.458081 298.94876 122.458081 
C 298.222472 122.458081 297.525832 122.746639 297.012269 123.260203 
C 296.498705 123.773766 296.210148 124.470406 296.210148 125.196694 
C 296.210148 125.922983 296.498705 126.619622 297.012269 127.133186 
C 297.525832 127.646749 298.222472 127.935307 298.94876 127.935307 
z
" clip-path="url(#p6e27ab08e8)" style="fill: #808080; stroke: #808080"/>
    <path d="M 314.181818 127.432762 
C 314.77483 127.432762 315.343634 127.197156 315.762957 126.777833 
C 316.18228 126.35851 316.417886 125.789706 316.417886 125.196694 
C 316.417886 124.603682 316.18228 124.034878 315.762957 123.615555 
C 315.343634 123.196232 314.77483 122.960626 314.181818 122.960626 
C 313.588806 122.960626 313.020002 123.196232 312.600679 123.615555 
C 312.181356 124.034878 311.94575 124.603682 311.94575 125.196694 
C 311.94575 125.789706 312.181356 126.35851 312.600679 126.777833 
C 313.020002 127.197156 313.588806 127.432762 314.181818 127.432762 
z
" clip-path="url(#p6e27ab08e8)" style="fill: #808080; stroke: #808080"/>
    <path d="M 49.507438 221.984445 
C 49.926761 221.984445 50.328966 221.817846 50.625472 221.52134 
C 50.921978 221.224834 51.088577 220.822629 51.088577 220.403306 
C 51.088577 219.983983 50.921978 219.581778 50.625472 219.285272 
C 50.328966 218.988766 49.926761 218.822167 49.507438 218.822167 
C 49.088115 218.822167 48.68591 218.988766 48.389404 219.285272 
C 48.092898 219.581778 47.926299 219.983983 47.926299 220.403306 
C 47.926299 220.822629 48.092898 221.224834 48.389404 221.52134 
C 48.68591 221.817846 49.088115 221.984445 49.507438 221.984445 
z
" clip-path="url(#p6e27ab08e8)" style="fill: #808080; stroke: #808080"/>
    <path d="M 53.315702 221.984445 
C 53.735025 221.984445 54.13723 221.817846 54.433736 221.52134 
C 54.730243 221.224834 54.896841 220.822629 54.896841 220.403306 
C 54.896841 219.983983 54.730243 219.581778 54.433736 219.285272 
C 54.13723 218.988766 53.735025 218.822167 53.315702 218.822167 
C 52.89638 218.822167 52.494175 218.988766 52.197668 219.285272 
C 51.901162 219.581778 51.734564 219.983983 51.734564 220.403306 
C 51.734564 220.822629 51.901162 221.224834 52.197668 221.52134 
C 52.494175 221.817846 52.89638 221.984445 53.315702 221.984445 
z
" clip-path="url(#p6e27ab08e8)" style="fill: #808080; stroke: #808080"/>
    <path d="M 127.57686 221.984445 
C 127.996182 221.984445 128.398387 221.817846 128.694893 221.52134 
C 128.9914 221.224834 129.157998 220.822629 129.157998 220.403306 
C 129.157998 219.983983 128.9914 219.581778 128.694893 219.285272 
C 128.398387 218.988766 127.996182 218.822167 127.57686 218.822167 
C 127.157537 218.822167 126.755332 218.988766 126.458826 219.285272 
C 126.162319 219.581778 125.995721 219.983983 125.995721 220.403306 
C 125.995721 220.822629 126.162319 221.224834 126.458826 221.52134 
C 126.755332 221.817846 127.157537 221.984445 127.57686 221.984445 
z
" clip-path="url(#p6e27ab08e8)" style="fill: #808080; stroke: #808080"/>
    <path d="M 100.919008 221.984445 
C 101.338331 221.984445 101.740536 221.817846 102.037042 221.52134 
C 102.333548 221.224834 102.500147 220.822629 102.500147 220.403306 
C 102.500147 219.983983 102.333548 219.581778 102.037042 219.285272 
C 101.740536 218.988766 101.338331 218.822167 100.919008 218.822167 
C 100.499685 218.822167 100.09748 218.988766 99.800974 219.285272 
C 99.504468 219.581778 99.337869 219.983983 99.337869 220.403306 
C 99.337869 220.822629 99.504468 221.224834 99.800974 221.52134 
C 100.09748 221.817846 100.499685 221.984445 100.919008 221.984445 
z
" clip-path="url(#p6e27ab08e8)" style="fill: #808080; stroke: #808080"/>
    <path d="M 329.414876 128.358972 
C 330.253522 128.358972 331.057932 128.025774 331.650944 127.432762 
C 332.243956 126.83975 332.577154 126.03534 332.577154 125.196694 
C 332.577154 124.358048 332.243956 123.553638 331.650944 122.960626 
C 331.057932 122.367614 330.253522 122.034417 329.414876 122.034417 
C 328.57623 122.034417 327.77182 122.367614 327.178808 122.960626 
C 326.585796 123.553638 326.252598 124.358048 326.252598 125.196694 
C 326.252598 126.03534 326.585796 126.83975 327.178808 127.432762 
C 327.77182 128.025774 328.57623 128.358972 329.414876 128.358972 
z
" clip-path="url(#p6e27ab08e8)" style="fill: #808080; stroke: #808080"/>
    <path d="M 344.647934 127.935307 
C 345.374222 127.935307 346.070862 127.646749 346.584426 127.133186 
C 347.097989 126.619622 347.386547 125.922983 347.386547 125.196694 
C 347.386547 124.470406 347.097989 123.773766 346.584426 123.260203 
C 346.070862 122.746639 345.374222 122.458081 344.647934 122.458081 
C 343.921645 122.458081 343.225006 122.746639 342.711442 123.260203 
C 342.197879 123.773766 341.909321 124.470406 341.909321 125.196694 
C 341.909321 125.922983 342.197879 126.619622 342.711442 127.133186 
C 343.225006 127.646749 343.921645 127.935307 344.647934 127.935307 
z
" clip-path="url(#p6e27ab08e8)" style="fill: #808080; stroke: #808080"/>
    <path d="M 172.006612 221.984445 
C 172.425934 221.984445 172.828139 221.817846 173.124646 221.52134 
C 173.421152 221.224834 173.58775 220.822629 173.58775 220.403306 
C 173.58775 219.983983 173.421152 219.581778 173.124646 219.285272 
C 172.828139 218.988766 172.425934 218.822167 172.006612 218.822167 
C 171.587289 218.822167 171.185084 218.988766 170.888578 219.285272 
C 170.592072 219.581778 170.425473 219.983983 170.425473 220.403306 
C 170.425473 220.822629 170.592072 221.224834 170.888578 221.52134 
C 171.185084 221.817846 171.587289 221.984445 172.006612 221.984445 
z
" clip-path="url(#p6e27ab08e8)" style="fill: #808080; stroke: #808080"/>
    <path d="M 359.880992 128.358972 
C 360.719638 128.358972 361.524048 128.025774 362.11706 127.432762 
C 362.710072 126.83975 363.043269 126.03534 363.043269 125.196694 
C 363.043269 124.358048 362.710072 123.553638 362.11706 122.960626 
C 361.524048 122.367614 360.719638 122.034417 359.880992 122.034417 
C 359.042346 122.034417 358.237936 122.367614 357.644924 122.960626 
C 357.051912 123.553638 356.718714 124.358048 356.718714 125.196694 
C 356.718714 126.03534 357.051912 126.83975 357.644924 127.432762 
C 358.237936 128.025774 359.042346 128.358972 359.880992 128.358972 
z
" clip-path="url(#p6e27ab08e8)" style="fill: #808080; stroke: #808080"/>
    <path d="M 375.11405 128.732228 
C 376.051684 128.732228 376.951042 128.359702 377.61405 127.696694 
C 378.277057 127.033686 378.649583 126.134329 378.649583 125.196694 
C 378.649583 124.25906 378.277057 123.359702 377.61405 122.696694 
C 376.951042 122.033686 376.051684 121.66116 375.11405 121.66116 
C 374.176415 121.66116 373.277057 122.033686 372.61405 122.696694 
C 371.951042 123.359702 371.578516 124.25906 371.578516 125.196694 
C 371.578516 126.134329 371.951042 127.033686 372.61405 127.696694 
C 373.277057 128.359702 374.176415 128.732228 375.11405 128.732228 
z
" clip-path="url(#p6e27ab08e8)" style="fill: #808080; stroke: #808080"/>
    <path d="M 390.347107 128.732228 
C 391.284742 128.732228 392.1841 128.359702 392.847107 127.696694 
C 393.510115 127.033686 393.882641 126.134329 393.882641 125.196694 
C 393.882641 124.25906 393.510115 123.359702 392.847107 122.696694 
C 392.1841 122.033686 391.284742 121.66116 390.347107 121.66116 
C 389.409473 121.66116 388.510115 122.033686 387.847107 122.696694 
C 387.1841 123.359702 386.811574 124.25906 386.811574 125.196694 
C 386.811574 126.134329 387.1841 127.033686 387.847107 127.696694 
C 388.510115 128.359702 389.409473 128.732228 390.347107 128.732228 
z
" clip-path="url(#p6e27ab08e8)" style="fill: #808080; stroke: #808080"/>
    <path d="M 405.580165 128.358972 
C 406.418811 128.358972 407.223221 128.025774 407.816233 127.432762 
C 408.409245 126.83975 408.742443 126.03534 408.742443 125.196694 
C 408.742443 124.358048 408.409245 123.553638 407.816233 122.960626 
C 407.223221 122.367614 406.418811 122.034417 405.580165 122.034417 
C 404.741519 122.034417 403.937109 122.367614 403.344097 122.960626 
C 402.751085 123.553638 402.417888 124.358048 402.417888 125.196694 
C 402.417888 126.03534 402.751085 126.83975 403.344097 127.432762 
C 403.937109 128.025774 404.741519 128.358972 405.580165 128.358972 
z
" clip-path="url(#p6e27ab08e8)" style="fill: #808080; stroke: #808080"/>
    <path d="M 64.740496 222.639374 
C 65.333508 222.639374 65.902312 222.403768 66.321635 221.984445 
C 66.740958 221.565122 66.976564 220.996318 66.976564 220.403306 
C 66.976564 219.810294 66.740958 219.24149 66.321635 218.822167 
C 65.902312 218.402844 65.333508 218.167238 64.740496 218.167238 
C 64.147484 218.167238 63.57868 218.402844 63.159357 218.822167 
C 62.740034 219.24149 62.504428 219.810294 62.504428 220.403306 
C 62.504428 220.996318 62.740034 221.565122 63.159357 221.984445 
C 63.57868 222.403768 64.147484 222.639374 64.740496 222.639374 
z
" clip-path="url(#p6e27ab08e8)" style="fill: #808080; stroke: #808080"/>
    <path d="M 203.742149 222.639374 
C 204.335161 222.639374 204.903965 222.403768 205.323288 221.984445 
C 205.742611 221.565122 205.978217 220.996318 205.978217 220.403306 
C 205.978217 219.810294 205.742611 219.24149 205.323288 218.822167 
C 204.903965 218.402844 204.335161 218.167238 203.742149 218.167238 
C 203.149137 218.167238 202.580333 218.402844 202.16101 218.822167 
C 201.741687 219.24149 201.506081 219.810294 201.506081 220.403306 
C 201.506081 220.996318 201.741687 221.565122 202.16101 221.984445 
C 202.580333 222.403768 203.149137 222.639374 203.742149 222.639374 
z
" clip-path="url(#p6e27ab08e8)" style="fill: #808080; stroke: #808080"/>
    <path d="M 177.084298 221.984445 
C 177.50362 221.984445 177.905825 221.817846 178.202332 221.52134 
C 178.498838 221.224834 178.665436 220.822629 178.665436 220.403306 
C 178.665436 219.983983 178.498838 219.581778 178.202332 219.285272 
C 177.905825 218.988766 177.50362 218.822167 177.084298 218.822167 
C 176.664975 218.822167 176.26277 218.988766 175.966264 219.285272 
C 175.669757 219.581778 175.503159 219.983983 175.503159 220.403306 
C 175.503159 220.822629 175.669757 221.224834 175.966264 221.52134 
C 176.26277 221.817846 176.664975 221.984445 177.084298 221.984445 
z
" clip-path="url(#p6e27ab08e8)" style="fill: #808080; stroke: #808080"/>
    <path d="M 238.016529 221.984445 
C 238.435852 221.984445 238.838057 221.817846 239.134563 221.52134 
C 239.431069 221.224834 239.597668 220.822629 239.597668 220.403306 
C 239.597668 219.983983 239.431069 219.581778 239.134563 219.285272 
C 238.838057 218.988766 238.435852 218.822167 238.016529 218.822167 
C 237.597206 218.822167 237.195001 218.988766 236.898495 219.285272 
C 236.601989 219.581778 236.43539 219.983983 236.43539 220.403306 
C 236.43539 220.822629 236.601989 221.224834 236.898495 221.52134 
C 237.195001 221.817846 237.597206 221.984445 238.016529 221.984445 
z
" clip-path="url(#p6e27ab08e8)" style="fill: #808080; stroke: #808080"/>
    <path d="M 68.54876 221.984445 
C 68.968083 221.984445 69.370288 221.817846 69.666794 221.52134 
C 69.9633 221.224834 70.129899 220.822629 70.129899 220.403306 
C 70.129899 219.983983 69.9633 219.581778 69.666794 219.285272 
C 69.370288 218.988766 68.968083 218.822167 68.54876 218.822167 
C 68.129437 218.822167 67.727232 218.988766 67.430726 219.285272 
C 67.13422 219.581778 66.967622 219.983983 66.967622 220.403306 
C 66.967622 220.822629 67.13422 221.224834 67.430726 221.52134 
C 67.727232 221.817846 68.129437 221.984445 68.54876 221.984445 
z
" clip-path="url(#p6e27ab08e8)" style="fill: #808080; stroke: #808080"/>
    <path d="M 420.813223 128.732228 
C 421.750858 128.732228 422.650215 128.359702 423.313223 127.696694 
C 423.976231 127.033686 424.348757 126.134329 424.348757 125.196694 
C 424.348757 124.25906 423.976231 123.359702 423.313223 122.696694 
C 422.650215 122.033686 421.750858 121.66116 420.813223 121.66116 
C 419.875589 121.66116 418.976231 122.033686 418.313223 122.696694 
C 417.650215 123.359702 417.277689 124.25906 417.277689 125.196694 
C 417.277689 126.134329 417.650215 127.033686 418.313223 127.696694 
C 418.976231 128.359702 419.875589 128.732228 420.813223 128.732228 
z
" clip-path="url(#p6e27ab08e8)" style="fill: #808080; stroke: #808080"/>
    <path d="M 72.357025 222.639374 
C 72.950037 222.639374 73.518841 222.403768 73.938164 221.984445 
C 74.357487 221.565122 74.593093 220.996318 74.593093 220.403306 
C 74.593093 219.810294 74.357487 219.24149 73.938164 218.822167 
C 73.518841 218.402844 72.950037 218.167238 72.357025 218.167238 
C 71.764013 218.167238 71.195209 218.402844 70.775886 218.822167 
C 70.356563 219.24149 70.120957 219.810294 70.120957 220.403306 
C 70.120957 220.996318 70.356563 221.565122 70.775886 221.984445 
C 71.195209 222.403768 71.764013 222.639374 72.357025 222.639374 
z
" clip-path="url(#p6e27ab08e8)" style="fill: #808080; stroke: #808080"/>
    <path d="M 53.315702 318.34853 
C 54.041991 318.34853 54.738631 318.059973 55.252194 317.546409 
C 55.765758 317.032845 56.054315 316.336206 56.054315 315.609917 
C 56.054315 314.883629 55.765758 314.186989 55.252194 313.673426 
C 54.738631 313.159862 54.041991 312.871305 53.315702 312.871305 
C 52.589414 312.871305 51.892774 313.159862 51.379211 313.673426 
C 50.865647 314.186989 50.57709 314.883629 50.57709 315.609917 
C 50.57709 316.336206 50.865647 317.032845 51.379211 317.546409 
C 51.892774 318.059973 52.589414 318.34853 53.315702 318.34853 
z
" clip-path="url(#p6e27ab08e8)" style="fill: #808080; stroke: #808080"/>
    <path d="M 188.509091 221.984445 
C 188.928414 221.984445 189.330619 221.817846 189.627125 221.52134 
C 189.923631 221.224834 190.09023 220.822629 190.09023 220.403306 
C 190.09023 219.983983 189.923631 219.581778 189.627125 219.285272 
C 189.330619 218.988766 188.928414 218.822167 188.509091 218.822167 
C 188.089768 218.822167 187.687563 218.988766 187.391057 219.285272 
C 187.094551 219.581778 186.927952 219.983983 186.927952 220.403306 
C 186.927952 220.822629 187.094551 221.224834 187.391057 221.52134 
C 187.687563 221.817846 188.089768 221.984445 188.509091 221.984445 
z
" clip-path="url(#p6e27ab08e8)" style="fill: #808080; stroke: #808080"/>
    <path d="M 196.12562 221.984445 
C 196.544943 221.984445 196.947148 221.817846 197.243654 221.52134 
C 197.54016 221.224834 197.706759 220.822629 197.706759 220.403306 
C 197.706759 219.983983 197.54016 219.581778 197.243654 219.285272 
C 196.947148 218.988766 196.544943 218.822167 196.12562 218.822167 
C 195.706297 218.822167 195.304092 218.988766 195.007586 219.285272 
C 194.71108 219.581778 194.544481 219.983983 194.544481 220.403306 
C 194.544481 220.822629 194.71108 221.224834 195.007586 221.52134 
C 195.304092 221.817846 195.706297 221.984445 196.12562 221.984445 
z
" clip-path="url(#p6e27ab08e8)" style="fill: #808080; stroke: #808080"/>
    <path d="M 182.161983 222.639374 
C 182.754996 222.639374 183.323799 222.403768 183.743122 221.984445 
C 184.162445 221.565122 184.398051 220.996318 184.398051 220.403306 
C 184.398051 219.810294 184.162445 219.24149 183.743122 218.822167 
C 183.323799 218.402844 182.754996 218.167238 182.161983 218.167238 
C 181.568971 218.167238 181.000168 218.402844 180.580845 218.822167 
C 180.161522 219.24149 179.925915 219.810294 179.925915 220.403306 
C 179.925915 220.996318 180.161522 221.565122 180.580845 221.984445 
C 181.000168 222.403768 181.568971 222.639374 182.161983 222.639374 
z
" clip-path="url(#p6e27ab08e8)" style="fill: #808080; stroke: #808080"/>
    <path d="M 222.783471 221.984445 
C 223.202794 221.984445 223.604999 221.817846 223.901505 221.52134 
C 224.198011 221.224834 224.36461 220.822629 224.36461 220.403306 
C 224.36461 219.983983 224.198011 219.581778 223.901505 219.285272 
C 223.604999 218.988766 223.202794 218.822167 222.783471 218.822167 
C 222.364148 218.822167 221.961943 218.988766 221.665437 219.285272 
C 221.368931 219.581778 221.202332 219.983983 221.202332 220.403306 
C 221.202332 220.822629 221.368931 221.224834 221.665437 221.52134 
C 221.961943 221.817846 222.364148 221.984445 222.783471 221.984445 
z
" clip-path="url(#p6e27ab08e8)" style="fill: #808080; stroke: #808080"/>
    <path d="M 211.358678 221.984445 
C 211.778001 221.984445 212.180206 221.817846 212.476712 221.52134 
C 212.773218 221.224834 212.939817 220.822629 212.939817 220.403306 
C 212.939817 219.983983 212.773218 219.581778 212.476712 219.285272 
C 212.180206 218.988766 211.778001 218.822167 211.358678 218.822167 
C 210.939355 218.822167 210.53715 218.988766 210.240644 219.285272 
C 209.944138 219.581778 209.777539 219.983983 209.777539 220.403306 
C 209.777539 220.822629 209.944138 221.224834 210.240644 221.52134 
C 210.53715 221.817846 210.939355 221.984445 211.358678 221.984445 
z
" clip-path="url(#p6e27ab08e8)" style="fill: #808080; stroke: #808080"/>
    <path d="M 314.181818 221.984445 
C 314.601141 221.984445 315.003346 221.817846 315.299852 221.52134 
C 315.596358 221.224834 315.762957 220.822629 315.762957 220.403306 
C 315.762957 219.983983 315.596358 219.581778 315.299852 219.285272 
C 315.003346 218.988766 314.601141 218.822167 314.181818 218.822167 
C 313.762495 218.822167 313.36029 218.988766 313.063784 219.285272 
C 312.767278 219.581778 312.600679 219.983983 312.600679 220.403306 
C 312.600679 220.822629 312.767278 221.224834 313.063784 221.52134 
C 313.36029 221.817846 313.762495 221.984445 314.181818 221.984445 
z
" clip-path="url(#p6e27ab08e8)" style="fill: #808080; stroke: #808080"/>
    <path d="M 298.94876 221.984445 
C 299.368083 221.984445 299.770288 221.817846 300.066794 221.52134 
C 300.3633 221.224834 300.529899 220.822629 300.529899 220.403306 
C 300.529899 219.983983 300.3633 219.581778 300.066794 219.285272 
C 299.770288 218.988766 299.368083 218.822167 298.94876 218.822167 
C 298.529437 218.822167 298.127232 218.988766 297.830726 219.285272 
C 297.53422 219.581778 297.367622 219.983983 297.367622 220.403306 
C 297.367622 220.822629 297.53422 221.224834 297.830726 221.52134 
C 298.127232 221.817846 298.529437 221.984445 298.94876 221.984445 
z
" clip-path="url(#p6e27ab08e8)" style="fill: #808080; stroke: #808080"/>
    <path d="M 359.880992 221.984445 
C 360.300315 221.984445 360.70252 221.817846 360.999026 221.52134 
C 361.295532 221.224834 361.462131 220.822629 361.462131 220.403306 
C 361.462131 219.983983 361.295532 219.581778 360.999026 219.285272 
C 360.70252 218.988766 360.300315 218.822167 359.880992 218.822167 
C 359.461669 218.822167 359.059464 218.988766 358.762958 219.285272 
C 358.466452 219.581778 358.299853 219.983983 358.299853 220.403306 
C 358.299853 220.822629 358.466452 221.224834 358.762958 221.52134 
C 359.059464 221.817846 359.461669 221.984445 359.880992 221.984445 
z
" clip-path="url(#p6e27ab08e8)" style="fill: #808080; stroke: #808080"/>
    <path d="M 76.165289 221.984445 
C 76.584612 221.984445 76.986817 221.817846 77.283323 221.52134 
C 77.579829 221.224834 77.746428 220.822629 77.746428 220.403306 
C 77.746428 219.983983 77.579829 219.581778 77.283323 219.285272 
C 76.986817 218.988766 76.584612 218.822167 76.165289 218.822167 
C 75.745966 218.822167 75.343761 218.988766 75.047255 219.285272 
C 74.750749 219.581778 74.58415 219.983983 74.58415 220.403306 
C 74.58415 220.822629 74.750749 221.224834 75.047255 221.52134 
C 75.343761 221.817846 75.745966 221.984445 76.165289 221.984445 
z
" clip-path="url(#p6e27ab08e8)" style="fill: #808080; stroke: #808080"/>
    <path d="M 57.123967 221.984445 
C 57.54329 221.984445 57.945495 221.817846 58.242001 221.52134 
C 58.538507 221.224834 58.705106 220.822629 58.705106 220.403306 
C 58.705106 219.983983 58.538507 219.581778 58.242001 219.285272 
C 57.945495 218.988766 57.54329 218.822167 57.123967 218.822167 
C 56.704644 218.822167 56.302439 218.988766 56.005933 219.285272 
C 55.709427 219.581778 55.542828 219.983983 55.542828 220.403306 
C 55.542828 220.822629 55.709427 221.224834 56.005933 221.52134 
C 56.302439 221.817846 56.704644 221.984445 57.123967 221.984445 
z
" clip-path="url(#p6e27ab08e8)" style="fill: #808080; stroke: #808080"/>
    <path d="M 283.715702 221.984445 
C 284.135025 221.984445 284.53723 221.817846 284.833736 221.52134 
C 285.130243 221.224834 285.296841 220.822629 285.296841 220.403306 
C 285.296841 219.983983 285.130243 219.581778 284.833736 219.285272 
C 284.53723 218.988766 284.135025 218.822167 283.715702 218.822167 
C 283.29638 218.822167 282.894175 218.988766 282.597668 219.285272 
C 282.301162 219.581778 282.134564 219.983983 282.134564 220.403306 
C 282.134564 220.822629 282.301162 221.224834 282.597668 221.52134 
C 282.894175 221.817846 283.29638 221.984445 283.715702 221.984445 
z
" clip-path="url(#p6e27ab08e8)" style="fill: #808080; stroke: #808080"/>
    <path d="M 135.193388 221.984445 
C 135.612711 221.984445 136.014916 221.817846 136.311422 221.52134 
C 136.607928 221.224834 136.774527 220.822629 136.774527 220.403306 
C 136.774527 219.983983 136.607928 219.581778 136.311422 219.285272 
C 136.014916 218.988766 135.612711 218.822167 135.193388 218.822167 
C 134.774066 218.822167 134.371861 218.988766 134.075354 219.285272 
C 133.778848 219.581778 133.61225 219.983983 133.61225 220.403306 
C 133.61225 220.822629 133.778848 221.224834 134.075354 221.52134 
C 134.371861 221.817846 134.774066 221.984445 135.193388 221.984445 
z
" clip-path="url(#p6e27ab08e8)" style="fill: #808080; stroke: #808080"/>
    <path d="M 158.042975 221.984445 
C 158.462298 221.984445 158.864503 221.817846 159.161009 221.52134 
C 159.457515 221.224834 159.624114 220.822629 159.624114 220.403306 
C 159.624114 219.983983 159.457515 219.581778 159.161009 219.285272 
C 158.864503 218.988766 158.462298 218.822167 158.042975 218.822167 
C 157.623652 218.822167 157.221447 218.988766 156.924941 219.285272 
C 156.628435 219.581778 156.461836 219.983983 156.461836 220.403306 
C 156.461836 220.822629 156.628435 221.224834 156.924941 221.52134 
C 157.221447 221.817846 157.623652 221.984445 158.042975 221.984445 
z
" clip-path="url(#p6e27ab08e8)" style="fill: #808080; stroke: #808080"/>
    <path d="M 60.932231 221.984445 
C 61.351554 221.984445 61.753759 221.817846 62.050265 221.52134 
C 62.346771 221.224834 62.51337 220.822629 62.51337 220.403306 
C 62.51337 219.983983 62.346771 219.581778 62.050265 219.285272 
C 61.753759 218.988766 61.351554 218.822167 60.932231 218.822167 
C 60.512908 218.822167 60.110703 218.988766 59.814197 219.285272 
C 59.517691 219.581778 59.351093 219.983983 59.351093 220.403306 
C 59.351093 220.822629 59.517691 221.224834 59.814197 221.52134 
C 60.110703 221.817846 60.512908 221.984445 60.932231 221.984445 
z
" clip-path="url(#p6e27ab08e8)" style="fill: #808080; stroke: #808080"/>
    <path d="M 165.659504 221.984445 
C 166.078827 221.984445 166.481032 221.817846 166.777538 221.52134 
C 167.074044 221.224834 167.240643 220.822629 167.240643 220.403306 
C 167.240643 219.983983 167.074044 219.581778 166.777538 219.285272 
C 166.481032 218.988766 166.078827 218.822167 165.659504 218.822167 
C 165.240181 218.822167 164.837976 218.988766 164.54147 219.285272 
C 164.244964 219.581778 164.078365 219.983983 164.078365 220.403306 
C 164.078365 220.822629 164.244964 221.224834 164.54147 221.52134 
C 164.837976 221.817846 165.240181 221.984445 165.659504 221.984445 
z
" clip-path="url(#p6e27ab08e8)" style="fill: #808080; stroke: #808080"/>
   </g>
  </g>
 </g>
 <defs>
  <clipPath id="p6e27ab08e8">
   <rect x="0" y="0" width="460.8" height="345.6"/>
  </clipPath>
 </defs>
</svg>
