<?xml version="1.0" encoding="utf-8" standalone="no"?>
<!DOCTYPE svg PUBLIC "-//W3C//DTD SVG 1.1//EN"
  "http://www.w3.org/Graphics/SVG/1.1/DTD/svg11.dtd">
<svg xmlns:xlink="http://www.w3.org/1999/xlink" width="460.8pt" height="345.6pt" viewBox="0 0 460.8 345.6" xmlns="http://www.w3.org/2000/svg" version="1.1">
 <metadata>
  <rdf:RDF xmlns:dc="http://purl.org/dc/elements/1.1/" xmlns:cc="http://creativecommons.org/ns#" xmlns:rdf="http://www.w3.org/1999/02/22-rdf-syntax-ns#">
   <cc:Work>
    <dc:type rdf:resource="http://purl.org/dc/dcmitype/StillImage"/>
    <dc:date>2023-12-14T10:56:30.359615</dc:date>
    <dc:format>image/svg+xml</dc:format>
    <dc:creator>
     <cc:Agent>
      <dc:title>Matplotlib v3.8.2, https://matplotlib.org/</dc:title>
     </cc:Agent>
    </dc:creator>
   </cc:Work>
  </rdf:RDF>
 </metadata>
 <defs>
  <style type="text/css">*{stroke-linejoin: round; stroke-linecap: butt}</style>
 </defs>
 <g id="figure_1">
  <g id="patch_1">
   <path d="M 0 345.6 
L 460.8 345.6 
L 460.8 0 
L 0 0 
z
" style="fill: #ffffff"/>
  </g>
  <g id="axes_1">
   <g id="LineCollection_1">
    <path d="M 230.4 29.990083 
L 39.986777 101.395041 
" clip-path="url(#p001cbe9323)" style="fill: none; stroke: #d3d3d3"/>
    <path d="M 230.4 29.990083 
L 55.219835 101.395041 
" clip-path="url(#p001cbe9323)" style="fill: none; stroke: #d3d3d3"/>
    <path d="M 230.4 29.990083 
L 70.452893 101.395041 
" clip-path="url(#p001cbe9323)" style="fill: none; stroke: #d3d3d3"/>
    <path d="M 230.4 29.990083 
L 85.68595 101.395041 
" clip-path="url(#p001cbe9323)" style="fill: none; stroke: #d3d3d3"/>
    <path d="M 230.4 29.990083 
L 100.919008 101.395041 
" clip-path="url(#p001cbe9323)" style="fill: none; stroke: #d3d3d3"/>
    <path d="M 230.4 29.990083 
L 116.152066 101.395041 
" clip-path="url(#p001cbe9323)" style="fill: none; stroke: #d3d3d3"/>
    <path d="M 230.4 29.990083 
L 131.385124 101.395041 
" clip-path="url(#p001cbe9323)" style="fill: none; stroke: #d3d3d3"/>
    <path d="M 230.4 29.990083 
L 146.618182 101.395041 
" clip-path="url(#p001cbe9323)" style="fill: none; stroke: #d3d3d3"/>
    <path d="M 230.4 29.990083 
L 161.85124 101.395041 
" clip-path="url(#p001cbe9323)" style="fill: none; stroke: #d3d3d3"/>
    <path d="M 230.4 29.990083 
L 177.084298 101.395041 
" clip-path="url(#p001cbe9323)" style="fill: none; stroke: #d3d3d3"/>
    <path d="M 230.4 29.990083 
L 192.317355 101.395041 
" clip-path="url(#p001cbe9323)" style="fill: none; stroke: #d3d3d3"/>
    <path d="M 230.4 29.990083 
L 207.550413 101.395041 
" clip-path="url(#p001cbe9323)" style="fill: none; stroke: #d3d3d3"/>
    <path d="M 230.4 29.990083 
L 222.783471 101.395041 
" clip-path="url(#p001cbe9323)" style="fill: none; stroke: #d3d3d3"/>
    <path d="M 230.4 29.990083 
L 238.016529 101.395041 
" clip-path="url(#p001cbe9323)" style="fill: none; stroke: #d3d3d3"/>
    <path d="M 230.4 29.990083 
L 253.249587 101.395041 
" clip-path="url(#p001cbe9323)" style="fill: none; stroke: #d3d3d3"/>
    <path d="M 230.4 29.990083 
L 268.482645 101.395041 
" clip-path="url(#p001cbe9323)" style="fill: none; stroke: #d3d3d3"/>
    <path d="M 230.4 29.990083 
L 283.715702 101.395041 
" clip-path="url(#p001cbe9323)" style="fill: none; stroke: #d3d3d3"/>
    <path d="M 230.4 29.990083 
L 298.94876 101.395041 
" clip-path="url(#p001cbe9323)" style="fill: none; stroke: #d3d3d3"/>
    <path d="M 230.4 29.990083 
L 314.181818 101.395041 
" clip-path="url(#p001cbe9323)" style="fill: none; stroke: #d3d3d3"/>
    <path d="M 230.4 29.990083 
L 329.414876 101.395041 
" clip-path="url(#p001cbe9323)" style="fill: none; stroke: #d3d3d3"/>
    <path d="M 230.4 29.990083 
L 344.647934 101.395041 
" clip-path="url(#p001cbe9323)" style="fill: none; stroke: #d3d3d3"/>
    <path d="M 230.4 29.990083 
L 359.880992 101.395041 
" clip-path="url(#p001cbe9323)" style="fill: none; stroke: #d3d3d3"/>
    <path d="M 230.4 29.990083 
L 375.11405 101.395041 
" clip-path="url(#p001cbe9323)" style="fill: none; stroke: #d3d3d3"/>
    <path d="M 230.4 29.990083 
L 390.347107 101.395041 
" clip-path="url(#p001cbe9323)" style="fill: none; stroke: #d3d3d3"/>
    <path d="M 230.4 29.990083 
L 405.580165 101.395041 
" clip-path="url(#p001cbe9323)" style="fill: none; stroke: #d3d3d3"/>
    <path d="M 230.4 29.990083 
L 420.813223 101.395041 
" clip-path="url(#p001cbe9323)" style="fill: none; stroke: #d3d3d3"/>
    <path d="M 70.452893 101.395041 
L 70.452893 172.8 
" clip-path="url(#p001cbe9323)" style="fill: none; stroke: #d3d3d3"/>
    <path d="M 85.68595 101.395041 
L 85.68595 172.8 
" clip-path="url(#p001cbe9323)" style="fill: none; stroke: #d3d3d3"/>
    <path d="M 100.919008 101.395041 
L 97.110744 172.8 
" clip-path="url(#p001cbe9323)" style="fill: none; stroke: #d3d3d3"/>
    <path d="M 100.919008 101.395041 
L 104.727273 172.8 
" clip-path="url(#p001cbe9323)" style="fill: none; stroke: #d3d3d3"/>
    <path d="M 116.152066 101.395041 
L 111.07438 172.8 
" clip-path="url(#p001cbe9323)" style="fill: none; stroke: #d3d3d3"/>
    <path d="M 116.152066 101.395041 
L 116.152066 172.8 
" clip-path="url(#p001cbe9323)" style="fill: none; stroke: #d3d3d3"/>
    <path d="M 116.152066 101.395041 
L 121.229752 172.8 
" clip-path="url(#p001cbe9323)" style="fill: none; stroke: #d3d3d3"/>
    <path d="M 146.618182 101.395041 
L 146.618182 172.8 
" clip-path="url(#p001cbe9323)" style="fill: none; stroke: #d3d3d3"/>
    <path d="M 192.317355 101.395041 
L 192.317355 172.8 
" clip-path="url(#p001cbe9323)" style="fill: none; stroke: #d3d3d3"/>
    <path d="M 238.016529 101.395041 
L 238.016529 172.8 
" clip-path="url(#p001cbe9323)" style="fill: none; stroke: #d3d3d3"/>
    <path d="M 253.249587 101.395041 
L 249.441322 172.8 
" clip-path="url(#p001cbe9323)" style="fill: none; stroke: #d3d3d3"/>
    <path d="M 253.249587 101.395041 
L 257.057851 172.8 
" clip-path="url(#p001cbe9323)" style="fill: none; stroke: #d3d3d3"/>
    <path d="M 268.482645 101.395041 
L 268.482645 172.8 
" clip-path="url(#p001cbe9323)" style="fill: none; stroke: #d3d3d3"/>
    <path d="M 283.715702 101.395041 
L 279.907438 172.8 
" clip-path="url(#p001cbe9323)" style="fill: none; stroke: #d3d3d3"/>
    <path d="M 283.715702 101.395041 
L 287.523967 172.8 
" clip-path="url(#p001cbe9323)" style="fill: none; stroke: #d3d3d3"/>
    <path d="M 329.414876 101.395041 
L 329.414876 172.8 
" clip-path="url(#p001cbe9323)" style="fill: none; stroke: #d3d3d3"/>
    <path d="M 344.647934 101.395041 
L 344.647934 172.8 
" clip-path="url(#p001cbe9323)" style="fill: none; stroke: #d3d3d3"/>
    <path d="M 359.880992 101.395041 
L 359.880992 172.8 
" clip-path="url(#p001cbe9323)" style="fill: none; stroke: #d3d3d3"/>
    <path d="M 111.07438 172.8 
L 111.07438 244.204959 
" clip-path="url(#p001cbe9323)" style="fill: none; stroke: #d3d3d3"/>
    <path d="M 85.68595 172.8 
L 81.877686 244.204959 
" clip-path="url(#p001cbe9323)" style="fill: none; stroke: #d3d3d3"/>
    <path d="M 85.68595 172.8 
L 89.494215 244.204959 
" clip-path="url(#p001cbe9323)" style="fill: none; stroke: #d3d3d3"/>
    <path d="M 70.452893 172.8 
L 70.452893 244.204959 
" clip-path="url(#p001cbe9323)" style="fill: none; stroke: #d3d3d3"/>
    <path d="M 81.877686 244.204959 
L 81.877686 315.609917 
" clip-path="url(#p001cbe9323)" style="fill: none; stroke: #d3d3d3"/>
   </g>
   <g id="PathCollection_1">
    <path d="M 230.4 39.073034 
C 232.808827 39.073034 235.119319 38.115997 236.822616 36.412699 
C 238.525914 34.709401 239.482951 32.398909 239.482951 29.990083 
C 239.482951 27.581256 238.525914 25.270764 236.822616 23.567466 
C 235.119319 21.864169 232.808827 20.907132 230.4 20.907132 
C 227.991173 20.907132 225.680681 21.864169 223.977384 23.567466 
C 222.274086 25.270764 221.317049 27.581256 221.317049 29.990083 
C 221.317049 32.398909 222.274086 34.709401 223.977384 36.412699 
C 225.680681 38.115997 227.991173 39.073034 230.4 39.073034 
z
" clip-path="url(#p001cbe9323)" style="fill: #808080; stroke: #808080"/>
    <path d="M 39.986777 104.557319 
C 40.825423 104.557319 41.629833 104.224121 42.222845 103.631109 
C 42.815857 103.038097 43.149055 102.233687 43.149055 101.395041 
C 43.149055 100.556395 42.815857 99.751986 42.222845 99.158973 
C 41.629833 98.565961 40.825423 98.232764 39.986777 98.232764 
C 39.148131 98.232764 38.343721 98.565961 37.750709 99.158973 
C 37.157697 99.751986 36.824499 100.556395 36.824499 101.395041 
C 36.824499 102.233687 37.157697 103.038097 37.750709 103.631109 
C 38.343721 104.224121 39.148131 104.557319 39.986777 104.557319 
z
" clip-path="url(#p001cbe9323)" style="fill: #808080; stroke: #808080"/>
    <path d="M 55.219835 104.133654 
C 55.946123 104.133654 56.642763 103.845097 57.156326 103.331533 
C 57.66989 102.817969 57.958447 102.12133 57.958447 101.395041 
C 57.958447 100.668753 57.66989 99.972113 57.156326 99.45855 
C 56.642763 98.944986 55.946123 98.656429 55.219835 98.656429 
C 54.493546 98.656429 53.796907 98.944986 53.283343 99.45855 
C 52.769779 99.972113 52.481222 100.668753 52.481222 101.395041 
C 52.481222 102.12133 52.769779 102.817969 53.283343 103.331533 
C 53.796907 103.845097 54.493546 104.133654 55.219835 104.133654 
z
" clip-path="url(#p001cbe9323)" style="fill: #808080; stroke: #808080"/>
    <path d="M 70.452893 105.867177 
C 71.638917 105.867177 72.776524 105.395965 73.61517 104.557319 
C 74.453816 103.718673 74.925029 102.581066 74.925029 101.395041 
C 74.925029 100.209017 74.453816 99.07141 73.61517 98.232764 
C 72.776524 97.394118 71.638917 96.922905 70.452893 96.922905 
C 69.266868 96.922905 68.129261 97.394118 67.290615 98.232764 
C 66.451969 99.07141 65.980757 100.209017 65.980757 101.395041 
C 65.980757 102.581066 66.451969 103.718673 67.290615 104.557319 
C 68.129261 105.395965 69.266868 105.867177 70.452893 105.867177 
z
" clip-path="url(#p001cbe9323)" style="fill: #808080; stroke: #808080"/>
    <path d="M 85.68595 106.395041 
C 87.011966 106.395041 88.28385 105.86821 89.221484 104.930575 
C 90.159119 103.992941 90.68595 102.721057 90.68595 101.395041 
C 90.68595 100.069026 90.159119 98.797142 89.221484 97.859507 
C 88.28385 96.921873 87.011966 96.395041 85.68595 96.395041 
C 84.359935 96.395041 83.088051 96.921873 82.150417 97.859507 
C 81.212782 98.797142 80.68595 100.069026 80.68595 101.395041 
C 80.68595 102.721057 81.212782 103.992941 82.150417 104.930575 
C 83.088051 105.86821 84.359935 106.395041 85.68595 106.395041 
z
" clip-path="url(#p001cbe9323)" style="fill: #808080; stroke: #808080"/>
    <path d="M 100.919008 104.930575 
C 101.856643 104.930575 102.756001 104.558049 103.419008 103.895041 
C 104.082016 103.232034 104.454542 102.332676 104.454542 101.395041 
C 104.454542 100.457407 104.082016 99.558049 103.419008 98.895041 
C 102.756001 98.232034 101.856643 97.859507 100.919008 97.859507 
C 99.981374 97.859507 99.082016 98.232034 98.419008 98.895041 
C 97.756001 99.558049 97.383474 100.457407 97.383474 101.395041 
C 97.383474 102.332676 97.756001 103.232034 98.419008 103.895041 
C 99.082016 104.558049 99.981374 104.930575 100.919008 104.930575 
z
" clip-path="url(#p001cbe9323)" style="fill: #808080; stroke: #808080"/>
    <path d="M 116.152066 104.930575 
C 117.089701 104.930575 117.989058 104.558049 118.652066 103.895041 
C 119.315074 103.232034 119.6876 102.332676 119.6876 101.395041 
C 119.6876 100.457407 119.315074 99.558049 118.652066 98.895041 
C 117.989058 98.232034 117.089701 97.859507 116.152066 97.859507 
C 115.214432 97.859507 114.315074 98.232034 113.652066 98.895041 
C 112.989058 99.558049 112.616532 100.457407 112.616532 101.395041 
C 112.616532 102.332676 112.989058 103.232034 113.652066 103.895041 
C 114.315074 104.558049 115.214432 104.930575 116.152066 104.930575 
z
" clip-path="url(#p001cbe9323)" style="fill: #808080; stroke: #808080"/>
    <path d="M 131.385124 105.867177 
C 132.571148 105.867177 133.708756 105.395965 134.547402 104.557319 
C 135.386047 103.718673 135.85726 102.581066 135.85726 101.395041 
C 135.85726 100.209017 135.386047 99.07141 134.547402 98.232764 
C 133.708756 97.394118 132.571148 96.922905 131.385124 96.922905 
C 130.1991 96.922905 129.061492 97.394118 128.222846 98.232764 
C 127.3842 99.07141 126.912988 100.209017 126.912988 101.395041 
C 126.912988 102.581066 127.3842 103.718673 128.222846 104.557319 
C 129.061492 105.395965 130.1991 105.867177 131.385124 105.867177 
z
" clip-path="url(#p001cbe9323)" style="fill: #808080; stroke: #808080"/>
    <path d="M 146.618182 104.133654 
C 147.34447 104.133654 148.04111 103.845097 148.554673 103.331533 
C 149.068237 102.817969 149.356795 102.12133 149.356795 101.395041 
C 149.356795 100.668753 149.068237 99.972113 148.554673 99.45855 
C 148.04111 98.944986 147.34447 98.656429 146.618182 98.656429 
C 145.891893 98.656429 145.195254 98.944986 144.68169 99.45855 
C 144.168127 99.972113 143.879569 100.668753 143.879569 101.395041 
C 143.879569 102.12133 144.168127 102.817969 144.68169 103.331533 
C 145.195254 103.845097 145.891893 104.133654 146.618182 104.133654 
z
" clip-path="url(#p001cbe9323)" style="fill: #808080; stroke: #808080"/>
    <path d="M 161.85124 103.631109 
C 162.444252 103.631109 163.013056 103.395503 163.432378 102.97618 
C 163.851701 102.556857 164.087308 101.988053 164.087308 101.395041 
C 164.087308 100.802029 163.851701 100.233225 163.432378 99.813902 
C 163.013056 99.39458 162.444252 99.158973 161.85124 99.158973 
C 161.258228 99.158973 160.689424 99.39458 160.270101 99.813902 
C 159.850778 100.233225 159.615172 100.802029 159.615172 101.395041 
C 159.615172 101.988053 159.850778 102.556857 160.270101 102.97618 
C 160.689424 103.395503 161.258228 103.631109 161.85124 103.631109 
z
" clip-path="url(#p001cbe9323)" style="fill: #808080; stroke: #808080"/>
    <path d="M 177.084298 105.268025 
C 178.111425 105.268025 179.096622 104.859943 179.82291 104.133654 
C 180.549199 103.407366 180.957281 102.422169 180.957281 101.395041 
C 180.957281 100.367914 180.549199 99.382717 179.82291 98.656429 
C 179.096622 97.93014 178.111425 97.522058 177.084298 97.522058 
C 176.05717 97.522058 175.071973 97.93014 174.345685 98.656429 
C 173.619396 99.382717 173.211314 100.367914 173.211314 101.395041 
C 173.211314 102.422169 173.619396 103.407366 174.345685 104.133654 
C 175.071973 104.859943 176.05717 105.268025 177.084298 105.268025 
z
" clip-path="url(#p001cbe9323)" style="fill: #808080; stroke: #808080"/>
    <path d="M 192.317355 101.395041 
C 192.317355 101.395041 192.317355 101.395041 192.317355 101.395041 
C 192.317355 101.395041 192.317355 101.395041 192.317355 101.395041 
C 192.317355 101.395041 192.317355 101.395041 192.317355 101.395041 
C 192.317355 101.395041 192.317355 101.395041 192.317355 101.395041 
C 192.317355 101.395041 192.317355 101.395041 192.317355 101.395041 
C 192.317355 101.395041 192.317355 101.395041 192.317355 101.395041 
C 192.317355 101.395041 192.317355 101.395041 192.317355 101.395041 
C 192.317355 101.395041 192.317355 101.395041 192.317355 101.395041 
z
" clip-path="url(#p001cbe9323)" style="fill: #808080; stroke: #808080"/>
    <path d="M 207.550413 102.97618 
C 207.969736 102.97618 208.371941 102.809581 208.668447 102.513075 
C 208.964953 102.216569 209.131552 101.814364 209.131552 101.395041 
C 209.131552 100.975718 208.964953 100.573513 208.668447 100.277007 
C 208.371941 99.980501 207.969736 99.813902 207.550413 99.813902 
C 207.13109 99.813902 206.728885 99.980501 206.432379 100.277007 
C 206.135873 100.573513 205.969274 100.975718 205.969274 101.395041 
C 205.969274 101.814364 206.135873 102.216569 206.432379 102.513075 
C 206.728885 102.809581 207.13109 102.97618 207.550413 102.97618 
z
" clip-path="url(#p001cbe9323)" style="fill: #808080; stroke: #808080"/>
    <path d="M 222.783471 104.557319 
C 223.622117 104.557319 224.426527 104.224121 225.019539 103.631109 
C 225.612551 103.038097 225.945749 102.233687 225.945749 101.395041 
C 225.945749 100.556395 225.612551 99.751986 225.019539 99.158973 
C 224.426527 98.565961 223.622117 98.232764 222.783471 98.232764 
C 221.944825 98.232764 221.140415 98.565961 220.547403 99.158973 
C 219.954391 99.751986 219.621193 100.556395 219.621193 101.395041 
C 219.621193 102.233687 219.954391 103.038097 220.547403 103.631109 
C 221.140415 104.224121 221.944825 104.557319 222.783471 104.557319 
z
" clip-path="url(#p001cbe9323)" style="fill: #808080; stroke: #808080"/>
    <path d="M 238.016529 103.631109 
C 238.609541 103.631109 239.178345 103.395503 239.597668 102.97618 
C 240.016991 102.556857 240.252597 101.988053 240.252597 101.395041 
C 240.252597 100.802029 240.016991 100.233225 239.597668 99.813902 
C 239.178345 99.39458 238.609541 99.158973 238.016529 99.158973 
C 237.423517 99.158973 236.854713 99.39458 236.43539 99.813902 
C 236.016067 100.233225 235.780461 100.802029 235.780461 101.395041 
C 235.780461 101.988053 236.016067 102.556857 236.43539 102.97618 
C 236.854713 103.395503 237.423517 103.631109 238.016529 103.631109 
z
" clip-path="url(#p001cbe9323)" style="fill: #808080; stroke: #808080"/>
    <path d="M 253.249587 105.578341 
C 254.359011 105.578341 255.423145 105.137563 256.207627 104.353081 
C 256.992108 103.5686 257.432887 102.504465 257.432887 101.395041 
C 257.432887 100.285617 256.992108 99.221483 256.207627 98.437001 
C 255.423145 97.65252 254.359011 97.211741 253.249587 97.211741 
C 252.140163 97.211741 251.076028 97.65252 250.291547 98.437001 
C 249.507066 99.221483 249.066287 100.285617 249.066287 101.395041 
C 249.066287 102.504465 249.507066 103.5686 250.291547 104.353081 
C 251.076028 105.137563 252.140163 105.578341 253.249587 105.578341 
z
" clip-path="url(#p001cbe9323)" style="fill: #808080; stroke: #808080"/>
    <path d="M 268.482645 105.268025 
C 269.509772 105.268025 270.494969 104.859943 271.221257 104.133654 
C 271.947546 103.407366 272.355628 102.422169 272.355628 101.395041 
C 272.355628 100.367914 271.947546 99.382717 271.221257 98.656429 
C 270.494969 97.93014 269.509772 97.522058 268.482645 97.522058 
C 267.455517 97.522058 266.47032 97.93014 265.744032 98.656429 
C 265.017743 99.382717 264.609661 100.367914 264.609661 101.395041 
C 264.609661 102.422169 265.017743 103.407366 265.744032 104.133654 
C 266.47032 104.859943 267.455517 105.268025 268.482645 105.268025 
z
" clip-path="url(#p001cbe9323)" style="fill: #808080; stroke: #808080"/>
    <path d="M 283.715702 104.133654 
C 284.441991 104.133654 285.138631 103.845097 285.652194 103.331533 
C 286.165758 102.817969 286.454315 102.12133 286.454315 101.395041 
C 286.454315 100.668753 286.165758 99.972113 285.652194 99.45855 
C 285.138631 98.944986 284.441991 98.656429 283.715702 98.656429 
C 282.989414 98.656429 282.292774 98.944986 281.779211 99.45855 
C 281.265647 99.972113 280.97709 100.668753 280.97709 101.395041 
C 280.97709 102.12133 281.265647 102.817969 281.779211 103.331533 
C 282.292774 103.845097 282.989414 104.133654 283.715702 104.133654 
z
" clip-path="url(#p001cbe9323)" style="fill: #808080; stroke: #808080"/>
    <path d="M 298.94876 106.138458 
C 300.206729 106.138458 301.413344 105.638662 302.302862 104.749143 
C 303.192381 103.859625 303.692177 102.65301 303.692177 101.395041 
C 303.692177 100.137073 303.192381 98.930458 302.302862 98.040939 
C 301.413344 97.151421 300.206729 96.651625 298.94876 96.651625 
C 297.690792 96.651625 296.484177 97.151421 295.594658 98.040939 
C 294.70514 98.930458 294.205344 100.137073 294.205344 101.395041 
C 294.205344 102.65301 294.70514 103.859625 295.594658 104.749143 
C 296.484177 105.638662 297.690792 106.138458 298.94876 106.138458 
z
" clip-path="url(#p001cbe9323)" style="fill: #808080; stroke: #808080"/>
    <path d="M 314.181818 106.138458 
C 315.439787 106.138458 316.646402 105.638662 317.53592 104.749143 
C 318.425438 103.859625 318.925235 102.65301 318.925235 101.395041 
C 318.925235 100.137073 318.425438 98.930458 317.53592 98.040939 
C 316.646402 97.151421 315.439787 96.651625 314.181818 96.651625 
C 312.923849 96.651625 311.717234 97.151421 310.827716 98.040939 
C 309.938198 98.930458 309.438402 100.137073 309.438402 101.395041 
C 309.438402 102.65301 309.938198 103.859625 310.827716 104.749143 
C 311.717234 105.638662 312.923849 106.138458 314.181818 106.138458 
z
" clip-path="url(#p001cbe9323)" style="fill: #808080; stroke: #808080"/>
    <path d="M 329.414876 104.930575 
C 330.352511 104.930575 331.251868 104.558049 331.914876 103.895041 
C 332.577884 103.232034 332.95041 102.332676 332.95041 101.395041 
C 332.95041 100.457407 332.577884 99.558049 331.914876 98.895041 
C 331.251868 98.232034 330.352511 97.859507 329.414876 97.859507 
C 328.477241 97.859507 327.577884 98.232034 326.914876 98.895041 
C 326.251868 99.558049 325.879342 100.457407 325.879342 101.395041 
C 325.879342 102.332676 326.251868 103.232034 326.914876 103.895041 
C 327.577884 104.558049 328.477241 104.930575 329.414876 104.930575 
z
" clip-path="url(#p001cbe9323)" style="fill: #808080; stroke: #808080"/>
    <path d="M 344.647934 105.268025 
C 345.675061 105.268025 346.660258 104.859943 347.386547 104.133654 
C 348.112835 103.407366 348.520917 102.422169 348.520917 101.395041 
C 348.520917 100.367914 348.112835 99.382717 347.386547 98.656429 
C 346.660258 97.93014 345.675061 97.522058 344.647934 97.522058 
C 343.620807 97.522058 342.63561 97.93014 341.909321 98.656429 
C 341.183032 99.382717 340.774951 100.367914 340.774951 101.395041 
C 340.774951 102.422169 341.183032 103.407366 341.909321 104.133654 
C 342.63561 104.859943 343.620807 105.268025 344.647934 105.268025 
z
" clip-path="url(#p001cbe9323)" style="fill: #808080; stroke: #808080"/>
    <path d="M 192.317355 174.381139 
C 192.736678 174.381139 193.138883 174.21454 193.435389 173.918034 
C 193.731895 173.621528 193.898494 173.219323 193.898494 172.8 
C 193.898494 172.380677 193.731895 171.978472 193.435389 171.681966 
C 193.138883 171.38546 192.736678 171.218861 192.317355 171.218861 
C 191.898032 171.218861 191.495827 171.38546 191.199321 171.681966 
C 190.902815 171.978472 190.736217 172.380677 190.736217 172.8 
C 190.736217 173.219323 190.902815 173.621528 191.199321 173.918034 
C 191.495827 174.21454 191.898032 174.381139 192.317355 174.381139 
z
" clip-path="url(#p001cbe9323)" style="fill: #808080; stroke: #808080"/>
    <path d="M 238.016529 174.381139 
C 238.435852 174.381139 238.838057 174.21454 239.134563 173.918034 
C 239.431069 173.621528 239.597668 173.219323 239.597668 172.8 
C 239.597668 172.380677 239.431069 171.978472 239.134563 171.681966 
C 238.838057 171.38546 238.435852 171.218861 238.016529 171.218861 
C 237.597206 171.218861 237.195001 171.38546 236.898495 171.681966 
C 236.601989 171.978472 236.43539 172.380677 236.43539 172.8 
C 236.43539 173.219323 236.601989 173.621528 236.898495 173.918034 
C 237.195001 174.21454 237.597206 174.381139 238.016529 174.381139 
z
" clip-path="url(#p001cbe9323)" style="fill: #808080; stroke: #808080"/>
    <path d="M 359.880992 104.133654 
C 360.60728 104.133654 361.30392 103.845097 361.817483 103.331533 
C 362.331047 102.817969 362.619605 102.12133 362.619605 101.395041 
C 362.619605 100.668753 362.331047 99.972113 361.817483 99.45855 
C 361.30392 98.944986 360.60728 98.656429 359.880992 98.656429 
C 359.154703 98.656429 358.458064 98.944986 357.9445 99.45855 
C 357.430936 99.972113 357.142379 100.668753 357.142379 101.395041 
C 357.142379 102.12133 357.430936 102.817969 357.9445 103.331533 
C 358.458064 103.845097 359.154703 104.133654 359.880992 104.133654 
z
" clip-path="url(#p001cbe9323)" style="fill: #808080; stroke: #808080"/>
    <path d="M 375.11405 105.268025 
C 376.141177 105.268025 377.126374 104.859943 377.852662 104.133654 
C 378.578951 103.407366 378.987033 102.422169 378.987033 101.395041 
C 378.987033 100.367914 378.578951 99.382717 377.852662 98.656429 
C 377.126374 97.93014 376.141177 97.522058 375.11405 97.522058 
C 374.086922 97.522058 373.101725 97.93014 372.375437 98.656429 
C 371.649148 99.382717 371.241066 100.367914 371.241066 101.395041 
C 371.241066 102.422169 371.649148 103.407366 372.375437 104.133654 
C 373.101725 104.859943 374.086922 105.268025 375.11405 105.268025 
z
" clip-path="url(#p001cbe9323)" style="fill: #808080; stroke: #808080"/>
    <path d="M 390.347107 103.631109 
C 390.94012 103.631109 391.508923 103.395503 391.928246 102.97618 
C 392.347569 102.556857 392.583175 101.988053 392.583175 101.395041 
C 392.583175 100.802029 392.347569 100.233225 391.928246 99.813902 
C 391.508923 99.39458 390.94012 99.158973 390.347107 99.158973 
C 389.754095 99.158973 389.185292 99.39458 388.765969 99.813902 
C 388.346646 100.233225 388.111039 100.802029 388.111039 101.395041 
C 388.111039 101.988053 388.346646 102.556857 388.765969 102.97618 
C 389.185292 103.395503 389.754095 103.631109 390.347107 103.631109 
z
" clip-path="url(#p001cbe9323)" style="fill: #808080; stroke: #808080"/>
    <path d="M 405.580165 104.557319 
C 406.418811 104.557319 407.223221 104.224121 407.816233 103.631109 
C 408.409245 103.038097 408.742443 102.233687 408.742443 101.395041 
C 408.742443 100.556395 408.409245 99.751986 407.816233 99.158973 
C 407.223221 98.565961 406.418811 98.232764 405.580165 98.232764 
C 404.741519 98.232764 403.937109 98.565961 403.344097 99.158973 
C 402.751085 99.751986 402.417888 100.556395 402.417888 101.395041 
C 402.417888 102.233687 402.751085 103.038097 403.344097 103.631109 
C 403.937109 104.224121 404.741519 104.557319 405.580165 104.557319 
z
" clip-path="url(#p001cbe9323)" style="fill: #808080; stroke: #808080"/>
    <path d="M 111.07438 174.381139 
C 111.493703 174.381139 111.895908 174.21454 112.192414 173.918034 
C 112.48892 173.621528 112.655519 173.219323 112.655519 172.8 
C 112.655519 172.380677 112.48892 171.978472 112.192414 171.681966 
C 111.895908 171.38546 111.493703 171.218861 111.07438 171.218861 
C 110.655057 171.218861 110.252852 171.38546 109.956346 171.681966 
C 109.65984 171.978472 109.493241 172.380677 109.493241 172.8 
C 109.493241 173.219323 109.65984 173.621528 109.956346 173.918034 
C 110.252852 174.21454 110.655057 174.381139 111.07438 174.381139 
z
" clip-path="url(#p001cbe9323)" style="fill: #808080; stroke: #808080"/>
    <path d="M 249.441322 176.335534 
C 250.378957 176.335534 251.278315 175.963008 251.941322 175.3 
C 252.60433 174.636992 252.976856 173.737635 252.976856 172.8 
C 252.976856 171.862365 252.60433 170.963008 251.941322 170.3 
C 251.278315 169.636992 250.378957 169.264466 249.441322 169.264466 
C 248.503688 169.264466 247.60433 169.636992 246.941322 170.3 
C 246.278315 170.963008 245.905788 171.862365 245.905788 172.8 
C 245.905788 173.737635 246.278315 174.636992 246.941322 175.3 
C 247.60433 175.963008 248.503688 176.335534 249.441322 176.335534 
z
" clip-path="url(#p001cbe9323)" style="fill: #808080; stroke: #808080"/>
    <path d="M 279.907438 174.381139 
C 280.326761 174.381139 280.728966 174.21454 281.025472 173.918034 
C 281.321978 173.621528 281.488577 173.219323 281.488577 172.8 
C 281.488577 172.380677 281.321978 171.978472 281.025472 171.681966 
C 280.728966 171.38546 280.326761 171.218861 279.907438 171.218861 
C 279.488115 171.218861 279.08591 171.38546 278.789404 171.681966 
C 278.492898 171.978472 278.326299 172.380677 278.326299 172.8 
C 278.326299 173.219323 278.492898 173.621528 278.789404 173.918034 
C 279.08591 174.21454 279.488115 174.381139 279.907438 174.381139 
z
" clip-path="url(#p001cbe9323)" style="fill: #808080; stroke: #808080"/>
    <path d="M 420.813223 104.133654 
C 421.539512 104.133654 422.236151 103.845097 422.749715 103.331533 
C 423.263278 102.817969 423.551836 102.12133 423.551836 101.395041 
C 423.551836 100.668753 423.263278 99.972113 422.749715 99.45855 
C 422.236151 98.944986 421.539512 98.656429 420.813223 98.656429 
C 420.086935 98.656429 419.390295 98.944986 418.876731 99.45855 
C 418.363168 99.972113 418.07461 100.668753 418.07461 101.395041 
C 418.07461 102.12133 418.363168 102.817969 418.876731 103.331533 
C 419.390295 103.845097 420.086935 104.133654 420.813223 104.133654 
z
" clip-path="url(#p001cbe9323)" style="fill: #808080; stroke: #808080"/>
    <path d="M 85.68595 174.381139 
C 86.105273 174.381139 86.507478 174.21454 86.803984 173.918034 
C 87.10049 173.621528 87.267089 173.219323 87.267089 172.8 
C 87.267089 172.380677 87.10049 171.978472 86.803984 171.681966 
C 86.507478 171.38546 86.105273 171.218861 85.68595 171.218861 
C 85.266627 171.218861 84.864423 171.38546 84.567916 171.681966 
C 84.27141 171.978472 84.104812 172.380677 84.104812 172.8 
C 84.104812 173.219323 84.27141 173.621528 84.567916 173.918034 
C 84.864423 174.21454 85.266627 174.381139 85.68595 174.381139 
z
" clip-path="url(#p001cbe9323)" style="fill: #808080; stroke: #808080"/>
    <path d="M 116.152066 174.381139 
C 116.571389 174.381139 116.973594 174.21454 117.2701 173.918034 
C 117.566606 173.621528 117.733205 173.219323 117.733205 172.8 
C 117.733205 172.380677 117.566606 171.978472 117.2701 171.681966 
C 116.973594 171.38546 116.571389 171.218861 116.152066 171.218861 
C 115.732743 171.218861 115.330538 171.38546 115.034032 171.681966 
C 114.737526 171.978472 114.570927 172.380677 114.570927 172.8 
C 114.570927 173.219323 114.737526 173.621528 115.034032 173.918034 
C 115.330538 174.21454 115.732743 174.381139 116.152066 174.381139 
z
" clip-path="url(#p001cbe9323)" style="fill: #808080; stroke: #808080"/>
    <path d="M 70.452893 172.8 
C 70.452893 172.8 70.452893 172.8 70.452893 172.8 
C 70.452893 172.8 70.452893 172.8 70.452893 172.8 
C 70.452893 172.8 70.452893 172.8 70.452893 172.8 
C 70.452893 172.8 70.452893 172.8 70.452893 172.8 
C 70.452893 172.8 70.452893 172.8 70.452893 172.8 
C 70.452893 172.8 70.452893 172.8 70.452893 172.8 
C 70.452893 172.8 70.452893 172.8 70.452893 172.8 
C 70.452893 172.8 70.452893 172.8 70.452893 172.8 
z
" clip-path="url(#p001cbe9323)" style="fill: #808080; stroke: #808080"/>
    <path d="M 359.880992 174.381139 
C 360.300315 174.381139 360.70252 174.21454 360.999026 173.918034 
C 361.295532 173.621528 361.462131 173.219323 361.462131 172.8 
C 361.462131 172.380677 361.295532 171.978472 360.999026 171.681966 
C 360.70252 171.38546 360.300315 171.218861 359.880992 171.218861 
C 359.461669 171.218861 359.059464 171.38546 358.762958 171.681966 
C 358.466452 171.978472 358.299853 172.380677 358.299853 172.8 
C 358.299853 173.219323 358.466452 173.621528 358.762958 173.918034 
C 359.059464 174.21454 359.461669 174.381139 359.880992 174.381139 
z
" clip-path="url(#p001cbe9323)" style="fill: #808080; stroke: #808080"/>
    <path d="M 81.877686 245.786098 
C 82.297009 245.786098 82.699214 245.619499 82.99572 245.322993 
C 83.292226 245.026487 83.458825 244.624282 83.458825 244.204959 
C 83.458825 243.785636 83.292226 243.383431 82.99572 243.086925 
C 82.699214 242.790419 82.297009 242.62382 81.877686 242.62382 
C 81.458363 242.62382 81.056158 242.790419 80.759652 243.086925 
C 80.463146 243.383431 80.296547 243.785636 80.296547 244.204959 
C 80.296547 244.624282 80.463146 245.026487 80.759652 245.322993 
C 81.056158 245.619499 81.458363 245.786098 81.877686 245.786098 
z
" clip-path="url(#p001cbe9323)" style="fill: #808080; stroke: #808080"/>
    <path d="M 89.494215 245.786098 
C 89.913538 245.786098 90.315743 245.619499 90.612249 245.322993 
C 90.908755 245.026487 91.075354 244.624282 91.075354 244.204959 
C 91.075354 243.785636 90.908755 243.383431 90.612249 243.086925 
C 90.315743 242.790419 89.913538 242.62382 89.494215 242.62382 
C 89.074892 242.62382 88.672687 242.790419 88.376181 243.086925 
C 88.079675 243.383431 87.913076 243.785636 87.913076 244.204959 
C 87.913076 244.624282 88.079675 245.026487 88.376181 245.322993 
C 88.672687 245.619499 89.074892 245.786098 89.494215 245.786098 
z
" clip-path="url(#p001cbe9323)" style="fill: #808080; stroke: #808080"/>
    <path d="M 257.057851 174.381139 
C 257.477174 174.381139 257.879379 174.21454 258.175885 173.918034 
C 258.472391 173.621528 258.63899 173.219323 258.63899 172.8 
C 258.63899 172.380677 258.472391 171.978472 258.175885 171.681966 
C 257.879379 171.38546 257.477174 171.218861 257.057851 171.218861 
C 256.638528 171.218861 256.236323 171.38546 255.939817 171.681966 
C 255.643311 171.978472 255.476712 172.380677 255.476712 172.8 
C 255.476712 173.219323 255.643311 173.621528 255.939817 173.918034 
C 256.236323 174.21454 256.638528 174.381139 257.057851 174.381139 
z
" clip-path="url(#p001cbe9323)" style="fill: #808080; stroke: #808080"/>
    <path d="M 268.482645 174.381139 
C 268.901968 174.381139 269.304173 174.21454 269.600679 173.918034 
C 269.897185 173.621528 270.063783 173.219323 270.063783 172.8 
C 270.063783 172.380677 269.897185 171.978472 269.600679 171.681966 
C 269.304173 171.38546 268.901968 171.218861 268.482645 171.218861 
C 268.063322 171.218861 267.661117 171.38546 267.364611 171.681966 
C 267.068105 171.978472 266.901506 172.380677 266.901506 172.8 
C 266.901506 173.219323 267.068105 173.621528 267.364611 173.918034 
C 267.661117 174.21454 268.063322 174.381139 268.482645 174.381139 
z
" clip-path="url(#p001cbe9323)" style="fill: #808080; stroke: #808080"/>
    <path d="M 329.414876 174.381139 
C 329.834199 174.381139 330.236404 174.21454 330.53291 173.918034 
C 330.829416 173.621528 330.996015 173.219323 330.996015 172.8 
C 330.996015 172.380677 330.829416 171.978472 330.53291 171.681966 
C 330.236404 171.38546 329.834199 171.218861 329.414876 171.218861 
C 328.995553 171.218861 328.593348 171.38546 328.296842 171.681966 
C 328.000336 171.978472 327.833737 172.380677 327.833737 172.8 
C 327.833737 173.219323 328.000336 173.621528 328.296842 173.918034 
C 328.593348 174.21454 328.995553 174.381139 329.414876 174.381139 
z
" clip-path="url(#p001cbe9323)" style="fill: #808080; stroke: #808080"/>
    <path d="M 97.110744 175.036068 
C 97.703756 175.036068 98.27256 174.800462 98.691883 174.381139 
C 99.111206 173.961816 99.346812 173.393012 99.346812 172.8 
C 99.346812 172.206988 99.111206 171.638184 98.691883 171.218861 
C 98.27256 170.799538 97.703756 170.563932 97.110744 170.563932 
C 96.517732 170.563932 95.948928 170.799538 95.529605 171.218861 
C 95.110282 171.638184 94.874676 172.206988 94.874676 172.8 
C 94.874676 173.393012 95.110282 173.961816 95.529605 174.381139 
C 95.948928 174.800462 96.517732 175.036068 97.110744 175.036068 
z
" clip-path="url(#p001cbe9323)" style="fill: #808080; stroke: #808080"/>
    <path d="M 121.229752 174.381139 
C 121.649075 174.381139 122.05128 174.21454 122.347786 173.918034 
C 122.644292 173.621528 122.810891 173.219323 122.810891 172.8 
C 122.810891 172.380677 122.644292 171.978472 122.347786 171.681966 
C 122.05128 171.38546 121.649075 171.218861 121.229752 171.218861 
C 120.810429 171.218861 120.408224 171.38546 120.111718 171.681966 
C 119.815212 171.978472 119.648613 172.380677 119.648613 172.8 
C 119.648613 173.219323 119.815212 173.621528 120.111718 173.918034 
C 120.408224 174.21454 120.810429 174.381139 121.229752 174.381139 
z
" clip-path="url(#p001cbe9323)" style="fill: #808080; stroke: #808080"/>
    <path d="M 146.618182 174.381139 
C 147.037505 174.381139 147.43971 174.21454 147.736216 173.918034 
C 148.032722 173.621528 148.199321 173.219323 148.199321 172.8 
C 148.199321 172.380677 148.032722 171.978472 147.736216 171.681966 
C 147.43971 171.38546 147.037505 171.218861 146.618182 171.218861 
C 146.198859 171.218861 145.796654 171.38546 145.500148 171.681966 
C 145.203642 171.978472 145.037043 172.380677 145.037043 172.8 
C 145.037043 173.219323 145.203642 173.621528 145.500148 173.918034 
C 145.796654 174.21454 146.198859 174.381139 146.618182 174.381139 
z
" clip-path="url(#p001cbe9323)" style="fill: #808080; stroke: #808080"/>
    <path d="M 287.523967 174.381139 
C 287.94329 174.381139 288.345495 174.21454 288.642001 173.918034 
C 288.938507 173.621528 289.105106 173.219323 289.105106 172.8 
C 289.105106 172.380677 288.938507 171.978472 288.642001 171.681966 
C 288.345495 171.38546 287.94329 171.218861 287.523967 171.218861 
C 287.104644 171.218861 286.702439 171.38546 286.405933 171.681966 
C 286.109427 171.978472 285.942828 172.380677 285.942828 172.8 
C 285.942828 173.219323 286.109427 173.621528 286.405933 173.918034 
C 286.702439 174.21454 287.104644 174.381139 287.523967 174.381139 
z
" clip-path="url(#p001cbe9323)" style="fill: #808080; stroke: #808080"/>
    <path d="M 81.877686 317.191056 
C 82.297009 317.191056 82.699214 317.024457 82.99572 316.727951 
C 83.292226 316.431445 83.458825 316.02924 83.458825 315.609917 
C 83.458825 315.190594 83.292226 314.788389 82.99572 314.491883 
C 82.699214 314.195377 82.297009 314.028779 81.877686 314.028779 
C 81.458363 314.028779 81.056158 314.195377 80.759652 314.491883 
C 80.463146 314.788389 80.296547 315.190594 80.296547 315.609917 
C 80.296547 316.02924 80.463146 316.431445 80.759652 316.727951 
C 81.056158 317.024457 81.458363 317.191056 81.877686 317.191056 
z
" clip-path="url(#p001cbe9323)" style="fill: #808080; stroke: #808080"/>
    <path d="M 344.647934 174.381139 
C 345.067257 174.381139 345.469462 174.21454 345.765968 173.918034 
C 346.062474 173.621528 346.229073 173.219323 346.229073 172.8 
C 346.229073 172.380677 346.062474 171.978472 345.765968 171.681966 
C 345.469462 171.38546 345.067257 171.218861 344.647934 171.218861 
C 344.228611 171.218861 343.826406 171.38546 343.5299 171.681966 
C 343.233394 171.978472 343.066795 172.380677 343.066795 172.8 
C 343.066795 173.219323 343.233394 173.621528 343.5299 173.918034 
C 343.826406 174.21454 344.228611 174.381139 344.647934 174.381139 
z
" clip-path="url(#p001cbe9323)" style="fill: #808080; stroke: #808080"/>
    <path d="M 70.452893 245.786098 
C 70.872215 245.786098 71.27442 245.619499 71.570927 245.322993 
C 71.867433 245.026487 72.034031 244.624282 72.034031 244.204959 
C 72.034031 243.785636 71.867433 243.383431 71.570927 243.086925 
C 71.27442 242.790419 70.872215 242.62382 70.452893 242.62382 
C 70.03357 242.62382 69.631365 242.790419 69.334859 243.086925 
C 69.038352 243.383431 68.871754 243.785636 68.871754 244.204959 
C 68.871754 244.624282 69.038352 245.026487 69.334859 245.322993 
C 69.631365 245.619499 70.03357 245.786098 70.452893 245.786098 
z
" clip-path="url(#p001cbe9323)" style="fill: #808080; stroke: #808080"/>
    <path d="M 104.727273 174.381139 
C 105.146596 174.381139 105.548801 174.21454 105.845307 173.918034 
C 106.141813 173.621528 106.308412 173.219323 106.308412 172.8 
C 106.308412 172.380677 106.141813 171.978472 105.845307 171.681966 
C 105.548801 171.38546 105.146596 171.218861 104.727273 171.218861 
C 104.30795 171.218861 103.905745 171.38546 103.609239 171.681966 
C 103.312733 171.978472 103.146134 172.380677 103.146134 172.8 
C 103.146134 173.219323 103.312733 173.621528 103.609239 173.918034 
C 103.905745 174.21454 104.30795 174.381139 104.727273 174.381139 
z
" clip-path="url(#p001cbe9323)" style="fill: #808080; stroke: #808080"/>
    <path d="M 111.07438 245.786098 
C 111.493703 245.786098 111.895908 245.619499 112.192414 245.322993 
C 112.48892 245.026487 112.655519 244.624282 112.655519 244.204959 
C 112.655519 243.785636 112.48892 243.383431 112.192414 243.086925 
C 111.895908 242.790419 111.493703 242.62382 111.07438 242.62382 
C 110.655057 242.62382 110.252852 242.790419 109.956346 243.086925 
C 109.65984 243.383431 109.493241 243.785636 109.493241 244.204959 
C 109.493241 244.624282 109.65984 245.026487 109.956346 245.322993 
C 110.252852 245.619499 110.655057 245.786098 111.07438 245.786098 
z
" clip-path="url(#p001cbe9323)" style="fill: #808080; stroke: #808080"/>
   </g>
  </g>
 </g>
 <defs>
  <clipPath id="p001cbe9323">
   <rect x="0" y="0" width="460.8" height="345.6"/>
  </clipPath>
 </defs>
</svg>
