<?xml version="1.0" encoding="utf-8" standalone="no"?>
<!DOCTYPE svg PUBLIC "-//W3C//DTD SVG 1.1//EN"
  "http://www.w3.org/Graphics/SVG/1.1/DTD/svg11.dtd">
<svg xmlns:xlink="http://www.w3.org/1999/xlink" width="460.8pt" height="345.6pt" viewBox="0 0 460.8 345.6" xmlns="http://www.w3.org/2000/svg" version="1.1">
 <metadata>
  <rdf:RDF xmlns:dc="http://purl.org/dc/elements/1.1/" xmlns:cc="http://creativecommons.org/ns#" xmlns:rdf="http://www.w3.org/1999/02/22-rdf-syntax-ns#">
   <cc:Work>
    <dc:type rdf:resource="http://purl.org/dc/dcmitype/StillImage"/>
    <dc:date>2023-12-14T13:57:41.053648</dc:date>
    <dc:format>image/svg+xml</dc:format>
    <dc:creator>
     <cc:Agent>
      <dc:title>Matplotlib v3.8.2, https://matplotlib.org/</dc:title>
     </cc:Agent>
    </dc:creator>
   </cc:Work>
  </rdf:RDF>
 </metadata>
 <defs>
  <style type="text/css">*{stroke-linejoin: round; stroke-linecap: butt}</style>
 </defs>
 <g id="figure_1">
  <g id="patch_1">
   <path d="M 0 345.6 
L 460.8 345.6 
L 460.8 0 
L 0 0 
z
" style="fill: #ffffff"/>
  </g>
  <g id="axes_1">
   <g id="LineCollection_1">
    <path d="M 233.120189 29.990083 
L 45.427155 101.395041 
" clip-path="url(#pf9da287bcd)" style="fill: none; stroke: #d3d3d3"/>
    <path d="M 233.120189 29.990083 
L 61.748288 101.395041 
" clip-path="url(#pf9da287bcd)" style="fill: none; stroke: #d3d3d3"/>
    <path d="M 233.120189 29.990083 
L 78.069421 101.395041 
" clip-path="url(#pf9da287bcd)" style="fill: none; stroke: #d3d3d3"/>
    <path d="M 233.120189 29.990083 
L 94.390555 101.395041 
" clip-path="url(#pf9da287bcd)" style="fill: none; stroke: #d3d3d3"/>
    <path d="M 233.120189 29.990083 
L 110.711688 101.395041 
" clip-path="url(#pf9da287bcd)" style="fill: none; stroke: #d3d3d3"/>
    <path d="M 233.120189 29.990083 
L 127.032822 101.395041 
" clip-path="url(#pf9da287bcd)" style="fill: none; stroke: #d3d3d3"/>
    <path d="M 233.120189 29.990083 
L 143.353955 101.395041 
" clip-path="url(#pf9da287bcd)" style="fill: none; stroke: #d3d3d3"/>
    <path d="M 233.120189 29.990083 
L 159.675089 101.395041 
" clip-path="url(#pf9da287bcd)" style="fill: none; stroke: #d3d3d3"/>
    <path d="M 233.120189 29.990083 
L 175.996222 101.395041 
" clip-path="url(#pf9da287bcd)" style="fill: none; stroke: #d3d3d3"/>
    <path d="M 233.120189 29.990083 
L 192.317355 101.395041 
" clip-path="url(#pf9da287bcd)" style="fill: none; stroke: #d3d3d3"/>
    <path d="M 233.120189 29.990083 
L 208.638489 101.395041 
" clip-path="url(#pf9da287bcd)" style="fill: none; stroke: #d3d3d3"/>
    <path d="M 233.120189 29.990083 
L 224.959622 101.395041 
" clip-path="url(#pf9da287bcd)" style="fill: none; stroke: #d3d3d3"/>
    <path d="M 233.120189 29.990083 
L 241.280756 101.395041 
" clip-path="url(#pf9da287bcd)" style="fill: none; stroke: #d3d3d3"/>
    <path d="M 233.120189 29.990083 
L 257.601889 101.395041 
" clip-path="url(#pf9da287bcd)" style="fill: none; stroke: #d3d3d3"/>
    <path d="M 233.120189 29.990083 
L 273.923022 101.395041 
" clip-path="url(#pf9da287bcd)" style="fill: none; stroke: #d3d3d3"/>
    <path d="M 233.120189 29.990083 
L 290.244156 101.395041 
" clip-path="url(#pf9da287bcd)" style="fill: none; stroke: #d3d3d3"/>
    <path d="M 233.120189 29.990083 
L 306.565289 101.395041 
" clip-path="url(#pf9da287bcd)" style="fill: none; stroke: #d3d3d3"/>
    <path d="M 233.120189 29.990083 
L 322.886423 101.395041 
" clip-path="url(#pf9da287bcd)" style="fill: none; stroke: #d3d3d3"/>
    <path d="M 233.120189 29.990083 
L 339.207556 101.395041 
" clip-path="url(#pf9da287bcd)" style="fill: none; stroke: #d3d3d3"/>
    <path d="M 233.120189 29.990083 
L 355.528689 101.395041 
" clip-path="url(#pf9da287bcd)" style="fill: none; stroke: #d3d3d3"/>
    <path d="M 233.120189 29.990083 
L 371.849823 101.395041 
" clip-path="url(#pf9da287bcd)" style="fill: none; stroke: #d3d3d3"/>
    <path d="M 233.120189 29.990083 
L 388.170956 101.395041 
" clip-path="url(#pf9da287bcd)" style="fill: none; stroke: #d3d3d3"/>
    <path d="M 233.120189 29.990083 
L 404.49209 101.395041 
" clip-path="url(#pf9da287bcd)" style="fill: none; stroke: #d3d3d3"/>
    <path d="M 233.120189 29.990083 
L 420.813223 101.395041 
" clip-path="url(#pf9da287bcd)" style="fill: none; stroke: #d3d3d3"/>
    <path d="M 45.427155 101.395041 
L 39.986777 172.8 
" clip-path="url(#pf9da287bcd)" style="fill: none; stroke: #d3d3d3"/>
    <path d="M 45.427155 101.395041 
L 45.427155 172.8 
" clip-path="url(#pf9da287bcd)" style="fill: none; stroke: #d3d3d3"/>
    <path d="M 45.427155 101.395041 
L 50.867532 172.8 
" clip-path="url(#pf9da287bcd)" style="fill: none; stroke: #d3d3d3"/>
    <path d="M 61.748288 101.395041 
L 61.748288 172.8 
" clip-path="url(#pf9da287bcd)" style="fill: none; stroke: #d3d3d3"/>
    <path d="M 78.069421 101.395041 
L 78.069421 172.8 
" clip-path="url(#pf9da287bcd)" style="fill: none; stroke: #d3d3d3"/>
    <path d="M 94.390555 101.395041 
L 88.27013 172.8 
" clip-path="url(#pf9da287bcd)" style="fill: none; stroke: #d3d3d3"/>
    <path d="M 94.390555 101.395041 
L 92.350413 172.8 
" clip-path="url(#pf9da287bcd)" style="fill: none; stroke: #d3d3d3"/>
    <path d="M 94.390555 101.395041 
L 96.430697 172.8 
" clip-path="url(#pf9da287bcd)" style="fill: none; stroke: #d3d3d3"/>
    <path d="M 94.390555 101.395041 
L 100.51098 172.8 
" clip-path="url(#pf9da287bcd)" style="fill: none; stroke: #d3d3d3"/>
    <path d="M 110.711688 101.395041 
L 106.631405 172.8 
" clip-path="url(#pf9da287bcd)" style="fill: none; stroke: #d3d3d3"/>
    <path d="M 110.711688 101.395041 
L 114.791972 172.8 
" clip-path="url(#pf9da287bcd)" style="fill: none; stroke: #d3d3d3"/>
    <path d="M 143.353955 101.395041 
L 143.353955 172.8 
" clip-path="url(#pf9da287bcd)" style="fill: none; stroke: #d3d3d3"/>
    <path d="M 175.996222 101.395041 
L 175.996222 172.8 
" clip-path="url(#pf9da287bcd)" style="fill: none; stroke: #d3d3d3"/>
    <path d="M 92.350413 172.8 
L 92.350413 244.204959 
" clip-path="url(#pf9da287bcd)" style="fill: none; stroke: #d3d3d3"/>
    <path d="M 208.638489 101.395041 
L 204.558205 172.8 
" clip-path="url(#pf9da287bcd)" style="fill: none; stroke: #d3d3d3"/>
    <path d="M 208.638489 101.395041 
L 212.718772 172.8 
" clip-path="url(#pf9da287bcd)" style="fill: none; stroke: #d3d3d3"/>
    <path d="M 257.601889 101.395041 
L 253.521606 172.8 
" clip-path="url(#pf9da287bcd)" style="fill: none; stroke: #d3d3d3"/>
    <path d="M 257.601889 101.395041 
L 261.682172 172.8 
" clip-path="url(#pf9da287bcd)" style="fill: none; stroke: #d3d3d3"/>
    <path d="M 290.244156 101.395041 
L 290.244156 172.8 
" clip-path="url(#pf9da287bcd)" style="fill: none; stroke: #d3d3d3"/>
    <path d="M 339.207556 101.395041 
L 335.127273 172.8 
" clip-path="url(#pf9da287bcd)" style="fill: none; stroke: #d3d3d3"/>
    <path d="M 339.207556 101.395041 
L 343.287839 172.8 
" clip-path="url(#pf9da287bcd)" style="fill: none; stroke: #d3d3d3"/>
    <path d="M 106.631405 172.8 
L 106.631405 244.204959 
" clip-path="url(#pf9da287bcd)" style="fill: none; stroke: #d3d3d3"/>
    <path d="M 371.849823 101.395041 
L 371.849823 172.8 
" clip-path="url(#pf9da287bcd)" style="fill: none; stroke: #d3d3d3"/>
    <path d="M 388.170956 101.395041 
L 388.170956 172.8 
" clip-path="url(#pf9da287bcd)" style="fill: none; stroke: #d3d3d3"/>
    <path d="M 290.244156 172.8 
L 290.244156 244.204959 
" clip-path="url(#pf9da287bcd)" style="fill: none; stroke: #d3d3d3"/>
    <path d="M 106.631405 244.204959 
L 104.591263 315.609917 
" clip-path="url(#pf9da287bcd)" style="fill: none; stroke: #d3d3d3"/>
    <path d="M 106.631405 244.204959 
L 108.671547 315.609917 
" clip-path="url(#pf9da287bcd)" style="fill: none; stroke: #d3d3d3"/>
   </g>
   <g id="PathCollection_1">
    <path d="M 233.120189 39.607775 
C 235.670831 39.607775 238.117348 38.594394 239.920924 36.790818 
C 241.7245 34.987242 242.737881 32.540724 242.737881 29.990083 
C 242.737881 27.439441 241.7245 24.992923 239.920924 23.189347 
C 238.117348 21.385771 235.670831 20.372391 233.120189 20.372391 
C 230.569547 20.372391 228.12303 21.385771 226.319454 23.189347 
C 224.515878 24.992923 223.502497 27.439441 223.502497 29.990083 
C 223.502497 32.540724 224.515878 34.987242 226.319454 36.790818 
C 228.12303 38.594394 230.569547 39.607775 233.120189 39.607775 
z
" clip-path="url(#pf9da287bcd)" style="fill: #808080; stroke: #808080"/>
    <path d="M 45.427155 104.557319 
C 46.265801 104.557319 47.07021 104.224121 47.663223 103.631109 
C 48.256235 103.038097 48.589432 102.233687 48.589432 101.395041 
C 48.589432 100.556395 48.256235 99.751986 47.663223 99.158973 
C 47.07021 98.565961 46.265801 98.232764 45.427155 98.232764 
C 44.588509 98.232764 43.784099 98.565961 43.191087 99.158973 
C 42.598075 99.751986 42.264877 100.556395 42.264877 101.395041 
C 42.264877 102.233687 42.598075 103.038097 43.191087 103.631109 
C 43.784099 104.224121 44.588509 104.557319 45.427155 104.557319 
z
" clip-path="url(#pf9da287bcd)" style="fill: #808080; stroke: #808080"/>
    <path d="M 61.748288 104.930575 
C 62.685923 104.930575 63.58528 104.558049 64.248288 103.895041 
C 64.911296 103.232034 65.283822 102.332676 65.283822 101.395041 
C 65.283822 100.457407 64.911296 99.558049 64.248288 98.895041 
C 63.58528 98.232034 62.685923 97.859507 61.748288 97.859507 
C 60.810654 97.859507 59.911296 98.232034 59.248288 98.895041 
C 58.58528 99.558049 58.212754 100.457407 58.212754 101.395041 
C 58.212754 102.332676 58.58528 103.232034 59.248288 103.895041 
C 59.911296 104.558049 60.810654 104.930575 61.748288 104.930575 
z
" clip-path="url(#pf9da287bcd)" style="fill: #808080; stroke: #808080"/>
    <path d="M 78.069421 106.395041 
C 79.395437 106.395041 80.667321 105.86821 81.604955 104.930575 
C 82.54259 103.992941 83.069421 102.721057 83.069421 101.395041 
C 83.069421 100.069026 82.54259 98.797142 81.604955 97.859507 
C 80.667321 96.921873 79.395437 96.395041 78.069421 96.395041 
C 76.743406 96.395041 75.471522 96.921873 74.533888 97.859507 
C 73.596253 98.797142 73.069421 100.069026 73.069421 101.395041 
C 73.069421 102.721057 73.596253 103.992941 74.533888 104.930575 
C 75.471522 105.86821 76.743406 106.395041 78.069421 106.395041 
z
" clip-path="url(#pf9da287bcd)" style="fill: #808080; stroke: #808080"/>
    <path d="M 94.390555 105.867177 
C 95.576579 105.867177 96.714187 105.395965 97.552833 104.557319 
C 98.391478 103.718673 98.862691 102.581066 98.862691 101.395041 
C 98.862691 100.209017 98.391478 99.07141 97.552833 98.232764 
C 96.714187 97.394118 95.576579 96.922905 94.390555 96.922905 
C 93.204531 96.922905 92.066923 97.394118 91.228277 98.232764 
C 90.389631 99.07141 89.918419 100.209017 89.918419 101.395041 
C 89.918419 102.581066 90.389631 103.718673 91.228277 104.557319 
C 92.066923 105.395965 93.204531 105.867177 94.390555 105.867177 
z
" clip-path="url(#pf9da287bcd)" style="fill: #808080; stroke: #808080"/>
    <path d="M 110.711688 105.268025 
C 111.738816 105.268025 112.724012 104.859943 113.450301 104.133654 
C 114.17659 103.407366 114.584672 102.422169 114.584672 101.395041 
C 114.584672 100.367914 114.17659 99.382717 113.450301 98.656429 
C 112.724012 97.93014 111.738816 97.522058 110.711688 97.522058 
C 109.684561 97.522058 108.699364 97.93014 107.973076 98.656429 
C 107.246787 99.382717 106.838705 100.367914 106.838705 101.395041 
C 106.838705 102.422169 107.246787 103.407366 107.973076 104.133654 
C 108.699364 104.859943 109.684561 105.268025 110.711688 105.268025 
z
" clip-path="url(#pf9da287bcd)" style="fill: #808080; stroke: #808080"/>
    <path d="M 127.032822 106.395041 
C 128.358837 106.395041 129.630721 105.86821 130.568356 104.930575 
C 131.50599 103.992941 132.032822 102.721057 132.032822 101.395041 
C 132.032822 100.069026 131.50599 98.797142 130.568356 97.859507 
C 129.630721 96.921873 128.358837 96.395041 127.032822 96.395041 
C 125.706806 96.395041 124.434922 96.921873 123.497288 97.859507 
C 122.559653 98.797142 122.032822 100.069026 122.032822 101.395041 
C 122.032822 102.721057 122.559653 103.992941 123.497288 104.930575 
C 124.434922 105.86821 125.706806 106.395041 127.032822 106.395041 
z
" clip-path="url(#pf9da287bcd)" style="fill: #808080; stroke: #808080"/>
    <path d="M 143.353955 102.97618 
C 143.773278 102.97618 144.175483 102.809581 144.471989 102.513075 
C 144.768495 102.216569 144.935094 101.814364 144.935094 101.395041 
C 144.935094 100.975718 144.768495 100.573513 144.471989 100.277007 
C 144.175483 99.980501 143.773278 99.813902 143.353955 99.813902 
C 142.934632 99.813902 142.532427 99.980501 142.235921 100.277007 
C 141.939415 100.573513 141.772816 100.975718 141.772816 101.395041 
C 141.772816 101.814364 141.939415 102.216569 142.235921 102.513075 
C 142.532427 102.809581 142.934632 102.97618 143.353955 102.97618 
z
" clip-path="url(#pf9da287bcd)" style="fill: #808080; stroke: #808080"/>
    <path d="M 159.675089 103.631109 
C 160.268101 103.631109 160.836904 103.395503 161.256227 102.97618 
C 161.67555 102.556857 161.911157 101.988053 161.911157 101.395041 
C 161.911157 100.802029 161.67555 100.233225 161.256227 99.813902 
C 160.836904 99.39458 160.268101 99.158973 159.675089 99.158973 
C 159.082076 99.158973 158.513273 99.39458 158.09395 99.813902 
C 157.674627 100.233225 157.439021 100.802029 157.439021 101.395041 
C 157.439021 101.988053 157.674627 102.556857 158.09395 102.97618 
C 158.513273 103.395503 159.082076 103.631109 159.675089 103.631109 
z
" clip-path="url(#pf9da287bcd)" style="fill: #808080; stroke: #808080"/>
    <path d="M 175.996222 104.557319 
C 176.834868 104.557319 177.639278 104.224121 178.23229 103.631109 
C 178.825302 103.038097 179.1585 102.233687 179.1585 101.395041 
C 179.1585 100.556395 178.825302 99.751986 178.23229 99.158973 
C 177.639278 98.565961 176.834868 98.232764 175.996222 98.232764 
C 175.157576 98.232764 174.353166 98.565961 173.760154 99.158973 
C 173.167142 99.751986 172.833944 100.556395 172.833944 101.395041 
C 172.833944 102.233687 173.167142 103.038097 173.760154 103.631109 
C 174.353166 104.224121 175.157576 104.557319 175.996222 104.557319 
z
" clip-path="url(#pf9da287bcd)" style="fill: #808080; stroke: #808080"/>
    <path d="M 192.317355 105.268025 
C 193.344483 105.268025 194.32968 104.859943 195.055968 104.133654 
C 195.782257 103.407366 196.190339 102.422169 196.190339 101.395041 
C 196.190339 100.367914 195.782257 99.382717 195.055968 98.656429 
C 194.32968 97.93014 193.344483 97.522058 192.317355 97.522058 
C 191.290228 97.522058 190.305031 97.93014 189.578743 98.656429 
C 188.852454 99.382717 188.444372 100.367914 188.444372 101.395041 
C 188.444372 102.422169 188.852454 103.407366 189.578743 104.133654 
C 190.305031 104.859943 191.290228 105.268025 192.317355 105.268025 
z
" clip-path="url(#pf9da287bcd)" style="fill: #808080; stroke: #808080"/>
    <path d="M 88.27013 174.381139 
C 88.689453 174.381139 89.091658 174.21454 89.388164 173.918034 
C 89.68467 173.621528 89.851269 173.219323 89.851269 172.8 
C 89.851269 172.380677 89.68467 171.978472 89.388164 171.681966 
C 89.091658 171.38546 88.689453 171.218861 88.27013 171.218861 
C 87.850807 171.218861 87.448602 171.38546 87.152096 171.681966 
C 86.85559 171.978472 86.688991 172.380677 86.688991 172.8 
C 86.688991 173.219323 86.85559 173.621528 87.152096 173.918034 
C 87.448602 174.21454 87.850807 174.381139 88.27013 174.381139 
z
" clip-path="url(#pf9da287bcd)" style="fill: #808080; stroke: #808080"/>
    <path d="M 92.350413 174.381139 
C 92.769736 174.381139 93.171941 174.21454 93.468447 173.918034 
C 93.764953 173.621528 93.931552 173.219323 93.931552 172.8 
C 93.931552 172.380677 93.764953 171.978472 93.468447 171.681966 
C 93.171941 171.38546 92.769736 171.218861 92.350413 171.218861 
C 91.93109 171.218861 91.528885 171.38546 91.232379 171.681966 
C 90.935873 171.978472 90.769274 172.380677 90.769274 172.8 
C 90.769274 173.219323 90.935873 173.621528 91.232379 173.918034 
C 91.528885 174.21454 91.93109 174.381139 92.350413 174.381139 
z
" clip-path="url(#pf9da287bcd)" style="fill: #808080; stroke: #808080"/>
    <path d="M 208.638489 104.133654 
C 209.364777 104.133654 210.061417 103.845097 210.57498 103.331533 
C 211.088544 102.817969 211.377102 102.12133 211.377102 101.395041 
C 211.377102 100.668753 211.088544 99.972113 210.57498 99.45855 
C 210.061417 98.944986 209.364777 98.656429 208.638489 98.656429 
C 207.9122 98.656429 207.215561 98.944986 206.701997 99.45855 
C 206.188434 99.972113 205.899876 100.668753 205.899876 101.395041 
C 205.899876 102.12133 206.188434 102.817969 206.701997 103.331533 
C 207.215561 103.845097 207.9122 104.133654 208.638489 104.133654 
z
" clip-path="url(#pf9da287bcd)" style="fill: #808080; stroke: #808080"/>
    <path d="M 224.959622 104.930575 
C 225.897257 104.930575 226.796614 104.558049 227.459622 103.895041 
C 228.12263 103.232034 228.495156 102.332676 228.495156 101.395041 
C 228.495156 100.457407 228.12263 99.558049 227.459622 98.895041 
C 226.796614 98.232034 225.897257 97.859507 224.959622 97.859507 
C 224.021988 97.859507 223.12263 98.232034 222.459622 98.895041 
C 221.796614 99.558049 221.424088 100.457407 221.424088 101.395041 
C 221.424088 102.332676 221.796614 103.232034 222.459622 103.895041 
C 223.12263 104.558049 224.021988 104.930575 224.959622 104.930575 
z
" clip-path="url(#pf9da287bcd)" style="fill: #808080; stroke: #808080"/>
    <path d="M 241.280756 105.867177 
C 242.46678 105.867177 243.604387 105.395965 244.443033 104.557319 
C 245.281679 103.718673 245.752892 102.581066 245.752892 101.395041 
C 245.752892 100.209017 245.281679 99.07141 244.443033 98.232764 
C 243.604387 97.394118 242.46678 96.922905 241.280756 96.922905 
C 240.094731 96.922905 238.957124 97.394118 238.118478 98.232764 
C 237.279832 99.07141 236.80862 100.209017 236.80862 101.395041 
C 236.80862 102.581066 237.279832 103.718673 238.118478 104.557319 
C 238.957124 105.395965 240.094731 105.867177 241.280756 105.867177 
z
" clip-path="url(#pf9da287bcd)" style="fill: #808080; stroke: #808080"/>
    <path d="M 257.601889 104.133654 
C 258.328178 104.133654 259.024817 103.845097 259.538381 103.331533 
C 260.051944 102.817969 260.340502 102.12133 260.340502 101.395041 
C 260.340502 100.668753 260.051944 99.972113 259.538381 99.45855 
C 259.024817 98.944986 258.328178 98.656429 257.601889 98.656429 
C 256.8756 98.656429 256.178961 98.944986 255.665397 99.45855 
C 255.151834 99.972113 254.863276 100.668753 254.863276 101.395041 
C 254.863276 102.12133 255.151834 102.817969 255.665397 103.331533 
C 256.178961 103.845097 256.8756 104.133654 257.601889 104.133654 
z
" clip-path="url(#pf9da287bcd)" style="fill: #808080; stroke: #808080"/>
    <path d="M 273.923022 105.578341 
C 275.032447 105.578341 276.096581 105.137563 276.881062 104.353081 
C 277.665544 103.5686 278.106323 102.504465 278.106323 101.395041 
C 278.106323 100.285617 277.665544 99.221483 276.881062 98.437001 
C 276.096581 97.65252 275.032447 97.211741 273.923022 97.211741 
C 272.813598 97.211741 271.749464 97.65252 270.964983 98.437001 
C 270.180501 99.221483 269.739722 100.285617 269.739722 101.395041 
C 269.739722 102.504465 270.180501 103.5686 270.964983 104.353081 
C 271.749464 105.137563 272.813598 105.578341 273.923022 105.578341 
z
" clip-path="url(#pf9da287bcd)" style="fill: #808080; stroke: #808080"/>
    <path d="M 290.244156 104.557319 
C 291.082802 104.557319 291.887212 104.224121 292.480224 103.631109 
C 293.073236 103.038097 293.406434 102.233687 293.406434 101.395041 
C 293.406434 100.556395 293.073236 99.751986 292.480224 99.158973 
C 291.887212 98.565961 291.082802 98.232764 290.244156 98.232764 
C 289.40551 98.232764 288.6011 98.565961 288.008088 99.158973 
C 287.415076 99.751986 287.081878 100.556395 287.081878 101.395041 
C 287.081878 102.233687 287.415076 103.038097 288.008088 103.631109 
C 288.6011 104.224121 289.40551 104.557319 290.244156 104.557319 
z
" clip-path="url(#pf9da287bcd)" style="fill: #808080; stroke: #808080"/>
    <path d="M 306.565289 104.930575 
C 307.502924 104.930575 308.402282 104.558049 309.065289 103.895041 
C 309.728297 103.232034 310.100823 102.332676 310.100823 101.395041 
C 310.100823 100.457407 309.728297 99.558049 309.065289 98.895041 
C 308.402282 98.232034 307.502924 97.859507 306.565289 97.859507 
C 305.627655 97.859507 304.728297 98.232034 304.065289 98.895041 
C 303.402282 99.558049 303.029755 100.457407 303.029755 101.395041 
C 303.029755 102.332676 303.402282 103.232034 304.065289 103.895041 
C 304.728297 104.558049 305.627655 104.930575 306.565289 104.930575 
z
" clip-path="url(#pf9da287bcd)" style="fill: #808080; stroke: #808080"/>
    <path d="M 322.886423 102.97618 
C 323.305746 102.97618 323.707951 102.809581 324.004457 102.513075 
C 324.300963 102.216569 324.467561 101.814364 324.467561 101.395041 
C 324.467561 100.975718 324.300963 100.573513 324.004457 100.277007 
C 323.707951 99.980501 323.305746 99.813902 322.886423 99.813902 
C 322.4671 99.813902 322.064895 99.980501 321.768389 100.277007 
C 321.471883 100.573513 321.305284 100.975718 321.305284 101.395041 
C 321.305284 101.814364 321.471883 102.216569 321.768389 102.513075 
C 322.064895 102.809581 322.4671 102.97618 322.886423 102.97618 
z
" clip-path="url(#pf9da287bcd)" style="fill: #808080; stroke: #808080"/>
    <path d="M 39.986777 175.036068 
C 40.579789 175.036068 41.148593 174.800462 41.567916 174.381139 
C 41.987239 173.961816 42.222845 173.393012 42.222845 172.8 
C 42.222845 172.206988 41.987239 171.638184 41.567916 171.218861 
C 41.148593 170.799538 40.579789 170.563932 39.986777 170.563932 
C 39.393765 170.563932 38.824961 170.799538 38.405638 171.218861 
C 37.986315 171.638184 37.750709 172.206988 37.750709 172.8 
C 37.750709 173.393012 37.986315 173.961816 38.405638 174.381139 
C 38.824961 174.800462 39.393765 175.036068 39.986777 175.036068 
z
" clip-path="url(#pf9da287bcd)" style="fill: #808080; stroke: #808080"/>
    <path d="M 339.207556 104.133654 
C 339.933845 104.133654 340.630484 103.845097 341.144048 103.331533 
C 341.657611 102.817969 341.946169 102.12133 341.946169 101.395041 
C 341.946169 100.668753 341.657611 99.972113 341.144048 99.45855 
C 340.630484 98.944986 339.933845 98.656429 339.207556 98.656429 
C 338.481267 98.656429 337.784628 98.944986 337.271064 99.45855 
C 336.757501 99.972113 336.468943 100.668753 336.468943 101.395041 
C 336.468943 102.12133 336.757501 102.817969 337.271064 103.331533 
C 337.784628 103.845097 338.481267 104.133654 339.207556 104.133654 
z
" clip-path="url(#pf9da287bcd)" style="fill: #808080; stroke: #808080"/>
    <path d="M 355.528689 105.867177 
C 356.714714 105.867177 357.852321 105.395965 358.690967 104.557319 
C 359.529613 103.718673 360.000825 102.581066 360.000825 101.395041 
C 360.000825 100.209017 359.529613 99.07141 358.690967 98.232764 
C 357.852321 97.394118 356.714714 96.922905 355.528689 96.922905 
C 354.342665 96.922905 353.205058 97.394118 352.366412 98.232764 
C 351.527766 99.07141 351.056554 100.209017 351.056554 101.395041 
C 351.056554 102.581066 351.527766 103.718673 352.366412 104.557319 
C 353.205058 105.395965 354.342665 105.867177 355.528689 105.867177 
z
" clip-path="url(#pf9da287bcd)" style="fill: #808080; stroke: #808080"/>
    <path d="M 106.631405 174.381139 
C 107.050728 174.381139 107.452933 174.21454 107.749439 173.918034 
C 108.045945 173.621528 108.212544 173.219323 108.212544 172.8 
C 108.212544 172.380677 108.045945 171.978472 107.749439 171.681966 
C 107.452933 171.38546 107.050728 171.218861 106.631405 171.218861 
C 106.212082 171.218861 105.809877 171.38546 105.513371 171.681966 
C 105.216865 171.978472 105.050266 172.380677 105.050266 172.8 
C 105.050266 173.219323 105.216865 173.621528 105.513371 173.918034 
C 105.809877 174.21454 106.212082 174.381139 106.631405 174.381139 
z
" clip-path="url(#pf9da287bcd)" style="fill: #808080; stroke: #808080"/>
    <path d="M 371.849823 101.395041 
C 371.849823 101.395041 371.849823 101.395041 371.849823 101.395041 
C 371.849823 101.395041 371.849823 101.395041 371.849823 101.395041 
C 371.849823 101.395041 371.849823 101.395041 371.849823 101.395041 
C 371.849823 101.395041 371.849823 101.395041 371.849823 101.395041 
C 371.849823 101.395041 371.849823 101.395041 371.849823 101.395041 
C 371.849823 101.395041 371.849823 101.395041 371.849823 101.395041 
C 371.849823 101.395041 371.849823 101.395041 371.849823 101.395041 
C 371.849823 101.395041 371.849823 101.395041 371.849823 101.395041 
z
" clip-path="url(#pf9da287bcd)" style="fill: #808080; stroke: #808080"/>
    <path d="M 96.430697 174.381139 
C 96.850019 174.381139 97.252224 174.21454 97.548731 173.918034 
C 97.845237 173.621528 98.011835 173.219323 98.011835 172.8 
C 98.011835 172.380677 97.845237 171.978472 97.548731 171.681966 
C 97.252224 171.38546 96.850019 171.218861 96.430697 171.218861 
C 96.011374 171.218861 95.609169 171.38546 95.312663 171.681966 
C 95.016157 171.978472 94.849558 172.380677 94.849558 172.8 
C 94.849558 173.219323 95.016157 173.621528 95.312663 173.918034 
C 95.609169 174.21454 96.011374 174.381139 96.430697 174.381139 
z
" clip-path="url(#pf9da287bcd)" style="fill: #808080; stroke: #808080"/>
    <path d="M 100.51098 175.962278 
C 101.349626 175.962278 102.154036 175.62908 102.747048 175.036068 
C 103.34006 174.443056 103.673258 173.638646 103.673258 172.8 
C 103.673258 171.961354 103.34006 171.156944 102.747048 170.563932 
C 102.154036 169.97092 101.349626 169.637722 100.51098 169.637722 
C 99.672334 169.637722 98.867924 169.97092 98.274912 170.563932 
C 97.6819 171.156944 97.348702 171.961354 97.348702 172.8 
C 97.348702 173.638646 97.6819 174.443056 98.274912 175.036068 
C 98.867924 175.62908 99.672334 175.962278 100.51098 175.962278 
z
" clip-path="url(#pf9da287bcd)" style="fill: #808080; stroke: #808080"/>
    <path d="M 388.170956 104.133654 
C 388.897245 104.133654 389.593884 103.845097 390.107448 103.331533 
C 390.621012 102.817969 390.909569 102.12133 390.909569 101.395041 
C 390.909569 100.668753 390.621012 99.972113 390.107448 99.45855 
C 389.593884 98.944986 388.897245 98.656429 388.170956 98.656429 
C 387.444668 98.656429 386.748028 98.944986 386.234465 99.45855 
C 385.720901 99.972113 385.432344 100.668753 385.432344 101.395041 
C 385.432344 102.12133 385.720901 102.817969 386.234465 103.331533 
C 386.748028 103.845097 387.444668 104.133654 388.170956 104.133654 
z
" clip-path="url(#pf9da287bcd)" style="fill: #808080; stroke: #808080"/>
    <path d="M 404.49209 104.133654 
C 405.218378 104.133654 405.915018 103.845097 406.428581 103.331533 
C 406.942145 102.817969 407.230703 102.12133 407.230703 101.395041 
C 407.230703 100.668753 406.942145 99.972113 406.428581 99.45855 
C 405.915018 98.944986 405.218378 98.656429 404.49209 98.656429 
C 403.765801 98.656429 403.069162 98.944986 402.555598 99.45855 
C 402.042034 99.972113 401.753477 100.668753 401.753477 101.395041 
C 401.753477 102.12133 402.042034 102.817969 402.555598 103.331533 
C 403.069162 103.845097 403.765801 104.133654 404.49209 104.133654 
z
" clip-path="url(#pf9da287bcd)" style="fill: #808080; stroke: #808080"/>
    <path d="M 420.813223 104.133654 
C 421.539512 104.133654 422.236151 103.845097 422.749715 103.331533 
C 423.263278 102.817969 423.551836 102.12133 423.551836 101.395041 
C 423.551836 100.668753 423.263278 99.972113 422.749715 99.45855 
C 422.236151 98.944986 421.539512 98.656429 420.813223 98.656429 
C 420.086935 98.656429 419.390295 98.944986 418.876731 99.45855 
C 418.363168 99.972113 418.07461 100.668753 418.07461 101.395041 
C 418.07461 102.12133 418.363168 102.817969 418.876731 103.331533 
C 419.390295 103.845097 420.086935 104.133654 420.813223 104.133654 
z
" clip-path="url(#pf9da287bcd)" style="fill: #808080; stroke: #808080"/>
    <path d="M 335.127273 175.538613 
C 335.853561 175.538613 336.550201 175.250055 337.063764 174.736492 
C 337.577328 174.222928 337.865886 173.526289 337.865886 172.8 
C 337.865886 172.073711 337.577328 171.377072 337.063764 170.863508 
C 336.550201 170.349945 335.853561 170.061387 335.127273 170.061387 
C 334.400984 170.061387 333.704345 170.349945 333.190781 170.863508 
C 332.677217 171.377072 332.38866 172.073711 332.38866 172.8 
C 332.38866 173.526289 332.677217 174.222928 333.190781 174.736492 
C 333.704345 175.250055 334.400984 175.538613 335.127273 175.538613 
z
" clip-path="url(#pf9da287bcd)" style="fill: #808080; stroke: #808080"/>
    <path d="M 114.791972 175.036068 
C 115.384984 175.036068 115.953788 174.800462 116.37311 174.381139 
C 116.792433 173.961816 117.02804 173.393012 117.02804 172.8 
C 117.02804 172.206988 116.792433 171.638184 116.37311 171.218861 
C 115.953788 170.799538 115.384984 170.563932 114.791972 170.563932 
C 114.19896 170.563932 113.630156 170.799538 113.210833 171.218861 
C 112.79151 171.638184 112.555904 172.206988 112.555904 172.8 
C 112.555904 173.393012 112.79151 173.961816 113.210833 174.381139 
C 113.630156 174.800462 114.19896 175.036068 114.791972 175.036068 
z
" clip-path="url(#pf9da287bcd)" style="fill: #808080; stroke: #808080"/>
    <path d="M 204.558205 174.381139 
C 204.977528 174.381139 205.379733 174.21454 205.676239 173.918034 
C 205.972745 173.621528 206.139344 173.219323 206.139344 172.8 
C 206.139344 172.380677 205.972745 171.978472 205.676239 171.681966 
C 205.379733 171.38546 204.977528 171.218861 204.558205 171.218861 
C 204.138883 171.218861 203.736678 171.38546 203.440171 171.681966 
C 203.143665 171.978472 202.977067 172.380677 202.977067 172.8 
C 202.977067 173.219323 203.143665 173.621528 203.440171 173.918034 
C 203.736678 174.21454 204.138883 174.381139 204.558205 174.381139 
z
" clip-path="url(#pf9da287bcd)" style="fill: #808080; stroke: #808080"/>
    <path d="M 92.350413 245.786098 
C 92.769736 245.786098 93.171941 245.619499 93.468447 245.322993 
C 93.764953 245.026487 93.931552 244.624282 93.931552 244.204959 
C 93.931552 243.785636 93.764953 243.383431 93.468447 243.086925 
C 93.171941 242.790419 92.769736 242.62382 92.350413 242.62382 
C 91.93109 242.62382 91.528885 242.790419 91.232379 243.086925 
C 90.935873 243.383431 90.769274 243.785636 90.769274 244.204959 
C 90.769274 244.624282 90.935873 245.026487 91.232379 245.322993 
C 91.528885 245.619499 91.93109 245.786098 92.350413 245.786098 
z
" clip-path="url(#pf9da287bcd)" style="fill: #808080; stroke: #808080"/>
    <path d="M 371.849823 174.381139 
C 372.269146 174.381139 372.671351 174.21454 372.967857 173.918034 
C 373.264363 173.621528 373.430962 173.219323 373.430962 172.8 
C 373.430962 172.380677 373.264363 171.978472 372.967857 171.681966 
C 372.671351 171.38546 372.269146 171.218861 371.849823 171.218861 
C 371.4305 171.218861 371.028295 171.38546 370.731789 171.681966 
C 370.435283 171.978472 370.268684 172.380677 370.268684 172.8 
C 370.268684 173.219323 370.435283 173.621528 370.731789 173.918034 
C 371.028295 174.21454 371.4305 174.381139 371.849823 174.381139 
z
" clip-path="url(#pf9da287bcd)" style="fill: #808080; stroke: #808080"/>
    <path d="M 290.244156 172.8 
C 290.244156 172.8 290.244156 172.8 290.244156 172.8 
C 290.244156 172.8 290.244156 172.8 290.244156 172.8 
C 290.244156 172.8 290.244156 172.8 290.244156 172.8 
C 290.244156 172.8 290.244156 172.8 290.244156 172.8 
C 290.244156 172.8 290.244156 172.8 290.244156 172.8 
C 290.244156 172.8 290.244156 172.8 290.244156 172.8 
C 290.244156 172.8 290.244156 172.8 290.244156 172.8 
C 290.244156 172.8 290.244156 172.8 290.244156 172.8 
z
" clip-path="url(#pf9da287bcd)" style="fill: #808080; stroke: #808080"/>
    <path d="M 45.427155 175.036068 
C 46.020167 175.036068 46.588971 174.800462 47.008293 174.381139 
C 47.427616 173.961816 47.663223 173.393012 47.663223 172.8 
C 47.663223 172.206988 47.427616 171.638184 47.008293 171.218861 
C 46.588971 170.799538 46.020167 170.563932 45.427155 170.563932 
C 44.834143 170.563932 44.265339 170.799538 43.846016 171.218861 
C 43.426693 171.638184 43.191087 172.206988 43.191087 172.8 
C 43.191087 173.393012 43.426693 173.961816 43.846016 174.381139 
C 44.265339 174.800462 44.834143 175.036068 45.427155 175.036068 
z
" clip-path="url(#pf9da287bcd)" style="fill: #808080; stroke: #808080"/>
    <path d="M 106.631405 244.204959 
C 106.631405 244.204959 106.631405 244.204959 106.631405 244.204959 
C 106.631405 244.204959 106.631405 244.204959 106.631405 244.204959 
C 106.631405 244.204959 106.631405 244.204959 106.631405 244.204959 
C 106.631405 244.204959 106.631405 244.204959 106.631405 244.204959 
C 106.631405 244.204959 106.631405 244.204959 106.631405 244.204959 
C 106.631405 244.204959 106.631405 244.204959 106.631405 244.204959 
C 106.631405 244.204959 106.631405 244.204959 106.631405 244.204959 
C 106.631405 244.204959 106.631405 244.204959 106.631405 244.204959 
z
" clip-path="url(#pf9da287bcd)" style="fill: #808080; stroke: #808080"/>
    <path d="M 253.521606 174.381139 
C 253.940929 174.381139 254.343134 174.21454 254.63964 173.918034 
C 254.936146 173.621528 255.102744 173.219323 255.102744 172.8 
C 255.102744 172.380677 254.936146 171.978472 254.63964 171.681966 
C 254.343134 171.38546 253.940929 171.218861 253.521606 171.218861 
C 253.102283 171.218861 252.700078 171.38546 252.403572 171.681966 
C 252.107066 171.978472 251.940467 172.380677 251.940467 172.8 
C 251.940467 173.219323 252.107066 173.621528 252.403572 173.918034 
C 252.700078 174.21454 253.102283 174.381139 253.521606 174.381139 
z
" clip-path="url(#pf9da287bcd)" style="fill: #808080; stroke: #808080"/>
    <path d="M 50.867532 174.381139 
C 51.286855 174.381139 51.68906 174.21454 51.985566 173.918034 
C 52.282073 173.621528 52.448671 173.219323 52.448671 172.8 
C 52.448671 172.380677 52.282073 171.978472 51.985566 171.681966 
C 51.68906 171.38546 51.286855 171.218861 50.867532 171.218861 
C 50.44821 171.218861 50.046005 171.38546 49.749498 171.681966 
C 49.452992 171.978472 49.286394 172.380677 49.286394 172.8 
C 49.286394 173.219323 49.452992 173.621528 49.749498 173.918034 
C 50.046005 174.21454 50.44821 174.381139 50.867532 174.381139 
z
" clip-path="url(#pf9da287bcd)" style="fill: #808080; stroke: #808080"/>
    <path d="M 104.591263 317.191056 
C 105.010586 317.191056 105.412791 317.024457 105.709297 316.727951 
C 106.005803 316.431445 106.172402 316.02924 106.172402 315.609917 
C 106.172402 315.190594 106.005803 314.788389 105.709297 314.491883 
C 105.412791 314.195377 105.010586 314.028779 104.591263 314.028779 
C 104.17194 314.028779 103.769735 314.195377 103.473229 314.491883 
C 103.176723 314.788389 103.010124 315.190594 103.010124 315.609917 
C 103.010124 316.02924 103.176723 316.431445 103.473229 316.727951 
C 103.769735 317.024457 104.17194 317.191056 104.591263 317.191056 
z
" clip-path="url(#pf9da287bcd)" style="fill: #808080; stroke: #808080"/>
    <path d="M 108.671547 317.191056 
C 109.09087 317.191056 109.493075 317.024457 109.789581 316.727951 
C 110.086087 316.431445 110.252685 316.02924 110.252685 315.609917 
C 110.252685 315.190594 110.086087 314.788389 109.789581 314.491883 
C 109.493075 314.195377 109.09087 314.028779 108.671547 314.028779 
C 108.252224 314.028779 107.850019 314.195377 107.553513 314.491883 
C 107.257007 314.788389 107.090408 315.190594 107.090408 315.609917 
C 107.090408 316.02924 107.257007 316.431445 107.553513 316.727951 
C 107.850019 317.024457 108.252224 317.191056 108.671547 317.191056 
z
" clip-path="url(#pf9da287bcd)" style="fill: #808080; stroke: #808080"/>
    <path d="M 61.748288 174.381139 
C 62.167611 174.381139 62.569816 174.21454 62.866322 173.918034 
C 63.162828 173.621528 63.329427 173.219323 63.329427 172.8 
C 63.329427 172.380677 63.162828 171.978472 62.866322 171.681966 
C 62.569816 171.38546 62.167611 171.218861 61.748288 171.218861 
C 61.328965 171.218861 60.92676 171.38546 60.630254 171.681966 
C 60.333748 171.978472 60.167149 172.380677 60.167149 172.8 
C 60.167149 173.219323 60.333748 173.621528 60.630254 173.918034 
C 60.92676 174.21454 61.328965 174.381139 61.748288 174.381139 
z
" clip-path="url(#pf9da287bcd)" style="fill: #808080; stroke: #808080"/>
    <path d="M 175.996222 174.381139 
C 176.415545 174.381139 176.81775 174.21454 177.114256 173.918034 
C 177.410762 173.621528 177.577361 173.219323 177.577361 172.8 
C 177.577361 172.380677 177.410762 171.978472 177.114256 171.681966 
C 176.81775 171.38546 176.415545 171.218861 175.996222 171.218861 
C 175.576899 171.218861 175.174694 171.38546 174.878188 171.681966 
C 174.581682 171.978472 174.415083 172.380677 174.415083 172.8 
C 174.415083 173.219323 174.581682 173.621528 174.878188 173.918034 
C 175.174694 174.21454 175.576899 174.381139 175.996222 174.381139 
z
" clip-path="url(#pf9da287bcd)" style="fill: #808080; stroke: #808080"/>
    <path d="M 143.353955 175.036068 
C 143.946967 175.036068 144.515771 174.800462 144.935094 174.381139 
C 145.354417 173.961816 145.590023 173.393012 145.590023 172.8 
C 145.590023 172.206988 145.354417 171.638184 144.935094 171.218861 
C 144.515771 170.799538 143.946967 170.563932 143.353955 170.563932 
C 142.760943 170.563932 142.192139 170.799538 141.772816 171.218861 
C 141.353493 171.638184 141.117887 172.206988 141.117887 172.8 
C 141.117887 173.393012 141.353493 173.961816 141.772816 174.381139 
C 142.192139 174.800462 142.760943 175.036068 143.353955 175.036068 
z
" clip-path="url(#pf9da287bcd)" style="fill: #808080; stroke: #808080"/>
    <path d="M 290.244156 245.786098 
C 290.663479 245.786098 291.065684 245.619499 291.36219 245.322993 
C 291.658696 245.026487 291.825295 244.624282 291.825295 244.204959 
C 291.825295 243.785636 291.658696 243.383431 291.36219 243.086925 
C 291.065684 242.790419 290.663479 242.62382 290.244156 242.62382 
C 289.824833 242.62382 289.422628 242.790419 289.126122 243.086925 
C 288.829616 243.383431 288.663017 243.785636 288.663017 244.204959 
C 288.663017 244.624282 288.829616 245.026487 289.126122 245.322993 
C 289.422628 245.619499 289.824833 245.786098 290.244156 245.786098 
z
" clip-path="url(#pf9da287bcd)" style="fill: #808080; stroke: #808080"/>
    <path d="M 343.287839 174.381139 
C 343.707162 174.381139 344.109367 174.21454 344.405873 173.918034 
C 344.70238 173.621528 344.868978 173.219323 344.868978 172.8 
C 344.868978 172.380677 344.70238 171.978472 344.405873 171.681966 
C 344.109367 171.38546 343.707162 171.218861 343.287839 171.218861 
C 342.868517 171.218861 342.466312 171.38546 342.169805 171.681966 
C 341.873299 171.978472 341.706701 172.380677 341.706701 172.8 
C 341.706701 173.219323 341.873299 173.621528 342.169805 173.918034 
C 342.466312 174.21454 342.868517 174.381139 343.287839 174.381139 
z
" clip-path="url(#pf9da287bcd)" style="fill: #808080; stroke: #808080"/>
    <path d="M 78.069421 174.381139 
C 78.488744 174.381139 78.890949 174.21454 79.187455 173.918034 
C 79.483962 173.621528 79.65056 173.219323 79.65056 172.8 
C 79.65056 172.380677 79.483962 171.978472 79.187455 171.681966 
C 78.890949 171.38546 78.488744 171.218861 78.069421 171.218861 
C 77.650099 171.218861 77.247894 171.38546 76.951387 171.681966 
C 76.654881 171.978472 76.488283 172.380677 76.488283 172.8 
C 76.488283 173.219323 76.654881 173.621528 76.951387 173.918034 
C 77.247894 174.21454 77.650099 174.381139 78.069421 174.381139 
z
" clip-path="url(#pf9da287bcd)" style="fill: #808080; stroke: #808080"/>
    <path d="M 212.718772 174.381139 
C 213.138095 174.381139 213.5403 174.21454 213.836806 173.918034 
C 214.133312 173.621528 214.299911 173.219323 214.299911 172.8 
C 214.299911 172.380677 214.133312 171.978472 213.836806 171.681966 
C 213.5403 171.38546 213.138095 171.218861 212.718772 171.218861 
C 212.299449 171.218861 211.897244 171.38546 211.600738 171.681966 
C 211.304232 171.978472 211.137633 172.380677 211.137633 172.8 
C 211.137633 173.219323 211.304232 173.621528 211.600738 173.918034 
C 211.897244 174.21454 212.299449 174.381139 212.718772 174.381139 
z
" clip-path="url(#pf9da287bcd)" style="fill: #808080; stroke: #808080"/>
    <path d="M 261.682172 174.381139 
C 262.101495 174.381139 262.5037 174.21454 262.800206 173.918034 
C 263.096712 173.621528 263.263311 173.219323 263.263311 172.8 
C 263.263311 172.380677 263.096712 171.978472 262.800206 171.681966 
C 262.5037 171.38546 262.101495 171.218861 261.682172 171.218861 
C 261.262849 171.218861 260.860644 171.38546 260.564138 171.681966 
C 260.267632 171.978472 260.101034 172.380677 260.101034 172.8 
C 260.101034 173.219323 260.267632 173.621528 260.564138 173.918034 
C 260.860644 174.21454 261.262849 174.381139 261.682172 174.381139 
z
" clip-path="url(#pf9da287bcd)" style="fill: #808080; stroke: #808080"/>
    <path d="M 388.170956 174.381139 
C 388.590279 174.381139 388.992484 174.21454 389.28899 173.918034 
C 389.585496 173.621528 389.752095 173.219323 389.752095 172.8 
C 389.752095 172.380677 389.585496 171.978472 389.28899 171.681966 
C 388.992484 171.38546 388.590279 171.218861 388.170956 171.218861 
C 387.751633 171.218861 387.349428 171.38546 387.052922 171.681966 
C 386.756416 171.978472 386.589817 172.380677 386.589817 172.8 
C 386.589817 173.219323 386.756416 173.621528 387.052922 173.918034 
C 387.349428 174.21454 387.751633 174.381139 388.170956 174.381139 
z
" clip-path="url(#pf9da287bcd)" style="fill: #808080; stroke: #808080"/>
   </g>
  </g>
 </g>
 <defs>
  <clipPath id="pf9da287bcd">
   <rect x="0" y="0" width="460.8" height="345.6"/>
  </clipPath>
 </defs>
</svg>
